PrestigeElite-BoldSlanted.ufo
<glyph name="exclam" format="1">
  <advance width="600"/>
  <unicode hex="0021"/>
  <outline>
    <contour>
      <point x="358" y="154" type="line"/>
      <point x="308" y="154" type="line"/>
      <point x="359" y="558" type="line"/>
      <point x="362" y="590"/>
      <point x="399" y="612"/>
      <point x="430" y="612" type="curve" smooth="yes"/>
      <point x="461" y="612"/>
      <point x="488" y="590"/>
      <point x="479" y="558" type="curve" smooth="yes"/>
    </contour>
    <contour>
      <point x="251" y="45" type="curve" smooth="yes"/>
      <point x="257" y="77"/>
      <point x="291" y="102"/>
      <point x="322" y="102" type="curve" smooth="yes"/>
      <point x="353" y="102"/>
      <point x="375" y="77"/>
      <point x="369" y="45" type="curve" smooth="yes"/>
      <point x="362" y="13"/>
      <point x="329" y="-12"/>
      <point x="297" y="-12" type="curve" smooth="yes"/>
      <point x="265" y="-12"/>
      <point x="244" y="13"/>
    </contour>
  </outline>
</glyph>
<glyph name="quotedbl" format="1">
  <advance width="600"/>
  <unicode hex="0022"/>
  <outline>
    <contour>
      <point x="285" y="315" type="line"/>
      <point x="233" y="315" type="line"/>
      <point x="244" y="498" type="line" smooth="yes"/>
      <point x="246" y="520"/>
      <point x="248" y="556"/>
      <point x="252" y="574" type="curve" smooth="yes"/>
      <point x="255" y="589"/>
      <point x="285" y="612"/>
      <point x="322" y="612" type="curve" smooth="yes"/>
      <point x="359" y="612"/>
      <point x="379" y="589"/>
      <point x="376" y="574" type="curve" smooth="yes"/>
      <point x="372" y="556"/>
      <point x="360" y="520"/>
      <point x="352" y="498" type="curve" smooth="yes"/>
    </contour>
    <contour>
      <point x="501" y="315" type="line"/>
      <point x="449" y="315" type="line"/>
      <point x="460" y="498" type="line" smooth="yes"/>
      <point x="462" y="520"/>
      <point x="464" y="556"/>
      <point x="468" y="574" type="curve" smooth="yes"/>
      <point x="471" y="589"/>
      <point x="501" y="612"/>
      <point x="538" y="612" type="curve" smooth="yes"/>
      <point x="575" y="612"/>
      <point x="595" y="589"/>
      <point x="592" y="574" type="curve" smooth="yes"/>
      <point x="588" y="556"/>
      <point x="576" y="520"/>
      <point x="568" y="498" type="curve" smooth="yes"/>
    </contour>
  </outline>
</glyph>
<glyph name="dollar" format="1">
  <advance width="600"/>
  <unicode hex="0024"/>
  <outline>
    <contour>
      <point x="339" y="15" type="curve"/>
      <point x="311" y="-116" type="line"/>
      <point x="249" y="-116" type="line"/>
      <point x="277" y="15" type="line"/>
      <point x="234" y="15"/>
      <point x="161" y="40"/>
      <point x="121" y="51" type="curve"/>
      <point x="138" y="110" type="line" smooth="yes"/>
      <point x="146" y="138"/>
      <point x="145" y="166"/>
      <point x="142" y="193" type="curve"/>
      <point x="209" y="193" type="line"/>
      <point x="205" y="168"/>
      <point x="199" y="131"/>
      <point x="209" y="111" type="curve" smooth="yes"/>
      <point x="224" y="80"/>
      <point x="286" y="71"/>
      <point x="320" y="71" type="curve" smooth="yes"/>
      <point x="384" y="71"/>
      <point x="455" y="105"/>
      <point x="470" y="175" type="curve" smooth="yes"/>
      <point x="501" y="318"/>
      <point x="183" y="265"/>
      <point x="220" y="439" type="curve" smooth="yes"/>
      <point x="238" y="521"/>
      <point x="321" y="588"/>
      <point x="402" y="600" type="curve"/>
      <point x="424" y="706" type="line"/>
      <point x="486" y="706" type="line"/>
      <point x="464" y="600" type="line"/>
      <point x="526" y="600"/>
      <point x="568" y="584"/>
      <point x="594" y="546" type="curve"/>
      <point x="586" y="531"/>
      <point x="581" y="516"/>
      <point x="578" y="500" type="curve"/>
      <point x="569" y="427" type="line"/>
      <point x="504" y="427" type="line"/>
      <point x="510" y="455" type="line" smooth="yes"/>
      <point x="523" y="519"/>
      <point x="493" y="544"/>
      <point x="428" y="544" type="curve" smooth="yes"/>
      <point x="366" y="544"/>
      <point x="300" y="509"/>
      <point x="286" y="443" type="curve" smooth="yes"/>
      <point x="259" y="317"/>
      <point x="575" y="363"/>
      <point x="536" y="177" type="curve" smooth="yes"/>
      <point x="517" y="89"/>
      <point x="424" y="23"/>
    </contour>
  </outline>
</glyph>
<glyph name="percent" format="1">
  <advance width="600"/>
  <unicode hex="0025"/>
  <outline>
    <contour>
      <point x="246" y="382" type="curve" smooth="yes"/>
      <point x="295" y="382"/>
      <point x="318" y="447"/>
      <point x="326" y="483" type="curve" smooth="yes"/>
      <point x="333" y="519"/>
      <point x="338" y="584"/>
      <point x="289" y="584" type="curve" smooth="yes"/>
      <point x="240" y="584"/>
      <point x="217" y="519"/>
      <point x="210" y="483" type="curve" smooth="yes"/>
      <point x="202" y="447"/>
      <point x="197" y="382"/>
    </contour>
    <contour>
      <point x="554" y="633" type="line"/>
      <point x="583" y="613" type="line"/>
      <point x="170" y="-25" type="line"/>
      <point x="140" y="-4" type="line"/>
    </contour>
    <contour>
      <point x="432" y="-12" type="curve" smooth="yes"/>
      <point x="360" y="-12"/>
      <point x="353" y="57"/>
      <point x="366" y="117" type="curve" smooth="yes"/>
      <point x="379" y="177"/>
      <point x="415" y="246"/>
      <point x="487" y="246" type="curve" smooth="yes"/>
      <point x="559" y="246"/>
      <point x="567" y="177"/>
      <point x="554" y="117" type="curve" smooth="yes"/>
      <point x="541" y="57"/>
      <point x="504" y="-12"/>
    </contour>
    <contour>
      <point x="438" y="16" type="curve" smooth="yes"/>
      <point x="487" y="16"/>
      <point x="510" y="81"/>
      <point x="518" y="117" type="curve" smooth="yes"/>
      <point x="526" y="153"/>
      <point x="530" y="218"/>
      <point x="481" y="218" type="curve" smooth="yes"/>
      <point x="432" y="218"/>
      <point x="410" y="153"/>
      <point x="402" y="117" type="curve" smooth="yes"/>
      <point x="394" y="81"/>
      <point x="389" y="16"/>
    </contour>
    <contour>
      <point x="240" y="354" type="curve" smooth="yes"/>
      <point x="168" y="354"/>
      <point x="161" y="423"/>
      <point x="174" y="483" type="curve" smooth="yes"/>
      <point x="186" y="543"/>
      <point x="223" y="612"/>
      <point x="295" y="612" type="curve" smooth="yes"/>
      <point x="367" y="612"/>
      <point x="374" y="543"/>
      <point x="362" y="483" type="curve" smooth="yes"/>
      <point x="349" y="423"/>
      <point x="312" y="354"/>
    </contour>
  </outline>
</glyph>
<glyph name="ampersand" format="1">
  <advance width="600"/>
  <unicode hex="0026"/>
  <outline>
    <contour>
      <point x="393" y="95" type="curve"/>
      <point x="388" y="121" type="line"/>
      <point x="379" y="160"/>
      <point x="371" y="194"/>
      <point x="356" y="230" type="curve"/>
      <point x="310" y="315" type="line"/>
      <point x="248" y="295"/>
      <point x="209" y="240"/>
      <point x="196" y="180" type="curve" smooth="yes"/>
      <point x="182" y="112"/>
      <point x="204" y="44"/>
      <point x="279" y="44" type="curve" smooth="yes"/>
      <point x="320" y="44"/>
      <point x="360" y="64"/>
    </contour>
    <contour>
      <point x="520" y="547" type="curve"/>
      <point x="466" y="502" type="line"/>
      <point x="451" y="526"/>
      <point x="435" y="556"/>
      <point x="401" y="556" type="curve" smooth="yes"/>
      <point x="366" y="556"/>
      <point x="334" y="529"/>
      <point x="327" y="494" type="curve" smooth="yes"/>
      <point x="317" y="449"/>
      <point x="339" y="401"/>
      <point x="359" y="366" type="curve" smooth="yes"/>
      <point x="384" y="323" type="line"/>
      <point x="412" y="272"/>
      <point x="436" y="221"/>
      <point x="446" y="160" type="curve"/>
      <point x="470" y="207"/>
      <point x="486" y="255"/>
      <point x="497" y="303" type="curve"/>
      <point x="603" y="303" type="line"/>
      <point x="592" y="247" type="line"/>
      <point x="542" y="247" type="line"/>
      <point x="525" y="191"/>
      <point x="499" y="137"/>
      <point x="461" y="88" type="curve"/>
      <point x="463" y="77"/>
      <point x="471" y="55"/>
      <point x="483" y="55" type="curve" smooth="yes"/>
      <point x="498" y="55"/>
      <point x="508" y="89"/>
      <point x="513" y="98" type="curve"/>
      <point x="555" y="70" type="line"/>
      <point x="542" y="31"/>
      <point x="515" y="-3"/>
      <point x="471" y="-3" type="curve" smooth="yes"/>
      <point x="435" y="-3"/>
      <point x="426" y="14"/>
      <point x="409" y="40" type="curve"/>
      <point x="366" y="5"/>
      <point x="310" y="-12"/>
      <point x="260" y="-12" type="curve" smooth="yes"/>
      <point x="155" y="-12"/>
      <point x="110" y="82"/>
      <point x="131" y="180" type="curve" smooth="yes"/>
      <point x="148" y="257"/>
      <point x="207" y="330"/>
      <point x="284" y="359" type="curve"/>
      <point x="265" y="398"/>
      <point x="252" y="447"/>
      <point x="262" y="496" type="curve" smooth="yes"/>
      <point x="277" y="566"/>
      <point x="351" y="612"/>
      <point x="416" y="612" type="curve" smooth="yes"/>
      <point x="465" y="612"/>
      <point x="499" y="585"/>
    </contour>
  </outline>
</glyph>
<glyph name="quotesingle" format="1">
  <advance width="600"/>
  <unicode hex="0027"/>
  <outline>
    <contour>
      <point x="393" y="315" type="line"/>
      <point x="341" y="315" type="line"/>
      <point x="352" y="498" type="line" smooth="yes"/>
      <point x="354" y="520"/>
      <point x="356" y="556"/>
      <point x="360" y="574" type="curve" smooth="yes"/>
      <point x="363" y="589"/>
      <point x="393" y="612"/>
      <point x="430" y="612" type="curve" smooth="yes"/>
      <point x="467" y="612"/>
      <point x="487" y="589"/>
      <point x="484" y="574" type="curve" smooth="yes"/>
      <point x="480" y="556"/>
      <point x="468" y="520"/>
      <point x="460" y="498" type="curve" smooth="yes"/>
    </contour>
  </outline>
</glyph>
<glyph name="parenleft" format="1">
  <advance width="600"/>
  <unicode hex="0028"/>
  <outline>
    <contour>
      <point x="458" y="-70" type="curve"/>
      <point x="409" y="-117" type="line"/>
      <point x="292" y="-15"/>
      <point x="264" y="124"/>
      <point x="300" y="293" type="curve" smooth="yes"/>
      <point x="336" y="462"/>
      <point x="423" y="601"/>
      <point x="583" y="703" type="curve"/>
      <point x="612" y="656" type="line"/>
      <point x="467" y="575"/>
      <point x="396" y="437"/>
      <point x="365" y="293" type="curve" smooth="yes"/>
      <point x="334" y="148"/>
      <point x="347" y="10"/>
    </contour>
  </outline>
</glyph>
<glyph name="parenright" format="1">
  <advance width="600"/>
  <unicode hex="0029"/>
  <outline>
    <contour>
      <point x="266" y="656" type="curve"/>
      <point x="315" y="703" type="line"/>
      <point x="433" y="601"/>
      <point x="460" y="462"/>
      <point x="424" y="293" type="curve" smooth="yes"/>
      <point x="388" y="124"/>
      <point x="302" y="-15"/>
      <point x="141" y="-117" type="curve"/>
      <point x="112" y="-70" type="line"/>
      <point x="257" y="11"/>
      <point x="329" y="149"/>
      <point x="359" y="293" type="curve" smooth="yes"/>
      <point x="390" y="438"/>
      <point x="377" y="576"/>
    </contour>
  </outline>
</glyph>
<glyph name="asterisk" format="1">
  <advance width="600"/>
  <unicode hex="002A"/>
  <outline>
    <contour>
      <point x="428" y="494" type="curve"/>
      <point x="434" y="487" type="line"/>
      <point x="456" y="501"/>
      <point x="497" y="533"/>
      <point x="523" y="533" type="curve" smooth="yes"/>
      <point x="546" y="533"/>
      <point x="566" y="516"/>
      <point x="560" y="491" type="curve" smooth="yes"/>
      <point x="549" y="436"/>
      <point x="469" y="447"/>
      <point x="434" y="442" type="curve"/>
      <point x="429" y="436" type="line"/>
      <point x="449" y="422" type="line"/>
      <point x="466" y="408"/>
      <point x="493" y="392"/>
      <point x="487" y="363" type="curve" smooth="yes"/>
      <point x="482" y="340"/>
      <point x="459" y="320"/>
      <point x="436" y="320" type="curve" smooth="yes"/>
      <point x="392" y="320"/>
      <point x="391" y="380"/>
      <point x="392" y="414" type="curve"/>
      <point x="384" y="414" type="line"/>
      <point x="352" y="360" type="line" smooth="yes"/>
      <point x="338" y="337"/>
      <point x="320" y="318"/>
      <point x="292" y="318" type="curve" smooth="yes"/>
      <point x="268" y="318"/>
      <point x="256" y="340"/>
      <point x="261" y="362" type="curve" smooth="yes"/>
      <point x="265" y="380"/>
      <point x="282" y="393"/>
      <point x="297" y="403" type="curve" smooth="yes"/>
      <point x="351" y="437" type="line"/>
      <point x="351" y="446" type="line"/>
      <point x="343" y="446"/>
      <point x="330" y="447"/>
      <point x="316" y="449" type="curve" smooth="yes"/>
      <point x="291" y="452"/>
      <point x="240" y="452"/>
      <point x="250" y="498" type="curve" smooth="yes"/>
      <point x="254" y="519"/>
      <point x="279" y="537"/>
      <point x="299" y="537" type="curve" smooth="yes"/>
      <point x="330" y="537"/>
      <point x="351" y="509"/>
      <point x="371" y="489" type="curve"/>
      <point x="381" y="495" type="line"/>
      <point x="380" y="515"/>
      <point x="374" y="547"/>
      <point x="379" y="568" type="curve" smooth="yes"/>
      <point x="384" y="593"/>
      <point x="408" y="612"/>
      <point x="433" y="612" type="curve" smooth="yes"/>
      <point x="459" y="612"/>
      <point x="470" y="591"/>
      <point x="465" y="567" type="curve" smooth="yes"/>
      <point x="460" y="545"/>
      <point x="439" y="514"/>
    </contour>
  </outline>
</glyph>
<glyph name="comma" format="1">
  <advance width="600"/>
  <unicode hex="002C"/>
  <outline>
    <contour>
      <point x="219" y="-98" type="curve"/>
      <point x="231" y="-40" type="line"/>
      <point x="255" y="-35"/>
      <point x="276" y="-26"/>
      <point x="296" y="-10" type="curve"/>
      <point x="263" y="-8"/>
      <point x="243" y="17"/>
      <point x="250" y="51" type="curve" smooth="yes"/>
      <point x="258" y="91"/>
      <point x="294" y="120"/>
      <point x="334" y="120" type="curve" smooth="yes"/>
      <point x="378" y="120"/>
      <point x="398" y="81"/>
      <point x="389" y="39" type="curve" smooth="yes"/>
      <point x="374" y="-34"/>
      <point x="287" y="-84"/>
    </contour>
  </outline>
</glyph>
<glyph name="period" format="1">
  <advance width="600"/>
  <unicode hex="002E"/>
  <outline>
    <contour>
      <point x="242" y="57" type="curve" smooth="yes"/>
      <point x="250" y="95"/>
      <point x="289" y="126"/>
      <point x="327" y="126" type="curve" smooth="yes"/>
      <point x="365" y="126"/>
      <point x="390" y="95"/>
      <point x="382" y="57" type="curve" smooth="yes"/>
      <point x="374" y="18"/>
      <point x="335" y="-12"/>
      <point x="297" y="-12" type="curve" smooth="yes"/>
      <point x="259" y="-12"/>
      <point x="234" y="18"/>
    </contour>
  </outline>
</glyph>
<glyph name="zero" format="1">
  <advance width="600"/>
  <unicode hex="0030"/>
  <outline>
    <contour>
      <point x="297" y="-12" type="curve" smooth="yes"/>
      <point x="193" y="-12"/>
      <point x="108" y="71"/>
      <point x="157" y="300" type="curve" smooth="yes"/>
      <point x="205" y="529"/>
      <point x="326" y="612"/>
      <point x="430" y="612" type="curve" smooth="yes"/>
      <point x="534" y="612"/>
      <point x="619" y="529"/>
      <point x="571" y="300" type="curve" smooth="yes"/>
      <point x="522" y="71"/>
      <point x="401" y="-12"/>
    </contour>
    <contour>
      <point x="418" y="556" type="curve" smooth="yes"/>
      <point x="294" y="556"/>
      <point x="241" y="392"/>
      <point x="222" y="300" type="curve" smooth="yes"/>
      <point x="202" y="208"/>
      <point x="185" y="44"/>
      <point x="309" y="44" type="curve" smooth="yes"/>
      <point x="433" y="44"/>
      <point x="486" y="208"/>
      <point x="506" y="300" type="curve" smooth="yes"/>
      <point x="525" y="392"/>
      <point x="542" y="556"/>
    </contour>
  </outline>
</glyph>
<glyph name="one" format="1">
  <advance width="600"/>
  <unicode hex="0031"/>
  <outline>
    <contour>
      <point x="460" y="560" type="curve" smooth="yes"/>
      <point x="353" y="56" type="line"/>
      <point x="487" y="56" type="line"/>
      <point x="475" y="0" type="line"/>
      <point x="136" y="0" type="line"/>
      <point x="148" y="56" type="line"/>
      <point x="291" y="56" type="line"/>
      <point x="391" y="525" type="line"/>
      <point x="355" y="519"/>
      <point x="320" y="515"/>
      <point x="285" y="515" type="curve"/>
      <point x="258" y="517" type="line"/>
      <point x="260" y="572" type="line"/>
      <point x="293" y="569" type="line"/>
      <point x="309" y="569"/>
      <point x="331" y="569"/>
      <point x="353" y="573" type="curve" smooth="yes"/>
      <point x="376" y="577"/>
      <point x="397" y="584"/>
      <point x="411" y="597" type="curve" smooth="yes"/>
      <point x="421" y="606"/>
      <point x="428" y="612"/>
      <point x="441" y="612" type="curve" smooth="yes"/>
      <point x="472" y="612"/>
      <point x="465" y="582"/>
    </contour>
  </outline>
</glyph>
<glyph name="two" format="1">
  <advance width="600"/>
  <unicode hex="0032"/>
  <outline>
    <contour>
      <point x="470" y="122" type="line"/>
      <point x="523" y="108" type="line"/>
      <point x="449" y="0" type="line"/>
      <point x="106" y="0" type="line"/>
      <point x="118" y="55" type="line"/>
      <point x="351" y="258" type="line"/>
      <point x="404" y="309"/>
      <point x="479" y="384"/>
      <point x="494" y="454" type="curve" smooth="yes"/>
      <point x="506" y="514"/>
      <point x="463" y="556"/>
      <point x="406" y="556" type="curve" smooth="yes"/>
      <point x="372" y="556"/>
      <point x="336" y="544"/>
      <point x="308" y="517" type="curve"/>
      <point x="300" y="476"/>
      <point x="275" y="438"/>
      <point x="239" y="438" type="curve" smooth="yes"/>
      <point x="219" y="438"/>
      <point x="216" y="454"/>
      <point x="219" y="471" type="curve" smooth="yes"/>
      <point x="237" y="557"/>
      <point x="342" y="612"/>
      <point x="420" y="612" type="curve" smooth="yes"/>
      <point x="509" y="612"/>
      <point x="579" y="550"/>
      <point x="559" y="456" type="curve" smooth="yes"/>
      <point x="542" y="378"/>
      <point x="482" y="311"/>
      <point x="423" y="253" type="curve"/>
      <point x="222" y="75" type="line"/>
      <point x="199" y="56" type="line"/>
      <point x="421" y="56" type="line"/>
    </contour>
  </outline>
</glyph>
<glyph name="three" format="1">
  <advance width="600"/>
  <unicode hex="0033"/>
  <outline>
    <contour>
      <point x="345" y="299" type="curve"/>
      <point x="292" y="294" type="line"/>
      <point x="305" y="355" type="line"/>
      <point x="317" y="353"/>
      <point x="329" y="351"/>
      <point x="341" y="351" type="curve" smooth="yes"/>
      <point x="401" y="351"/>
      <point x="458" y="374"/>
      <point x="473" y="443" type="curve" smooth="yes"/>
      <point x="487" y="509"/>
      <point x="460" y="556"/>
      <point x="392" y="556" type="curve" smooth="yes"/>
      <point x="367" y="556"/>
      <point x="340" y="548"/>
      <point x="318" y="532" type="curve"/>
      <point x="309" y="501"/>
      <point x="279" y="460"/>
      <point x="244" y="460" type="curve" smooth="yes"/>
      <point x="225" y="460"/>
      <point x="218" y="475"/>
      <point x="222" y="493" type="curve" smooth="yes"/>
      <point x="229" y="525"/>
      <point x="259" y="554"/>
      <point x="287" y="573" type="curve" smooth="yes"/>
      <point x="325" y="599"/>
      <point x="370" y="612"/>
      <point x="413" y="612" type="curve" smooth="yes"/>
      <point x="505" y="612"/>
      <point x="559" y="541"/>
      <point x="540" y="450" type="curve" smooth="yes"/>
      <point x="527" y="391"/>
      <point x="502" y="367"/>
      <point x="453" y="329" type="curve"/>
      <point x="453" y="328" type="line"/>
      <point x="503" y="283"/>
      <point x="528" y="255"/>
      <point x="511" y="174" type="curve" smooth="yes"/>
      <point x="486" y="57"/>
      <point x="377" y="-12"/>
      <point x="266" y="-12" type="curve" smooth="yes"/>
      <point x="202" y="-12"/>
      <point x="136" y="2"/>
      <point x="88" y="36" type="curve"/>
      <point x="123" y="86" type="line"/>
      <point x="164" y="58"/>
      <point x="219" y="44"/>
      <point x="273" y="44" type="curve" smooth="yes"/>
      <point x="352" y="44"/>
      <point x="427" y="84"/>
      <point x="445" y="171" type="curve"/>
      <point x="463" y="252"/>
      <point x="425" y="299"/>
    </contour>
  </outline>
</glyph>
<glyph name="four" format="1">
  <advance width="600"/>
  <unicode hex="0034"/>
  <outline>
    <contour>
      <point x="464" y="421" type="line"/>
      <point x="526" y="421" type="line"/>
      <point x="482" y="212" type="line"/>
      <point x="568" y="212" type="line"/>
      <point x="556" y="156" type="line"/>
      <point x="470" y="156" type="line"/>
      <point x="449" y="56" type="line"/>
      <point x="535" y="56" type="line"/>
      <point x="523" y="0" type="line"/>
      <point x="275" y="0" type="line"/>
      <point x="287" y="56" type="line"/>
      <point x="387" y="56" type="line"/>
      <point x="408" y="156" type="line"/>
      <point x="115" y="156" type="line"/>
      <point x="127" y="210" type="line"/>
      <point x="238" y="347"/>
      <point x="346" y="490"/>
      <point x="418" y="646" type="curve"/>
      <point x="477" y="629" type="line"/>
      <point x="406" y="479"/>
      <point x="299" y="343"/>
      <point x="190" y="212" type="curve"/>
      <point x="420" y="212" type="line"/>
    </contour>
  </outline>
</glyph>
<glyph name="five" format="1">
  <advance width="600"/>
  <unicode hex="0035"/>
  <outline>
    <contour>
      <point x="568" y="600" type="line"/>
      <point x="556" y="544" type="line"/>
      <point x="326" y="544" type="line"/>
      <point x="285" y="407" type="line"/>
      <point x="343" y="412" type="line"/>
      <point x="464" y="412"/>
      <point x="539" y="341"/>
      <point x="512" y="214" type="curve" smooth="yes"/>
      <point x="483" y="75"/>
      <point x="352" y="-12"/>
      <point x="219" y="-12" type="curve" smooth="yes"/>
      <point x="167" y="-12"/>
      <point x="124" y="-1"/>
      <point x="80" y="17" type="curve"/>
      <point x="107" y="71" type="line"/>
      <point x="146" y="54"/>
      <point x="180" y="44"/>
      <point x="228" y="44" type="curve" smooth="yes"/>
      <point x="329" y="44"/>
      <point x="424" y="105"/>
      <point x="447" y="212" type="curve" smooth="yes"/>
      <point x="466" y="300"/>
      <point x="419" y="356"/>
      <point x="332" y="356" type="curve" smooth="yes"/>
      <point x="290" y="356"/>
      <point x="247" y="348"/>
      <point x="204" y="336" type="curve"/>
      <point x="282" y="600" type="line"/>
    </contour>
  </outline>
</glyph>
<glyph name="six" format="1">
  <advance width="600"/>
  <unicode hex="0036"/>
  <outline>
    <contour>
      <point x="563" y="612" type="curve"/>
      <point x="551" y="556" type="line"/>
      <point x="402" y="557"/>
      <point x="313" y="473"/>
      <point x="251" y="335" type="curve"/>
      <point x="301" y="370"/>
      <point x="342" y="391"/>
      <point x="399" y="391" type="curve" smooth="yes"/>
      <point x="511" y="391"/>
      <point x="569" y="301"/>
      <point x="546" y="192" type="curve" smooth="yes"/>
      <point x="523" y="83"/>
      <point x="423" y="-12"/>
      <point x="309" y="-12" type="curve" smooth="yes"/>
      <point x="227" y="-12"/>
      <point x="119" y="41"/>
      <point x="162" y="246" type="curve" smooth="yes"/>
      <point x="205" y="449"/>
      <point x="345" y="616"/>
    </contour>
    <contour>
      <point x="480" y="190" type="curve" smooth="yes"/>
      <point x="496" y="263"/>
      <point x="466" y="335"/>
      <point x="386" y="335" type="curve" smooth="yes"/>
      <point x="310" y="335"/>
      <point x="234" y="278"/>
      <point x="218" y="200" type="curve" smooth="yes"/>
      <point x="202" y="125"/>
      <point x="235" y="44"/>
      <point x="318" y="44" type="curve" smooth="yes"/>
      <point x="397" y="44"/>
      <point x="464" y="115"/>
    </contour>
  </outline>
</glyph>
<glyph name="seven" format="1">
  <advance width="600"/>
  <unicode hex="0037"/>
  <outline>
    <contour>
      <point x="234" y="600" type="line"/>
      <point x="611" y="600" type="line"/>
      <point x="228" y="-12" type="line"/>
      <point x="161" y="-12" type="line"/>
      <point x="513" y="544" type="line"/>
      <point x="222" y="544" type="line"/>
    </contour>
  </outline>
</glyph>
<glyph name="eight" format="1">
  <advance width="600"/>
  <unicode hex="0038"/>
  <outline>
    <contour>
      <point x="474" y="166" type="curve" smooth="yes"/>
      <point x="491" y="243"/>
      <point x="425" y="276"/>
      <point x="360" y="284" type="curve"/>
      <point x="293" y="276"/>
      <point x="213" y="243"/>
      <point x="196" y="166" type="curve" smooth="yes"/>
      <point x="181" y="95"/>
      <point x="242" y="44"/>
      <point x="309" y="44" type="curve" smooth="yes"/>
      <point x="376" y="44"/>
      <point x="459" y="95"/>
    </contour>
    <contour>
      <point x="297" y="-12" type="curve" smooth="yes"/>
      <point x="193" y="-12"/>
      <point x="109" y="59"/>
      <point x="131" y="166" type="curve" smooth="yes"/>
      <point x="147" y="240"/>
      <point x="212" y="295"/>
      <point x="288" y="318" type="curve"/>
      <point x="236" y="347"/>
      <point x="203" y="402"/>
      <point x="218" y="469" type="curve"/>
      <point x="230" y="528"/>
      <point x="295" y="612"/>
      <point x="430" y="612" type="curve" smooth="yes"/>
      <point x="565" y="612"/>
      <point x="594" y="528"/>
      <point x="582" y="469" type="curve"/>
      <point x="567" y="402"/>
      <point x="512" y="347"/>
      <point x="448" y="318" type="curve"/>
      <point x="514" y="295"/>
      <point x="555" y="240"/>
      <point x="539" y="166" type="curve" smooth="yes"/>
      <point x="517" y="59"/>
      <point x="401" y="-12"/>
    </contour>
    <contour>
      <point x="418" y="556" type="curve" smooth="yes"/>
      <point x="363" y="556"/>
      <point x="296" y="532"/>
      <point x="282" y="468" type="curve" smooth="yes"/>
      <point x="267" y="396"/>
      <point x="317" y="368"/>
      <point x="372" y="341" type="curve"/>
      <point x="439" y="368"/>
      <point x="501" y="396"/>
      <point x="516" y="468" type="curve" smooth="yes"/>
      <point x="530" y="532"/>
      <point x="473" y="556"/>
    </contour>
  </outline>
</glyph>
<glyph name="nine" format="1">
  <advance width="600"/>
  <unicode hex="0039"/>
  <outline>
    <contour>
      <point x="145" y="-9" type="curve"/>
      <point x="157" y="47" type="line"/>
      <point x="207" y="42" type="line" smooth="yes"/>
      <point x="334" y="29"/>
      <point x="441" y="149"/>
      <point x="487" y="269" type="curve"/>
      <point x="439" y="233"/>
      <point x="395" y="210"/>
      <point x="339" y="210" type="curve" smooth="yes"/>
      <point x="229" y="210"/>
      <point x="168" y="297"/>
      <point x="191" y="405" type="curve" smooth="yes"/>
      <point x="215" y="516"/>
      <point x="311" y="612"/>
      <point x="427" y="612" type="curve" smooth="yes"/>
      <point x="507" y="612"/>
      <point x="613" y="556"/>
      <point x="571" y="356" type="curve"/>
      <point x="531" y="171"/>
      <point x="400" y="-12"/>
      <point x="193" y="-12" type="curve" smooth="yes"/>
      <point x="177" y="-12"/>
      <point x="161" y="-10"/>
    </contour>
    <contour>
      <point x="418" y="556" type="curve" smooth="yes"/>
      <point x="340" y="556"/>
      <point x="273" y="486"/>
      <point x="258" y="412" type="curve"/>
      <point x="242" y="339"/>
      <point x="271" y="266"/>
      <point x="357" y="266" type="curve" smooth="yes"/>
      <point x="443" y="266"/>
      <point x="502" y="339"/>
      <point x="518" y="412" type="curve"/>
      <point x="533" y="486"/>
      <point x="496" y="556"/>
    </contour>
  </outline>
</glyph>
<glyph name="colon" format="1">
  <advance width="600"/>
  <unicode hex="003A"/>
  <outline>
    <contour>
      <point x="242" y="57" type="curve" smooth="yes"/>
      <point x="250" y="95"/>
      <point x="289" y="126"/>
      <point x="327" y="126" type="curve" smooth="yes"/>
      <point x="365" y="126"/>
      <point x="390" y="95"/>
      <point x="382" y="57" type="curve" smooth="yes"/>
      <point x="374" y="18"/>
      <point x="335" y="-12"/>
      <point x="297" y="-12" type="curve" smooth="yes"/>
      <point x="259" y="-12"/>
      <point x="234" y="18"/>
    </contour>
    <contour>
      <point x="306" y="357" type="curve" smooth="yes"/>
      <point x="314" y="395"/>
      <point x="353" y="426"/>
      <point x="391" y="426" type="curve" smooth="yes"/>
      <point x="429" y="426"/>
      <point x="454" y="395"/>
      <point x="446" y="357" type="curve" smooth="yes"/>
      <point x="438" y="318"/>
      <point x="399" y="288"/>
      <point x="361" y="288" type="curve" smooth="yes"/>
      <point x="323" y="288"/>
      <point x="298" y="318"/>
    </contour>
  </outline>
</glyph>
<glyph name="semicolon" format="1">
  <advance width="600"/>
  <unicode hex="003B"/>
  <outline>
    <contour>
      <point x="219" y="-98" type="curve"/>
      <point x="231" y="-40" type="line"/>
      <point x="255" y="-35"/>
      <point x="276" y="-26"/>
      <point x="296" y="-10" type="curve"/>
      <point x="263" y="-8"/>
      <point x="243" y="17"/>
      <point x="250" y="51" type="curve" smooth="yes"/>
      <point x="258" y="91"/>
      <point x="294" y="120"/>
      <point x="334" y="120" type="curve" smooth="yes"/>
      <point x="378" y="120"/>
      <point x="398" y="81"/>
      <point x="389" y="39" type="curve" smooth="yes"/>
      <point x="374" y="-34"/>
      <point x="287" y="-84"/>
    </contour>
    <contour>
      <point x="315" y="357" type="curve" smooth="yes"/>
      <point x="323" y="395"/>
      <point x="362" y="426"/>
      <point x="400" y="426" type="curve" smooth="yes"/>
      <point x="438" y="426"/>
      <point x="463" y="395"/>
      <point x="455" y="357" type="curve" smooth="yes"/>
      <point x="447" y="318"/>
      <point x="408" y="288"/>
      <point x="370" y="288" type="curve" smooth="yes"/>
      <point x="332" y="288"/>
      <point x="307" y="318"/>
    </contour>
  </outline>
</glyph>
<glyph name="question" format="1">
  <advance width="600"/>
  <unicode hex="003F"/>
  <outline>
    <contour>
      <point x="333" y="154" type="line"/>
      <point x="273" y="154" type="line"/>
      <point x="280" y="189" type="line"/>
      <point x="310" y="330"/>
      <point x="447" y="368"/>
      <point x="468" y="464" type="curve" smooth="yes"/>
      <point x="478" y="513"/>
      <point x="453" y="556"/>
      <point x="402" y="556" type="curve" smooth="yes"/>
      <point x="354" y="556"/>
      <point x="304" y="528"/>
      <point x="287" y="479" type="curve"/>
      <point x="289" y="469"/>
      <point x="288" y="458"/>
      <point x="286" y="447" type="curve" smooth="yes"/>
      <point x="282" y="428"/>
      <point x="266" y="406"/>
      <point x="244" y="406" type="curve" smooth="yes"/>
      <point x="211" y="406"/>
      <point x="210" y="434"/>
      <point x="216" y="461" type="curve" smooth="yes"/>
      <point x="233" y="542"/>
      <point x="319" y="612"/>
      <point x="414" y="612" type="curve" smooth="yes"/>
      <point x="490" y="612"/>
      <point x="551" y="554"/>
      <point x="533" y="471" type="curve" smooth="yes"/>
      <point x="503" y="330"/>
      <point x="368" y="321"/>
      <point x="338" y="181" type="curve"/>
    </contour>
    <contour>
      <point x="221" y="45" type="curve" smooth="yes"/>
      <point x="227" y="77"/>
      <point x="261" y="102"/>
      <point x="292" y="102" type="curve" smooth="yes"/>
      <point x="323" y="102"/>
      <point x="345" y="77"/>
      <point x="339" y="45" type="curve" smooth="yes"/>
      <point x="332" y="13"/>
      <point x="299" y="-12"/>
      <point x="267" y="-12" type="curve" smooth="yes"/>
      <point x="235" y="-12"/>
      <point x="214" y="13"/>
    </contour>
  </outline>
</glyph>
<glyph name="at" format="1">
  <advance width="600"/>
  <unicode hex="0040"/>
  <outline>
    <contour>
      <point x="513" y="115" type="curve"/>
      <point x="525" y="59" type="line"/>
      <point x="447" y="16"/>
      <point x="360" y="-12"/>
      <point x="278" y="-12" type="curve" smooth="yes"/>
      <point x="147" y="-12"/>
      <point x="53" y="80"/>
      <point x="89" y="250" type="curve" smooth="yes"/>
      <point x="124" y="415"/>
      <point x="261" y="612"/>
      <point x="449" y="612" type="curve" smooth="yes"/>
      <point x="593" y="612"/>
      <point x="670" y="502"/>
      <point x="640" y="360" type="curve"/>
      <point x="621" y="275"/>
      <point x="557" y="149"/>
      <point x="452" y="149" type="curve" smooth="yes"/>
      <point x="414" y="149"/>
      <point x="404" y="163"/>
      <point x="383" y="190" type="curve"/>
      <point x="350" y="165"/>
      <point x="327" y="149"/>
      <point x="289" y="149" type="curve" smooth="yes"/>
      <point x="239" y="149"/>
      <point x="210" y="184"/>
      <point x="222" y="239" type="curve" smooth="yes"/>
      <point x="247" y="359"/>
      <point x="353" y="433"/>
      <point x="437" y="433" type="curve" smooth="yes"/>
      <point x="511" y="433" type="line"/>
      <point x="460" y="296" type="line" smooth="yes"/>
      <point x="455" y="284"/>
      <point x="444" y="258"/>
      <point x="441" y="246" type="curve" smooth="yes"/>
      <point x="437" y="225"/>
      <point x="443" y="205"/>
      <point x="465" y="205" type="curve" smooth="yes"/>
      <point x="526" y="205"/>
      <point x="564" y="309"/>
      <point x="573" y="354" type="curve" smooth="yes"/>
      <point x="600" y="479"/>
      <point x="532" y="556"/>
      <point x="436" y="556" type="curve" smooth="yes"/>
      <point x="363" y="556"/>
      <point x="204" y="484"/>
      <point x="154" y="250" type="curve" smooth="yes"/>
      <point x="128" y="127"/>
      <point x="172" y="44"/>
      <point x="295" y="44" type="curve" smooth="yes"/>
      <point x="371" y="44"/>
      <point x="442" y="76"/>
    </contour>
    <contour>
      <point x="399" y="308" type="curve" smooth="yes"/>
      <point x="427" y="374" type="line"/>
      <point x="401" y="369"/>
      <point x="373" y="368"/>
      <point x="352" y="348" type="curve" smooth="yes"/>
      <point x="326" y="323"/>
      <point x="294" y="272"/>
      <point x="287" y="239" type="curve" smooth="yes"/>
      <point x="283" y="223"/>
      <point x="287" y="205"/>
      <point x="305" y="205" type="curve" smooth="yes"/>
      <point x="339" y="205"/>
      <point x="374" y="247"/>
    </contour>
  </outline>
</glyph>
<glyph name="A" format="1">
  <advance width="600"/>
  <unicode hex="0041"/>
  <outline>
    <contour>
      <point x="435" y="656" type="line"/>
      <point x="543" y="56" type="line"/>
      <point x="593" y="56" type="line"/>
      <point x="581" y="0" type="line"/>
      <point x="379" y="0" type="line"/>
      <point x="391" y="56" type="line"/>
      <point x="477" y="56" type="line"/>
      <point x="456" y="185" type="line"/>
      <point x="218" y="185" type="line"/>
      <point x="144" y="56" type="line"/>
      <point x="231" y="56" type="line"/>
      <point x="219" y="0" type="line"/>
      <point x="19" y="0" type="line"/>
      <point x="31" y="56" type="line"/>
      <point x="81" y="56" type="line"/>
    </contour>
    <contour>
      <point x="448" y="241" type="line"/>
      <point x="406" y="516" type="line"/>
      <point x="249" y="241" type="line"/>
    </contour>
  </outline>
</glyph>
<glyph name="B" format="1">
  <advance width="600"/>
  <unicode hex="0042"/>
  <outline>
    <contour>
      <point x="287" y="295" type="line"/>
      <point x="236" y="58" type="line"/>
      <point x="353" y="46" type="line" smooth="yes"/>
      <point x="432" y="38"/>
      <point x="497" y="92"/>
      <point x="512" y="167" type="curve" smooth="yes"/>
      <point x="526" y="232"/>
      <point x="502" y="295"/>
      <point x="366" y="295" type="curve" smooth="yes"/>
    </contour>
    <contour>
      <point x="69" y="-11" type="curve"/>
      <point x="65" y="36" type="line"/>
      <point x="174" y="56" type="line"/>
      <point x="275" y="532" type="line"/>
      <point x="173" y="539" type="line"/>
      <point x="186" y="600" type="line"/>
      <point x="222" y="596"/>
      <point x="258" y="588"/>
      <point x="295" y="588" type="curve" smooth="yes"/>
      <point x="351" y="588"/>
      <point x="409" y="600"/>
      <point x="465" y="600" type="curve" smooth="yes"/>
      <point x="544" y="600"/>
      <point x="609" y="552"/>
      <point x="591" y="466" type="curve" smooth="yes"/>
      <point x="580" y="414"/>
      <point x="535" y="361"/>
      <point x="483" y="335" type="curve"/>
      <point x="559" y="309"/>
      <point x="596" y="253"/>
      <point x="577" y="166" type="curve" smooth="yes"/>
      <point x="553" y="54"/>
      <point x="467" y="0"/>
      <point x="370" y="0" type="curve" smooth="yes"/>
      <point x="315" y="0"/>
      <point x="262" y="12"/>
      <point x="207" y="12" type="curve" smooth="yes"/>
      <point x="160" y="12"/>
      <point x="109" y="-1"/>
    </contour>
    <contour>
      <point x="337" y="533" type="curve"/>
      <point x="299" y="351" type="line"/>
      <point x="343" y="351" type="line" smooth="yes"/>
      <point x="466" y="351"/>
      <point x="514" y="409"/>
      <point x="525" y="463" type="curve" smooth="yes"/>
      <point x="537" y="519"/>
      <point x="501" y="544"/>
      <point x="448" y="544" type="curve" smooth="yes"/>
      <point x="412" y="544"/>
      <point x="374" y="539"/>
    </contour>
  </outline>
</glyph>
<glyph name="C" format="1">
  <advance width="600"/>
  <unicode hex="0043"/>
  <outline>
    <contour>
      <point x="587" y="578" type="curve"/>
      <point x="607" y="612" type="line"/>
      <point x="659" y="594" type="line"/>
      <point x="638" y="561"/>
      <point x="625" y="525"/>
      <point x="619" y="489" type="curve" smooth="yes"/>
      <point x="608" y="413" type="line"/>
      <point x="547" y="403" type="line"/>
      <point x="562" y="495"/>
      <point x="552" y="556"/>
      <point x="448" y="556" type="curve" smooth="yes"/>
      <point x="309" y="556"/>
      <point x="233" y="417"/>
      <point x="208" y="301" type="curve" smooth="yes"/>
      <point x="184" y="188"/>
      <point x="203" y="44"/>
      <point x="337" y="44" type="curve" smooth="yes"/>
      <point x="439" y="44"/>
      <point x="492" y="112"/>
      <point x="512" y="206" type="curve"/>
      <point x="574" y="206" type="line"/>
      <point x="547" y="78" type="line"/>
      <point x="479" y="24"/>
      <point x="401" y="-12"/>
      <point x="322" y="-12" type="curve" smooth="yes"/>
      <point x="214" y="-12"/>
      <point x="94" y="71"/>
      <point x="144" y="306" type="curve" smooth="yes"/>
      <point x="193" y="535"/>
      <point x="347" y="612"/>
      <point x="457" y="612" type="curve" smooth="yes"/>
      <point x="504" y="612"/>
      <point x="550" y="599"/>
    </contour>
  </outline>
</glyph>
<glyph name="D" format="1">
  <advance width="600"/>
  <unicode hex="0044"/>
  <outline>
    <contour>
      <point x="300" y="536" type="line"/>
      <point x="198" y="56" type="line"/>
      <point x="298" y="56" type="line" smooth="yes"/>
      <point x="406" y="56"/>
      <point x="492" y="116"/>
      <point x="527" y="284" type="curve"/>
      <point x="570" y="484"/>
      <point x="464" y="554"/>
      <point x="374" y="544" type="curve" smooth="yes"/>
    </contour>
    <contour>
      <point x="49" y="-8" type="line"/>
      <point x="52" y="48" type="line"/>
      <point x="136" y="56" type="line"/>
      <point x="238" y="536" type="line"/>
      <point x="163" y="553" type="line"/>
      <point x="175" y="600" type="line"/>
      <point x="206" y="596"/>
      <point x="235" y="588"/>
      <point x="267" y="588" type="curve" smooth="yes"/>
      <point x="306" y="588"/>
      <point x="347" y="600"/>
      <point x="393" y="600" type="curve" smooth="yes"/>
      <point x="538" y="600"/>
      <point x="640" y="506"/>
      <point x="595" y="296" type="curve" smooth="yes"/>
      <point x="548" y="76"/>
      <point x="422" y="0"/>
      <point x="288" y="0" type="curve" smooth="yes"/>
      <point x="243" y="0"/>
      <point x="200" y="9"/>
      <point x="155" y="4" type="curve" smooth="yes"/>
    </contour>
  </outline>
</glyph>
<glyph name="F" format="1">
  <advance width="600"/>
  <unicode hex="0046"/>
  <outline>
    <contour>
      <point x="183" y="600" type="line"/>
      <point x="656" y="600" type="line"/>
      <point x="619" y="426" type="line"/>
      <point x="557" y="426" type="line"/>
      <point x="562" y="452" type="line"/>
      <point x="579" y="532"/>
      <point x="578" y="544"/>
      <point x="499" y="544" type="curve" smooth="yes"/>
      <point x="331" y="544" type="line"/>
      <point x="287" y="339" type="line"/>
      <point x="424" y="339" type="line"/>
      <point x="442" y="424" type="line"/>
      <point x="504" y="424" type="line"/>
      <point x="454" y="189" type="line"/>
      <point x="392" y="189" type="line"/>
      <point x="412" y="283" type="line"/>
      <point x="275" y="283" type="line"/>
      <point x="227" y="56" type="line"/>
      <point x="403" y="56" type="line"/>
      <point x="391" y="0" type="line"/>
      <point x="55" y="0" type="line"/>
      <point x="67" y="56" type="line"/>
      <point x="165" y="56" type="line"/>
      <point x="269" y="544" type="line"/>
      <point x="171" y="544" type="line"/>
    </contour>
  </outline>
</glyph>
<glyph name="G" format="1">
  <advance width="600"/>
  <unicode hex="0047"/>
  <outline>
    <contour>
      <point x="575" y="574" type="curve"/>
      <point x="597" y="613" type="line"/>
      <point x="646" y="597" type="line"/>
      <point x="629" y="564"/>
      <point x="616" y="530"/>
      <point x="608" y="496" type="curve" smooth="yes"/>
      <point x="602" y="467"/>
      <point x="600" y="439"/>
      <point x="599" y="411" type="curve"/>
      <point x="534" y="402" type="line"/>
      <point x="547" y="493"/>
      <point x="540" y="556"/>
      <point x="433" y="556" type="curve" smooth="yes"/>
      <point x="361" y="556"/>
      <point x="233" y="510"/>
      <point x="191" y="311" type="curve" smooth="yes"/>
      <point x="151" y="124"/>
      <point x="229" y="44"/>
      <point x="311" y="44" type="curve" smooth="yes"/>
      <point x="356" y="44"/>
      <point x="427" y="61"/>
      <point x="462" y="99" type="curve" smooth="yes"/>
      <point x="483" y="121"/>
      <point x="487" y="157"/>
      <point x="493" y="184" type="curve" smooth="yes"/>
      <point x="498" y="205" type="line"/>
      <point x="365" y="205" type="line"/>
      <point x="376" y="261" type="line"/>
      <point x="632" y="261" type="line"/>
      <point x="621" y="205" type="line"/>
      <point x="560" y="205" type="line"/>
      <point x="533" y="79" type="line"/>
      <point x="469" y="27"/>
      <point x="383" y="-12"/>
      <point x="308" y="-12" type="curve" smooth="yes"/>
      <point x="137" y="-12"/>
      <point x="92" y="149"/>
      <point x="124" y="300" type="curve" smooth="yes"/>
      <point x="172" y="528"/>
      <point x="325" y="612"/>
      <point x="445" y="612" type="curve" smooth="yes"/>
      <point x="500" y="612"/>
      <point x="532" y="598"/>
    </contour>
  </outline>
</glyph>
<glyph name="H" format="1">
  <advance width="600"/>
  <unicode hex="0048"/>
  <outline>
    <contour>
      <point x="161" y="600" type="line"/>
      <point x="389" y="600" type="line"/>
      <point x="377" y="544" type="line"/>
      <point x="294" y="544" type="line"/>
      <point x="249" y="336" type="line"/>
      <point x="493" y="336" type="line"/>
      <point x="538" y="544" type="line"/>
      <point x="455" y="544" type="line"/>
      <point x="467" y="600" type="line"/>
      <point x="695" y="600" type="line"/>
      <point x="683" y="544" type="line"/>
      <point x="600" y="544" type="line"/>
      <point x="496" y="56" type="line"/>
      <point x="579" y="56" type="line"/>
      <point x="567" y="0" type="line"/>
      <point x="339" y="0" type="line"/>
      <point x="351" y="56" type="line"/>
      <point x="434" y="56" type="line"/>
      <point x="482" y="280" type="line"/>
      <point x="238" y="280" type="line"/>
      <point x="190" y="56" type="line"/>
      <point x="273" y="56" type="line"/>
      <point x="261" y="0" type="line"/>
      <point x="33" y="0" type="line"/>
      <point x="45" y="56" type="line"/>
      <point x="128" y="56" type="line"/>
      <point x="232" y="544" type="line"/>
      <point x="149" y="544" type="line"/>
    </contour>
  </outline>
</glyph>
<glyph name="I" format="1">
  <advance width="600"/>
  <unicode hex="0049"/>
  <outline>
    <contour>
      <point x="237" y="600" type="line"/>
      <point x="619" y="600" type="line"/>
      <point x="607" y="544" type="line"/>
      <point x="447" y="544" type="line"/>
      <point x="343" y="56" type="line"/>
      <point x="503" y="56" type="line"/>
      <point x="491" y="0" type="line"/>
      <point x="109" y="0" type="line"/>
      <point x="121" y="56" type="line"/>
      <point x="281" y="56" type="line"/>
      <point x="385" y="544" type="line"/>
      <point x="225" y="544" type="line"/>
    </contour>
  </outline>
</glyph>
<glyph name="J" format="1">
  <advance width="600"/>
  <unicode hex="004A"/>
  <outline>
    <contour>
      <point x="380" y="600" type="line"/>
      <point x="669" y="600" type="line"/>
      <point x="657" y="544" type="line"/>
      <point x="555" y="544" type="line"/>
      <point x="469" y="139" type="line" smooth="yes"/>
      <point x="445" y="28"/>
      <point x="392" y="-12"/>
      <point x="259" y="-12" type="curve" smooth="yes"/>
      <point x="197" y="-12"/>
      <point x="135" y="5"/>
      <point x="79" y="43" type="curve"/>
      <point x="113" y="201" type="line"/>
      <point x="175" y="201" type="line"/>
      <point x="169" y="176" type="line"/>
      <point x="154" y="105"/>
      <point x="143" y="44"/>
      <point x="282" y="44" type="curve" smooth="yes"/>
      <point x="381" y="44"/>
      <point x="394" y="80"/>
      <point x="412" y="163" type="curve" smooth="yes"/>
      <point x="493" y="544" type="line"/>
      <point x="368" y="544" type="line"/>
    </contour>
  </outline>
</glyph>
<glyph name="K" format="1">
  <advance width="600"/>
  <unicode hex="004B"/>
  <outline>
    <contour>
      <point x="161" y="600" type="line"/>
      <point x="385" y="600" type="line"/>
      <point x="373" y="544" type="line"/>
      <point x="292" y="544" type="line"/>
      <point x="245" y="324" type="line"/>
      <point x="310" y="335"/>
      <point x="425" y="423"/>
      <point x="528" y="544" type="curve"/>
      <point x="455" y="544" type="line"/>
      <point x="467" y="600" type="line"/>
      <point x="690" y="600" type="line"/>
      <point x="678" y="544" type="line"/>
      <point x="598" y="544" type="line"/>
      <point x="529" y="460"/>
      <point x="450" y="377"/>
      <point x="358" y="318" type="curve"/>
      <point x="513" y="56" type="line"/>
      <point x="602" y="56" type="line"/>
      <point x="590" y="0" type="line"/>
      <point x="361" y="0" type="line"/>
      <point x="373" y="56" type="line"/>
      <point x="433" y="56" type="line"/>
      <point x="296" y="287" type="line"/>
      <point x="276" y="277"/>
      <point x="255" y="271"/>
      <point x="233" y="268" type="curve"/>
      <point x="188" y="56" type="line"/>
      <point x="269" y="56" type="line"/>
      <point x="257" y="0" type="line"/>
      <point x="33" y="0" type="line"/>
      <point x="45" y="56" type="line"/>
      <point x="126" y="56" type="line"/>
      <point x="230" y="544" type="line"/>
      <point x="149" y="544" type="line"/>
    </contour>
  </outline>
</glyph>
<glyph name="L" format="1">
  <advance width="600"/>
  <unicode hex="004C"/>
  <outline>
    <contour>
      <point x="172" y="600" type="line"/>
      <point x="455" y="600" type="line"/>
      <point x="443" y="544" type="line"/>
      <point x="330" y="544" type="line"/>
      <point x="226" y="56" type="line"/>
      <point x="384" y="56" type="line" smooth="yes"/>
      <point x="494" y="56"/>
      <point x="495" y="75"/>
      <point x="518" y="182" type="curve" smooth="yes"/>
      <point x="524" y="210" type="line"/>
      <point x="586" y="210" type="line"/>
      <point x="541" y="0" type="line"/>
      <point x="44" y="0" type="line"/>
      <point x="56" y="56" type="line"/>
      <point x="164" y="56" type="line"/>
      <point x="268" y="544" type="line"/>
      <point x="160" y="544" type="line"/>
    </contour>
  </outline>
</glyph>
<glyph name="M" format="1">
  <advance width="600"/>
  <unicode hex="004D"/>
  <outline>
    <contour>
      <point x="148" y="600" type="line"/>
      <point x="291" y="600" type="line"/>
      <point x="364" y="301" type="line"/>
      <point x="565" y="600" type="line"/>
      <point x="708" y="600" type="line"/>
      <point x="696" y="544" type="line"/>
      <point x="626" y="544" type="line"/>
      <point x="522" y="56" type="line"/>
      <point x="592" y="56" type="line"/>
      <point x="580" y="0" type="line"/>
      <point x="366" y="0" type="line"/>
      <point x="378" y="56" type="line"/>
      <point x="460" y="56" type="line"/>
      <point x="550" y="482" type="line"/>
      <point x="548" y="482" type="line"/>
      <point x="334" y="161" type="line"/>
      <point x="256" y="482" type="line"/>
      <point x="254" y="482" type="line"/>
      <point x="164" y="56" type="line"/>
      <point x="247" y="56" type="line"/>
      <point x="235" y="0" type="line"/>
      <point x="20" y="0" type="line"/>
      <point x="32" y="56" type="line"/>
      <point x="102" y="56" type="line"/>
      <point x="206" y="544" type="line"/>
      <point x="136" y="544" type="line"/>
    </contour>
  </outline>
</glyph>
<glyph name="N" format="1">
  <advance width="600"/>
  <unicode hex="004E"/>
  <outline>
    <contour>
      <point x="154" y="600" type="line"/>
      <point x="297" y="600" type="line"/>
      <point x="470" y="115" type="line"/>
      <point x="472" y="115" type="line"/>
      <point x="564" y="544" type="line"/>
      <point x="470" y="544" type="line"/>
      <point x="482" y="600" type="line"/>
      <point x="701" y="600" type="line"/>
      <point x="689" y="544" type="line"/>
      <point x="626" y="544" type="line"/>
      <point x="510" y="0" type="line"/>
      <point x="446" y="0" type="line"/>
      <point x="266" y="491" type="line"/>
      <point x="174" y="56" type="line"/>
      <point x="266" y="56" type="line"/>
      <point x="254" y="0" type="line"/>
      <point x="26" y="0" type="line"/>
      <point x="38" y="56" type="line"/>
      <point x="112" y="56" type="line"/>
      <point x="216" y="544" type="line"/>
      <point x="142" y="544" type="line"/>
    </contour>
  </outline>
</glyph>
<glyph name="P" format="1">
  <advance width="600"/>
  <unicode hex="0050"/>
  <outline>
    <contour>
      <point x="189" y="552" type="line"/>
      <point x="200" y="600" type="line"/>
      <point x="234" y="596"/>
      <point x="266" y="588"/>
      <point x="301" y="588" type="curve" smooth="yes"/>
      <point x="358" y="588"/>
      <point x="418" y="600"/>
      <point x="475" y="600" type="curve" smooth="yes"/>
      <point x="570" y="600"/>
      <point x="641" y="555"/>
      <point x="617" y="443" type="curve" smooth="yes"/>
      <point x="593" y="330"/>
      <point x="502" y="255"/>
      <point x="356" y="255" type="curve"/>
      <point x="272" y="257" type="line"/>
      <point x="229" y="56" type="line"/>
      <point x="379" y="56" type="line"/>
      <point x="367" y="0" type="line"/>
      <point x="72" y="0" type="line"/>
      <point x="84" y="56" type="line"/>
      <point x="167" y="56" type="line"/>
      <point x="270" y="542" type="line"/>
    </contour>
    <contour>
      <point x="284" y="313" type="line"/>
      <point x="366" y="311" type="line"/>
      <point x="473" y="311"/>
      <point x="534" y="358"/>
      <point x="552" y="442" type="curve" smooth="yes"/>
      <point x="568" y="517"/>
      <point x="523" y="554"/>
      <point x="453" y="554" type="curve" smooth="yes"/>
      <point x="413" y="554"/>
      <point x="372" y="546"/>
      <point x="332" y="542" type="curve"/>
    </contour>
  </outline>
</glyph>
<glyph name="Q" format="1">
  <advance width="600"/>
  <unicode hex="0051"/>
  <outline>
    <contour>
      <point x="380" y="60" type="curve"/>
      <point x="324" y="181" type="line"/>
      <point x="380" y="219" type="line"/>
      <point x="436" y="97" type="line"/>
      <point x="494" y="161"/>
      <point x="522" y="223"/>
      <point x="539" y="300" type="curve" smooth="yes"/>
      <point x="563" y="414"/>
      <point x="547" y="556"/>
      <point x="418" y="556" type="curve" smooth="yes"/>
      <point x="289" y="556"/>
      <point x="213" y="414"/>
      <point x="189" y="300" type="curve" smooth="yes"/>
      <point x="165" y="186"/>
      <point x="180" y="44"/>
      <point x="309" y="44" type="curve" smooth="yes"/>
      <point x="333" y="44"/>
      <point x="354" y="49"/>
    </contour>
    <contour>
      <point x="447" y="-87" type="line"/>
      <point x="402" y="12" type="line"/>
      <point x="365" y="-4"/>
      <point x="326" y="-12"/>
      <point x="297" y="-12" type="curve" smooth="yes"/>
      <point x="131" y="-12"/>
      <point x="91" y="148"/>
      <point x="124" y="300" type="curve" smooth="yes"/>
      <point x="156" y="452"/>
      <point x="264" y="612"/>
      <point x="430" y="612" type="curve" smooth="yes"/>
      <point x="596" y="612"/>
      <point x="636" y="452"/>
      <point x="604" y="300" type="curve" smooth="yes"/>
      <point x="584" y="205"/>
      <point x="547" y="130"/>
      <point x="460" y="47" type="curve"/>
      <point x="496" y="-31" type="line"/>
      <point x="568" y="-31" type="line"/>
      <point x="557" y="-87" type="line"/>
    </contour>
  </outline>
</glyph>
<glyph name="R" format="1">
  <advance width="600"/>
  <unicode hex="0052"/>
  <outline>
    <contour>
      <point x="302" y="537" type="curve"/>
      <point x="258" y="327" type="line"/>
      <point x="309" y="326" type="line"/>
      <point x="436" y="326"/>
      <point x="495" y="373"/>
      <point x="509" y="438" type="curve" smooth="yes"/>
      <point x="525" y="514"/>
      <point x="477" y="544"/>
      <point x="407" y="544" type="curve" smooth="yes"/>
      <point x="374" y="544"/>
      <point x="339" y="541"/>
    </contour>
    <contour>
      <point x="411" y="283" type="curve"/>
      <point x="517" y="56" type="line"/>
      <point x="589" y="56" type="line"/>
      <point x="577" y="0" type="line"/>
      <point x="467" y="0" type="line"/>
      <point x="343" y="273" type="line"/>
      <point x="246" y="273" type="line"/>
      <point x="200" y="56" type="line"/>
      <point x="295" y="56" type="line"/>
      <point x="283" y="0" type="line"/>
      <point x="44" y="0" type="line"/>
      <point x="56" y="56" type="line"/>
      <point x="138" y="56" type="line"/>
      <point x="240" y="537" type="line"/>
      <point x="160" y="547" type="line"/>
      <point x="172" y="600" type="line"/>
      <point x="201" y="593"/>
      <point x="227" y="588"/>
      <point x="261" y="588" type="curve" smooth="yes"/>
      <point x="312" y="588"/>
      <point x="367" y="600"/>
      <point x="418" y="600" type="curve" smooth="yes"/>
      <point x="517" y="600"/>
      <point x="599" y="555"/>
      <point x="576" y="445" type="curve" smooth="yes"/>
      <point x="558" y="360"/>
      <point x="495" y="306"/>
    </contour>
  </outline>
</glyph>
<glyph name="T" format="1">
  <advance width="600"/>
  <unicode hex="0054"/>
  <outline>
    <contour>
      <point x="179" y="600" type="line"/>
      <point x="677" y="600" type="line"/>
      <point x="632" y="389" type="line"/>
      <point x="570" y="389" type="line"/>
      <point x="586" y="465" type="line" smooth="yes"/>
      <point x="601" y="535"/>
      <point x="597" y="544"/>
      <point x="528" y="544" type="curve" smooth="yes"/>
      <point x="447" y="544" type="line"/>
      <point x="343" y="56" type="line"/>
      <point x="474" y="56" type="line"/>
      <point x="462" y="0" type="line"/>
      <point x="138" y="0" type="line"/>
      <point x="150" y="56" type="line"/>
      <point x="281" y="56" type="line"/>
      <point x="385" y="544" type="line"/>
      <point x="304" y="544" type="line" smooth="yes"/>
      <point x="235" y="544"/>
      <point x="227" y="535"/>
      <point x="212" y="465" type="curve" smooth="yes"/>
      <point x="196" y="389" type="line"/>
      <point x="134" y="389" type="line"/>
    </contour>
  </outline>
</glyph>
<glyph name="V" format="1">
  <advance width="600"/>
  <unicode hex="0056"/>
  <outline>
    <contour>
      <point x="156" y="600" type="line"/>
      <point x="365" y="600" type="line"/>
      <point x="353" y="544" type="line"/>
      <point x="270" y="544" type="line"/>
      <point x="316" y="76" type="line"/>
      <point x="561" y="544" type="line"/>
      <point x="479" y="544" type="line"/>
      <point x="491" y="600" type="line"/>
      <point x="700" y="600" type="line"/>
      <point x="688" y="544" type="line"/>
      <point x="624" y="544" type="line"/>
      <point x="334" y="-12" type="line"/>
      <point x="259" y="-12" type="line"/>
      <point x="208" y="544" type="line"/>
      <point x="144" y="544" type="line"/>
    </contour>
  </outline>
</glyph>
<glyph name="W" format="1">
  <advance width="600"/>
  <unicode hex="0057"/>
  <outline>
    <contour>
      <point x="149" y="600" type="line"/>
      <point x="330" y="600" type="line"/>
      <point x="318" y="544" type="line"/>
      <point x="240" y="544" type="line"/>
      <point x="210" y="110" type="line"/>
      <point x="212" y="110" type="line"/>
      <point x="389" y="421" type="line"/>
      <point x="434" y="110" type="line"/>
      <point x="436" y="110" type="line"/>
      <point x="592" y="544" type="line"/>
      <point x="514" y="544" type="line"/>
      <point x="526" y="600" type="line"/>
      <point x="707" y="600" type="line"/>
      <point x="695" y="544" type="line"/>
      <point x="652" y="544" type="line"/>
      <point x="452" y="-12" type="line"/>
      <point x="392" y="-12" type="line"/>
      <point x="353" y="249" type="line"/>
      <point x="202" y="-12" type="line"/>
      <point x="142" y="-12" type="line"/>
      <point x="180" y="544" type="line"/>
      <point x="137" y="544" type="line"/>
    </contour>
  </outline>
</glyph>
<glyph name="X" format="1">
  <advance width="600"/>
  <unicode hex="0058"/>
  <outline>
    <contour>
      <point x="376" y="359" type="line"/>
      <point x="536" y="544" type="line"/>
      <point x="464" y="544" type="line"/>
      <point x="476" y="600" type="line"/>
      <point x="675" y="600" type="line"/>
      <point x="663" y="544" type="line"/>
      <point x="603" y="544" type="line"/>
      <point x="402" y="310" type="line"/>
      <point x="518" y="56" type="line"/>
      <point x="583" y="56" type="line"/>
      <point x="571" y="0" type="line"/>
      <point x="347" y="0" type="line"/>
      <point x="359" y="56" type="line"/>
      <point x="448" y="56" type="line"/>
      <point x="355" y="258" type="line"/>
      <point x="176" y="56" type="line"/>
      <point x="265" y="56" type="line"/>
      <point x="253" y="0" type="line"/>
      <point x="29" y="0" type="line"/>
      <point x="41" y="56" type="line"/>
      <point x="106" y="56" type="line"/>
      <point x="330" y="310" type="line"/>
      <point x="229" y="544" type="line"/>
      <point x="169" y="544" type="line"/>
      <point x="181" y="600" type="line"/>
      <point x="381" y="600" type="line"/>
      <point x="369" y="544" type="line"/>
      <point x="297" y="544" type="line"/>
    </contour>
  </outline>
</glyph>
<glyph name="Y" format="1">
  <advance width="600"/>
  <unicode hex="0059"/>
  <outline>
    <contour>
      <point x="159" y="600" type="line"/>
      <point x="371" y="600" type="line"/>
      <point x="359" y="544" type="line"/>
      <point x="277" y="544" type="line"/>
      <point x="368" y="318" type="line"/>
      <point x="555" y="544" type="line"/>
      <point x="473" y="544" type="line"/>
      <point x="485" y="600" type="line"/>
      <point x="697" y="600" type="line"/>
      <point x="685" y="544" type="line"/>
      <point x="623" y="544" type="line"/>
      <point x="386" y="260" type="line"/>
      <point x="343" y="56" type="line"/>
      <point x="474" y="56" type="line"/>
      <point x="462" y="0" type="line"/>
      <point x="138" y="0" type="line"/>
      <point x="150" y="56" type="line"/>
      <point x="281" y="56" type="line"/>
      <point x="324" y="260" type="line"/>
      <point x="209" y="544" type="line"/>
      <point x="147" y="544" type="line"/>
    </contour>
  </outline>
</glyph>
<glyph name="Z" format="1">
  <advance width="600"/>
  <unicode hex="005A"/>
  <outline>
    <contour>
      <point x="619" y="600" type="line"/>
      <point x="608" y="552" type="line"/>
      <point x="164" y="56" type="line"/>
      <point x="393" y="56" type="line" smooth="yes"/>
      <point x="467" y="56"/>
      <point x="477" y="65"/>
      <point x="499" y="168" type="curve"/>
      <point x="504" y="195" type="line"/>
      <point x="566" y="195" type="line"/>
      <point x="525" y="0" type="line"/>
      <point x="76" y="0" type="line"/>
      <point x="86" y="48" type="line"/>
      <point x="532" y="544" type="line"/>
      <point x="349" y="544" type="line" smooth="yes"/>
      <point x="275" y="544"/>
      <point x="264" y="533"/>
      <point x="243" y="432" type="curve"/>
      <point x="237" y="405" type="line"/>
      <point x="175" y="405" type="line"/>
      <point x="217" y="600" type="line"/>
    </contour>
  </outline>
</glyph>
<glyph name="bracketleft" format="1">
  <advance width="600"/>
  <unicode hex="005B"/>
  <outline>
    <contour>
      <point x="638" y="703" type="line"/>
      <point x="627" y="647" type="line"/>
      <point x="482" y="647" type="line"/>
      <point x="333" y="-53" type="line"/>
      <point x="478" y="-53" type="line"/>
      <point x="466" y="-109" type="line"/>
      <point x="259" y="-109" type="line"/>
      <point x="431" y="703" type="line"/>
    </contour>
  </outline>
</glyph>
<glyph name="bracketright" format="1">
  <advance width="600"/>
  <unicode hex="005D"/>
  <outline>
    <contour>
      <point x="249" y="647" type="line"/>
      <point x="260" y="703" type="line"/>
      <point x="467" y="703" type="line"/>
      <point x="295" y="-109" type="line"/>
      <point x="88" y="-109" type="line"/>
      <point x="100" y="-53" type="line"/>
      <point x="245" y="-53" type="line"/>
      <point x="394" y="647" type="line"/>
    </contour>
  </outline>
</glyph>
<glyph name="grave" format="1">
  <advance width="600"/>
  <unicode hex="0060"/>
  <outline>
    <contour>
      <point x="334" y="660" type="line"/>
      <point x="490" y="509" type="line"/>
      <point x="445" y="465" type="line"/>
      <point x="270" y="599" type="line"/>
    </contour>
  </outline>
</glyph>
<glyph name="b" format="1">
  <advance width="600"/>
  <unicode hex="0062"/>
  <outline>
    <contour>
      <point x="258" y="327" type="curve"/>
      <point x="206" y="86" type="line"/>
      <point x="226" y="57"/>
      <point x="266" y="44"/>
      <point x="304" y="44" type="curve" smooth="yes"/>
      <point x="401" y="44"/>
      <point x="471" y="113"/>
      <point x="491" y="207" type="curve" smooth="yes"/>
      <point x="508" y="289"/>
      <point x="480" y="370"/>
      <point x="389" y="370" type="curve" smooth="yes"/>
      <point x="343" y="370"/>
      <point x="300" y="356"/>
    </contour>
    <contour>
      <point x="317" y="606" type="curve" smooth="yes"/>
      <point x="272" y="395" type="line"/>
      <point x="319" y="414"/>
      <point x="354" y="426"/>
      <point x="401" y="426" type="curve" smooth="yes"/>
      <point x="525" y="426"/>
      <point x="582" y="331"/>
      <point x="557" y="212" type="curve" smooth="yes"/>
      <point x="530" y="85"/>
      <point x="425" y="-12"/>
      <point x="295" y="-12" type="curve" smooth="yes"/>
      <point x="251" y="-12"/>
      <point x="216" y="1"/>
      <point x="185" y="24" type="curve"/>
      <point x="173" y="6"/>
      <point x="158" y="-10"/>
      <point x="142" y="-26" type="curve"/>
      <point x="96" y="0" type="line"/>
      <point x="128" y="35"/>
      <point x="134" y="36"/>
      <point x="143" y="78" type="curve" smooth="yes"/>
      <point x="247" y="571" type="line"/>
      <point x="155" y="559" type="line"/>
      <point x="157" y="610" type="line"/>
      <point x="190" y="616"/>
      <point x="239" y="612"/>
      <point x="268" y="639" type="curve" smooth="yes"/>
      <point x="278" y="648"/>
      <point x="285" y="656"/>
      <point x="298" y="656" type="curve" smooth="yes"/>
      <point x="327" y="656"/>
      <point x="321" y="628"/>
    </contour>
  </outline>
</glyph>
<glyph name="c" format="1">
  <advance width="600"/>
  <unicode hex="0063"/>
  <outline>
    <contour>
      <point x="506" y="88" type="curve"/>
      <point x="517" y="37" type="line"/>
      <point x="453" y="6"/>
      <point x="376" y="-12"/>
      <point x="312" y="-12" type="curve" smooth="yes"/>
      <point x="185" y="-12"/>
      <point x="101" y="72"/>
      <point x="129" y="203" type="curve" smooth="yes"/>
      <point x="157" y="335"/>
      <point x="276" y="426"/>
      <point x="406" y="426" type="curve" smooth="yes"/>
      <point x="461" y="426"/>
      <point x="527" y="409"/>
      <point x="544" y="356" type="curve"/>
      <point x="531" y="306" type="line"/>
      <point x="523" y="255" type="line"/>
      <point x="459" y="255" type="line"/>
      <point x="466" y="283" type="line"/>
      <point x="480" y="348"/>
      <point x="452" y="370"/>
      <point x="389" y="370" type="curve" smooth="yes"/>
      <point x="296" y="370"/>
      <point x="215" y="303"/>
      <point x="196" y="210" type="curve" smooth="yes"/>
      <point x="175" y="111"/>
      <point x="227" y="44"/>
      <point x="326" y="44" type="curve" smooth="yes"/>
      <point x="383" y="44"/>
      <point x="449" y="62"/>
    </contour>
  </outline>
</glyph>
<glyph name="d" format="1">
  <advance width="600"/>
  <unicode hex="0064"/>
  <outline>
    <contour>
      <point x="410" y="80" type="curve"/>
      <point x="466" y="342" type="line"/>
      <point x="440" y="359"/>
      <point x="410" y="370"/>
      <point x="376" y="370" type="curve" smooth="yes"/>
      <point x="280" y="370"/>
      <point x="207" y="294"/>
      <point x="188" y="203" type="curve" smooth="yes"/>
      <point x="171" y="122"/>
      <point x="210" y="44"/>
      <point x="296" y="44" type="curve" smooth="yes"/>
      <point x="334" y="44"/>
      <point x="375" y="58"/>
    </contour>
    <contour>
      <point x="393" y="0" type="line"/>
      <point x="396" y="16" type="line"/>
      <point x="355" y="0"/>
      <point x="322" y="-12"/>
      <point x="280" y="-12" type="curve" smooth="yes"/>
      <point x="162" y="-12"/>
      <point x="99" y="90"/>
      <point x="123" y="204" type="curve" smooth="yes"/>
      <point x="148" y="318"/>
      <point x="254" y="426"/>
      <point x="374" y="426" type="curve" smooth="yes"/>
      <point x="409" y="426"/>
      <point x="447" y="415"/>
      <point x="479" y="405" type="curve"/>
      <point x="514" y="571" type="line"/>
      <point x="422" y="559" type="line"/>
      <point x="424" y="610" type="line"/>
      <point x="457" y="616"/>
      <point x="506" y="612"/>
      <point x="535" y="639" type="curve" smooth="yes"/>
      <point x="545" y="648"/>
      <point x="552" y="656"/>
      <point x="565" y="656" type="curve" smooth="yes"/>
      <point x="594" y="656"/>
      <point x="588" y="628"/>
      <point x="584" y="606" type="curve" smooth="yes"/>
      <point x="467" y="56" type="line"/>
      <point x="545" y="56" type="line"/>
      <point x="533" y="0" type="line"/>
    </contour>
  </outline>
</glyph>
<glyph name="f" format="1">
  <advance width="600"/>
  <unicode hex="0066"/>
  <outline>
    <contour>
      <point x="575" y="414" type="line"/>
      <point x="563" y="358" type="line"/>
      <point x="364" y="358" type="line"/>
      <point x="300" y="56" type="line"/>
      <point x="477" y="56" type="line"/>
      <point x="465" y="0" type="line"/>
      <point x="109" y="0" type="line"/>
      <point x="121" y="56" type="line"/>
      <point x="238" y="56" type="line"/>
      <point x="302" y="358" type="line"/>
      <point x="155" y="358" type="line"/>
      <point x="167" y="414" type="line"/>
      <point x="314" y="414" type="line"/>
      <point x="327" y="473" type="line"/>
      <point x="353" y="585"/>
      <point x="399" y="623"/>
      <point x="491" y="623" type="curve" smooth="yes"/>
      <point x="561" y="623"/>
      <point x="639" y="600"/>
      <point x="688" y="562" type="curve"/>
      <point x="639" y="513" type="line"/>
      <point x="597" y="549"/>
      <point x="538" y="567"/>
      <point x="479" y="567" type="curve" smooth="yes"/>
      <point x="411" y="567"/>
      <point x="399" y="521"/>
      <point x="388" y="469" type="curve" smooth="yes"/>
      <point x="376" y="414" type="line"/>
    </contour>
  </outline>
</glyph>
<glyph name="g" format="1">
  <advance width="600"/>
  <unicode hex="0067"/>
  <outline>
    <contour>
      <point x="435" y="414" type="curve"/>
      <point x="579" y="414" type="line"/>
      <point x="567" y="358" type="line"/>
      <point x="494" y="358" type="line"/>
      <point x="508" y="327"/>
      <point x="513" y="304"/>
      <point x="505" y="266" type="curve" smooth="yes"/>
      <point x="483" y="167"/>
      <point x="402" y="110"/>
      <point x="306" y="110" type="curve"/>
      <point x="273" y="113" type="line"/>
      <point x="260" y="107"/>
      <point x="215" y="75"/>
      <point x="212" y="63" type="curve" smooth="yes"/>
      <point x="211" y="56"/>
      <point x="246" y="56"/>
      <point x="261" y="56" type="curve" smooth="yes"/>
      <point x="414" y="56" type="line" smooth="yes"/>
      <point x="503" y="56"/>
      <point x="548" y="21"/>
      <point x="533" y="-52" type="curve" smooth="yes"/>
      <point x="506" y="-179"/>
      <point x="353" y="-208"/>
      <point x="253" y="-208" type="curve" smooth="yes"/>
      <point x="175" y="-208"/>
      <point x="46" y="-197"/>
      <point x="68" y="-92" type="curve" smooth="yes"/>
      <point x="78" y="-48"/>
      <point x="117" y="-7"/>
      <point x="158" y="16" type="curve"/>
      <point x="150" y="23"/>
      <point x="142" y="36"/>
      <point x="146" y="58" type="curve" smooth="yes"/>
      <point x="152" y="86"/>
      <point x="188" y="111"/>
      <point x="216" y="133" type="curve"/>
      <point x="171" y="164"/>
      <point x="151" y="203"/>
      <point x="164" y="265" type="curve" smooth="yes"/>
      <point x="183" y="351"/>
      <point x="272" y="426"/>
      <point x="358" y="426" type="curve" smooth="yes"/>
      <point x="385" y="426"/>
      <point x="410" y="421"/>
    </contour>
    <contour>
      <point x="439" y="265" type="curve" smooth="yes"/>
      <point x="452" y="326"/>
      <point x="423" y="370"/>
      <point x="361" y="370" type="curve" smooth="yes"/>
      <point x="302" y="370"/>
      <point x="243" y="331"/>
      <point x="230" y="270" type="curve" smooth="yes"/>
      <point x="216" y="202"/>
      <point x="254" y="166"/>
      <point x="320" y="166" type="curve" smooth="yes"/>
      <point x="387" y="166"/>
      <point x="427" y="208"/>
    </contour>
    <contour>
      <point x="392" y="0" type="curve" smooth="yes"/>
      <point x="223" y="0" type="line"/>
      <point x="186" y="-22"/>
      <point x="142" y="-46"/>
      <point x="133" y="-89" type="curve" smooth="yes"/>
      <point x="120" y="-150"/>
      <point x="215" y="-152"/>
      <point x="259" y="-152" type="curve" smooth="yes"/>
      <point x="325" y="-152"/>
      <point x="449" y="-140"/>
      <point x="466" y="-59" type="curve" smooth="yes"/>
      <point x="478" y="-4"/>
      <point x="436" y="0"/>
    </contour>
  </outline>
</glyph>
<glyph name="i" format="1">
  <advance width="600"/>
  <unicode hex="0069"/>
  <outline>
    <contour>
      <point x="102" y="0" type="line"/>
      <point x="114" y="56" type="line"/>
      <point x="313" y="56" type="line"/>
      <point x="377" y="356" type="line"/>
      <point x="341" y="350"/>
      <point x="307" y="346"/>
      <point x="272" y="346" type="curve"/>
      <point x="188" y="351" type="line"/>
      <point x="189" y="406" type="line"/>
      <point x="279" y="400" type="line"/>
      <point x="310" y="400"/>
      <point x="369" y="402"/>
      <point x="397" y="428" type="curve" smooth="yes"/>
      <point x="407" y="437"/>
      <point x="414" y="443"/>
      <point x="427" y="443" type="curve" smooth="yes"/>
      <point x="458" y="443"/>
      <point x="451" y="413"/>
      <point x="446" y="391" type="curve" smooth="yes"/>
      <point x="375" y="56" type="line"/>
      <point x="551" y="56" type="line"/>
      <point x="539" y="0" type="line"/>
    </contour>
    <contour>
      <point x="509" y="579" type="curve" smooth="yes"/>
      <point x="502" y="544"/>
      <point x="466" y="517"/>
      <point x="432" y="517" type="curve" smooth="yes"/>
      <point x="397" y="517"/>
      <point x="373" y="544"/>
      <point x="380" y="579" type="curve" smooth="yes"/>
      <point x="388" y="615"/>
      <point x="423" y="642"/>
      <point x="458" y="642" type="curve" smooth="yes"/>
      <point x="492" y="642"/>
      <point x="517" y="615"/>
    </contour>
  </outline>
</glyph>
<glyph name="j" format="1">
  <advance width="600"/>
  <unicode hex="006A"/>
  <outline>
    <contour>
      <point x="487" y="391" type="curve" smooth="yes"/>
      <point x="405" y="3" type="line" smooth="yes"/>
      <point x="395" y="-40"/>
      <point x="387" y="-90"/>
      <point x="365" y="-131" type="curve" smooth="yes"/>
      <point x="336" y="-186"/>
      <point x="281" y="-208"/>
      <point x="226" y="-208" type="curve" smooth="yes"/>
      <point x="155" y="-208"/>
      <point x="80" y="-188"/>
      <point x="29" y="-148" type="curve"/>
      <point x="79" y="-98" type="line"/>
      <point x="121" y="-131"/>
      <point x="175" y="-152"/>
      <point x="234" y="-152" type="curve" smooth="yes"/>
      <point x="318" y="-152"/>
      <point x="325" y="-80"/>
      <point x="338" y="-19" type="curve" smooth="yes"/>
      <point x="418" y="356" type="line"/>
      <point x="382" y="350"/>
      <point x="348" y="346"/>
      <point x="313" y="346" type="curve"/>
      <point x="229" y="351" type="line"/>
      <point x="230" y="406" type="line"/>
      <point x="320" y="400" type="line"/>
      <point x="351" y="400"/>
      <point x="410" y="402"/>
      <point x="438" y="428" type="curve" smooth="yes"/>
      <point x="448" y="437"/>
      <point x="455" y="443"/>
      <point x="468" y="443" type="curve" smooth="yes"/>
      <point x="499" y="443"/>
      <point x="492" y="413"/>
    </contour>
    <contour>
      <point x="562" y="579" type="curve" smooth="yes"/>
      <point x="555" y="544"/>
      <point x="519" y="517"/>
      <point x="485" y="517" type="curve" smooth="yes"/>
      <point x="450" y="517"/>
      <point x="426" y="544"/>
      <point x="433" y="579" type="curve" smooth="yes"/>
      <point x="441" y="615"/>
      <point x="476" y="642"/>
      <point x="511" y="642" type="curve" smooth="yes"/>
      <point x="545" y="642"/>
      <point x="570" y="615"/>
    </contour>
  </outline>
</glyph>
<glyph name="k" format="1">
  <advance width="600"/>
  <unicode hex="006B"/>
  <outline>
    <contour>
      <point x="320" y="606" type="curve" smooth="yes"/>
      <point x="234" y="203" type="line"/>
      <point x="436" y="358" type="line"/>
      <point x="394" y="358" type="line"/>
      <point x="406" y="414" type="line"/>
      <point x="600" y="414" type="line"/>
      <point x="588" y="358" type="line"/>
      <point x="517" y="358" type="line"/>
      <point x="380" y="250" type="line"/>
      <point x="495" y="56" type="line"/>
      <point x="572" y="56" type="line"/>
      <point x="560" y="0" type="line"/>
      <point x="364" y="0" type="line"/>
      <point x="376" y="56" type="line"/>
      <point x="421" y="56" type="line"/>
      <point x="329" y="212" type="line"/>
      <point x="219" y="133" type="line"/>
      <point x="203" y="56" type="line"/>
      <point x="278" y="56" type="line"/>
      <point x="266" y="0" type="line"/>
      <point x="34" y="0" type="line"/>
      <point x="46" y="56" type="line"/>
      <point x="141" y="56" type="line"/>
      <point x="250" y="571" type="line"/>
      <point x="158" y="559" type="line"/>
      <point x="160" y="610" type="line"/>
      <point x="193" y="616"/>
      <point x="242" y="612"/>
      <point x="271" y="639" type="curve" smooth="yes"/>
      <point x="281" y="648"/>
      <point x="288" y="656"/>
      <point x="301" y="656" type="curve" smooth="yes"/>
      <point x="330" y="656"/>
      <point x="324" y="628"/>
    </contour>
  </outline>
</glyph>
<glyph name="l" format="1">
  <advance width="600"/>
  <unicode hex="006C"/>
  <outline>
    <contour>
      <point x="467" y="604" type="curve" smooth="yes"/>
      <point x="351" y="56" type="line"/>
      <point x="518" y="56" type="line"/>
      <point x="506" y="0" type="line"/>
      <point x="90" y="0" type="line"/>
      <point x="102" y="56" type="line"/>
      <point x="289" y="56" type="line"/>
      <point x="398" y="569" type="line"/>
      <point x="363" y="563"/>
      <point x="328" y="559"/>
      <point x="293" y="559" type="curve"/>
      <point x="234" y="557" type="line"/>
      <point x="236" y="612" type="line"/>
      <point x="300" y="613" type="line" smooth="yes"/>
      <point x="331" y="613"/>
      <point x="391" y="615"/>
      <point x="418" y="641" type="curve" smooth="yes"/>
      <point x="428" y="650"/>
      <point x="435" y="656"/>
      <point x="448" y="656" type="curve" smooth="yes"/>
      <point x="479" y="656"/>
      <point x="472" y="626"/>
    </contour>
  </outline>
</glyph>
<glyph name="m" format="1">
  <advance width="600"/>
  <unicode hex="006D"/>
  <outline>
    <contour>
      <point x="223" y="328" type="curve"/>
      <point x="165" y="56" type="line"/>
      <point x="206" y="56" type="line"/>
      <point x="194" y="0" type="line"/>
      <point x="31" y="0" type="line"/>
      <point x="43" y="56" type="line"/>
      <point x="103" y="56" type="line"/>
      <point x="167" y="358" type="line"/>
      <point x="92" y="348" type="line"/>
      <point x="94" y="399" type="line"/>
      <point x="126" y="401"/>
      <point x="160" y="405"/>
      <point x="188" y="426" type="curve"/>
      <point x="197" y="435"/>
      <point x="205" y="443"/>
      <point x="218" y="443" type="curve" smooth="yes"/>
      <point x="247" y="443"/>
      <point x="241" y="415"/>
      <point x="237" y="393" type="curve"/>
      <point x="268" y="411"/>
      <point x="302" y="426"/>
      <point x="336" y="426" type="curve" smooth="yes"/>
      <point x="367" y="426"/>
      <point x="393" y="412"/>
      <point x="402" y="385" type="curve"/>
      <point x="440" y="410"/>
      <point x="484" y="426"/>
      <point x="526" y="426" type="curve" smooth="yes"/>
      <point x="565" y="426"/>
      <point x="596" y="405"/>
      <point x="598" y="366" type="curve" smooth="yes"/>
      <point x="599" y="341"/>
      <point x="594" y="314"/>
      <point x="588" y="288" type="curve" smooth="yes"/>
      <point x="539" y="56" type="line"/>
      <point x="599" y="56" type="line"/>
      <point x="587" y="0" type="line"/>
      <point x="424" y="0" type="line"/>
      <point x="436" y="56" type="line"/>
      <point x="477" y="56" type="line"/>
      <point x="526" y="288" type="line" smooth="yes"/>
      <point x="533" y="318"/>
      <point x="550" y="370"/>
      <point x="507" y="370" type="curve" smooth="yes"/>
      <point x="476" y="370"/>
      <point x="437" y="348"/>
      <point x="410" y="328" type="curve"/>
      <point x="352" y="56" type="line"/>
      <point x="393" y="56" type="line"/>
      <point x="381" y="0" type="line"/>
      <point x="237" y="0" type="line"/>
      <point x="249" y="56" type="line"/>
      <point x="290" y="56" type="line"/>
      <point x="339" y="288" type="line" smooth="yes"/>
      <point x="345" y="314"/>
      <point x="360" y="370"/>
      <point x="322" y="370" type="curve" smooth="yes"/>
      <point x="289" y="370"/>
      <point x="252" y="347"/>
    </contour>
  </outline>
</glyph>
<glyph name="n" format="1">
  <advance width="600"/>
  <unicode hex="006E"/>
  <outline>
    <contour>
      <point x="249" y="314" type="curve"/>
      <point x="194" y="56" type="line"/>
      <point x="262" y="56" type="line"/>
      <point x="250" y="0" type="line"/>
      <point x="52" y="0" type="line"/>
      <point x="64" y="56" type="line"/>
      <point x="132" y="56" type="line"/>
      <point x="196" y="358" type="line"/>
      <point x="121" y="348" type="line"/>
      <point x="123" y="399" type="line"/>
      <point x="155" y="401"/>
      <point x="189" y="405"/>
      <point x="217" y="426" type="curve"/>
      <point x="226" y="435"/>
      <point x="234" y="443"/>
      <point x="247" y="443" type="curve" smooth="yes"/>
      <point x="276" y="443"/>
      <point x="270" y="415"/>
      <point x="266" y="393" type="curve"/>
      <point x="262" y="378" type="line"/>
      <point x="318" y="402"/>
      <point x="374" y="426"/>
      <point x="432" y="426" type="curve" smooth="yes"/>
      <point x="480" y="426"/>
      <point x="528" y="408"/>
      <point x="541" y="363" type="curve" smooth="yes"/>
      <point x="552" y="328"/>
      <point x="541" y="282"/>
      <point x="533" y="243" type="curve" smooth="yes"/>
      <point x="493" y="56" type="line"/>
      <point x="561" y="56" type="line"/>
      <point x="549" y="0" type="line"/>
      <point x="351" y="0" type="line"/>
      <point x="363" y="56" type="line"/>
      <point x="431" y="56" type="line"/>
      <point x="470" y="241" type="line" smooth="yes"/>
      <point x="483" y="302"/>
      <point x="502" y="370"/>
      <point x="420" y="370" type="curve" smooth="yes"/>
      <point x="363" y="370"/>
      <point x="302" y="343"/>
    </contour>
  </outline>
</glyph>
<glyph name="p" format="1">
  <advance width="600"/>
  <unicode hex="0070"/>
  <outline>
    <contour>
      <point x="269" y="304" type="curve"/>
      <point x="219" y="69" type="line"/>
      <point x="245" y="52"/>
      <point x="274" y="44"/>
      <point x="308" y="44" type="curve" smooth="yes"/>
      <point x="400" y="44"/>
      <point x="478" y="121"/>
      <point x="496" y="209" type="curve"/>
      <point x="513" y="286"/>
      <point x="487" y="370"/>
      <point x="401" y="370" type="curve" smooth="yes"/>
      <point x="356" y="370"/>
      <point x="301" y="341"/>
    </contour>
    <contour>
      <point x="205" y="7" type="curve"/>
      <point x="174" y="-141" type="line"/>
      <point x="270" y="-141" type="line"/>
      <point x="258" y="-197" type="line"/>
      <point x="40" y="-197" type="line"/>
      <point x="52" y="-141" type="line"/>
      <point x="112" y="-141" type="line"/>
      <point x="218" y="358" type="line"/>
      <point x="143" y="348" type="line"/>
      <point x="145" y="399" type="line"/>
      <point x="177" y="401"/>
      <point x="211" y="405"/>
      <point x="239" y="426" type="curve"/>
      <point x="248" y="435"/>
      <point x="256" y="443"/>
      <point x="269" y="443" type="curve" smooth="yes"/>
      <point x="298" y="443"/>
      <point x="292" y="415"/>
      <point x="288" y="393" type="curve"/>
      <point x="285" y="382" type="line"/>
      <point x="331" y="408"/>
      <point x="364" y="426"/>
      <point x="414" y="426" type="curve" smooth="yes"/>
      <point x="536" y="426"/>
      <point x="586" y="323"/>
      <point x="561" y="209" type="curve"/>
      <point x="526" y="41"/>
      <point x="369" y="-12"/>
      <point x="311" y="-12" type="curve" smooth="yes"/>
      <point x="273" y="-12"/>
      <point x="239" y="-3"/>
    </contour>
  </outline>
</glyph>
<glyph name="q" format="1">
  <advance width="600"/>
  <unicode hex="0071"/>
  <outline>
    <contour>
      <point x="535" y="340" type="curve" smooth="yes"/>
      <point x="433" y="-141" type="line"/>
      <point x="521" y="-141" type="line"/>
      <point x="509" y="-197" type="line"/>
      <point x="249" y="-197" type="line"/>
      <point x="261" y="-141" type="line"/>
      <point x="371" y="-141" type="line"/>
      <point x="400" y="-6" type="line"/>
      <point x="367" y="-8"/>
      <point x="333" y="-12"/>
      <point x="301" y="-12" type="curve" smooth="yes"/>
      <point x="170" y="-12"/>
      <point x="107" y="72"/>
      <point x="135" y="203" type="curve" smooth="yes"/>
      <point x="172" y="375"/>
      <point x="323" y="426"/>
      <point x="390" y="426" type="curve" smooth="yes"/>
      <point x="435" y="426"/>
      <point x="459" y="416"/>
      <point x="494" y="397" type="curve"/>
      <point x="527" y="451" type="line"/>
      <point x="576" y="429" type="line"/>
      <point x="553" y="393"/>
      <point x="544" y="380"/>
    </contour>
    <contour>
      <point x="412" y="50" type="curve"/>
      <point x="473" y="341" type="line"/>
      <point x="450" y="359"/>
      <point x="413" y="370"/>
      <point x="380" y="370" type="curve" smooth="yes"/>
      <point x="285" y="370"/>
      <point x="218" y="285"/>
      <point x="199" y="198" type="curve" smooth="yes"/>
      <point x="176" y="90"/>
      <point x="230" y="44"/>
      <point x="332" y="44" type="curve" smooth="yes"/>
      <point x="358" y="44"/>
      <point x="385" y="45"/>
    </contour>
  </outline>
</glyph>
<glyph name="r" format="1">
  <advance width="600"/>
  <unicode hex="0072"/>
  <outline>
    <contour>
      <point x="307" y="264" type="curve"/>
      <point x="263" y="56" type="line"/>
      <point x="444" y="56" type="line"/>
      <point x="432" y="0" type="line"/>
      <point x="102" y="0" type="line"/>
      <point x="114" y="56" type="line"/>
      <point x="201" y="56" type="line"/>
      <point x="265" y="357" type="line"/>
      <point x="190" y="347" type="line"/>
      <point x="192" y="398" type="line"/>
      <point x="224" y="400"/>
      <point x="258" y="404"/>
      <point x="285" y="425" type="curve" smooth="yes"/>
      <point x="295" y="434"/>
      <point x="303" y="442"/>
      <point x="316" y="442" type="curve" smooth="yes"/>
      <point x="345" y="442"/>
      <point x="339" y="414"/>
      <point x="334" y="392" type="curve" smooth="yes"/>
      <point x="323" y="339" type="line"/>
      <point x="387" y="379"/>
      <point x="450" y="426"/>
      <point x="522" y="426" type="curve" smooth="yes"/>
      <point x="574" y="426"/>
      <point x="599" y="391"/>
      <point x="605" y="345" type="curve"/>
      <point x="538" y="320" type="line"/>
      <point x="534" y="341"/>
      <point x="531" y="370"/>
      <point x="504" y="370" type="curve" smooth="yes"/>
      <point x="453" y="370"/>
      <point x="354" y="299"/>
    </contour>
  </outline>
</glyph>
<glyph name="t" format="1">
  <advance width="600"/>
  <unicode hex="0074"/>
  <outline>
    <contour>
      <point x="375" y="525" type="line"/>
      <point x="351" y="414" type="line"/>
      <point x="584" y="414" type="line"/>
      <point x="572" y="358" type="line"/>
      <point x="339" y="358" type="line"/>
      <point x="297" y="158" type="line" smooth="yes"/>
      <point x="286" y="106"/>
      <point x="266" y="44"/>
      <point x="336" y="44" type="curve" smooth="yes"/>
      <point x="390" y="44"/>
      <point x="462" y="61"/>
      <point x="518" y="77" type="curve"/>
      <point x="527" y="24" type="line"/>
      <point x="462" y="7"/>
      <point x="380" y="-12"/>
      <point x="318" y="-12" type="curve" smooth="yes"/>
      <point x="243" y="-12"/>
      <point x="208" y="32"/>
      <point x="229" y="130" type="curve" smooth="yes"/>
      <point x="277" y="358" type="line"/>
      <point x="133" y="358" type="line"/>
      <point x="145" y="414" type="line"/>
      <point x="289" y="414" type="line"/>
      <point x="313" y="525" type="line"/>
    </contour>
  </outline>
</glyph>
<glyph name="v" format="1">
  <advance width="600"/>
  <unicode hex="0076"/>
  <outline>
    <contour>
      <point x="132" y="414" type="line"/>
      <point x="321" y="414" type="line"/>
      <point x="309" y="358" type="line"/>
      <point x="248" y="358" type="line"/>
      <point x="312" y="57" type="line"/>
      <point x="504" y="358" type="line"/>
      <point x="443" y="358" type="line"/>
      <point x="455" y="414" type="line"/>
      <point x="644" y="414" type="line"/>
      <point x="632" y="358" type="line"/>
      <point x="565" y="358" type="line"/>
      <point x="327" y="-12" type="line"/>
      <point x="267" y="-12" type="line"/>
      <point x="187" y="358" type="line"/>
      <point x="120" y="358" type="line"/>
    </contour>
  </outline>
</glyph>
<glyph name="w" format="1">
  <advance width="600"/>
  <unicode hex="0077"/>
  <outline>
    <contour>
      <point x="93" y="414" type="line"/>
      <point x="289" y="414" type="line"/>
      <point x="277" y="358" type="line"/>
      <point x="206" y="358" type="line"/>
      <point x="227" y="70" type="line"/>
      <point x="354" y="305" type="line"/>
      <point x="392" y="305" type="line"/>
      <point x="422" y="70" type="line"/>
      <point x="563" y="358" type="line"/>
      <point x="488" y="358" type="line"/>
      <point x="500" y="414" type="line"/>
      <point x="683" y="414" type="line"/>
      <point x="671" y="358" type="line"/>
      <point x="619" y="358" type="line"/>
      <point x="441" y="-12" type="line"/>
      <point x="372" y="-12" type="line"/>
      <point x="347" y="183" type="line"/>
      <point x="242" y="-12" type="line"/>
      <point x="171" y="-12" type="line"/>
      <point x="148" y="358" type="line"/>
      <point x="81" y="358" type="line"/>
    </contour>
  </outline>
</glyph>
<glyph name="x" format="1">
  <advance width="600"/>
  <unicode hex="0078"/>
  <outline>
    <contour>
      <point x="132" y="414" type="line"/>
      <point x="354" y="414" type="line"/>
      <point x="342" y="358" type="line"/>
      <point x="269" y="358" type="line"/>
      <point x="346" y="262" type="line"/>
      <point x="458" y="358" type="line"/>
      <point x="396" y="358" type="line"/>
      <point x="408" y="414" type="line"/>
      <point x="622" y="414" type="line"/>
      <point x="610" y="358" type="line"/>
      <point x="537" y="358" type="line"/>
      <point x="378" y="220" type="line"/>
      <point x="507" y="56" type="line"/>
      <point x="579" y="56" type="line"/>
      <point x="567" y="0" type="line"/>
      <point x="328" y="0" type="line"/>
      <point x="340" y="56" type="line"/>
      <point x="424" y="56" type="line"/>
      <point x="328" y="178" type="line"/>
      <point x="187" y="56" type="line"/>
      <point x="278" y="56" type="line"/>
      <point x="266" y="0" type="line"/>
      <point x="34" y="0" type="line"/>
      <point x="46" y="56" type="line"/>
      <point x="108" y="56" type="line"/>
      <point x="296" y="219" type="line"/>
      <point x="185" y="358" type="line"/>
      <point x="120" y="358" type="line"/>
    </contour>
  </outline>
</glyph>
<glyph name="z" format="1">
  <advance width="600"/>
  <unicode hex="007A"/>
  <outline>
    <contour>
      <point x="577" y="414" type="line"/>
      <point x="567" y="366" type="line"/>
      <point x="191" y="56" type="line"/>
      <point x="394" y="56" type="line" smooth="yes"/>
      <point x="441" y="56"/>
      <point x="443" y="52"/>
      <point x="459" y="93" type="curve" smooth="yes"/>
      <point x="474" y="131" type="line"/>
      <point x="481" y="151" type="line"/>
      <point x="539" y="151" type="line"/>
      <point x="488" y="0" type="line"/>
      <point x="93" y="0" type="line"/>
      <point x="104" y="54" type="line"/>
      <point x="474" y="358" type="line"/>
      <point x="310" y="358" type="line" smooth="yes"/>
      <point x="242" y="358"/>
      <point x="251" y="355"/>
      <point x="227" y="285" type="curve"/>
      <point x="219" y="265" type="line"/>
      <point x="159" y="265" type="line"/>
      <point x="211" y="414" type="line"/>
    </contour>
  </outline>
</glyph>
<glyph name="braceleft" format="1">
  <advance width="600"/>
  <unicode hex="007B"/>
  <outline>
    <contour>
      <point x="278" y="82" type="curve"/>
      <point x="305" y="206" type="line" smooth="yes"/>
      <point x="322" y="286"/>
      <point x="298" y="282"/>
      <point x="226" y="301" type="curve"/>
      <point x="226" y="303" type="line"/>
      <point x="306" y="322"/>
      <point x="329" y="318"/>
      <point x="346" y="398" type="curve" smooth="yes"/>
      <point x="372" y="522" type="line" smooth="yes"/>
      <point x="399" y="651"/>
      <point x="472" y="656"/>
      <point x="584" y="656" type="curve" smooth="yes"/>
      <point x="596" y="656" type="line"/>
      <point x="585" y="600" type="line"/>
      <point x="495" y="600"/>
      <point x="450" y="596"/>
      <point x="430" y="503" type="curve" smooth="yes"/>
      <point x="409" y="404" type="line" smooth="yes"/>
      <point x="400" y="361"/>
      <point x="394" y="325"/>
      <point x="346" y="302" type="curve"/>
      <point x="384" y="279"/>
      <point x="375" y="243"/>
      <point x="366" y="200" type="curve" smooth="yes"/>
      <point x="344" y="101" type="line"/>
      <point x="325" y="8"/>
      <point x="368" y="4"/>
      <point x="458" y="4" type="curve"/>
      <point x="446" y="-52" type="line"/>
      <point x="434" y="-52" type="line" smooth="yes"/>
      <point x="322" y="-52"/>
      <point x="251" y="-47"/>
    </contour>
  </outline>
</glyph>
<glyph name="braceright" format="1">
  <advance width="600"/>
  <unicode hex="007D"/>
  <outline>
    <contour>
      <point x="452" y="522" type="curve" smooth="yes"/>
      <point x="426" y="398" type="line" smooth="yes"/>
      <point x="409" y="318"/>
      <point x="432" y="322"/>
      <point x="504" y="303" type="curve"/>
      <point x="504" y="301" type="line"/>
      <point x="424" y="282"/>
      <point x="402" y="286"/>
      <point x="385" y="206" type="curve" smooth="yes"/>
      <point x="358" y="82" type="line"/>
      <point x="331" y="-47"/>
      <point x="258" y="-52"/>
      <point x="146" y="-52" type="curve" smooth="yes"/>
      <point x="134" y="-52" type="line"/>
      <point x="146" y="4" type="line"/>
      <point x="236" y="4"/>
      <point x="281" y="8"/>
      <point x="300" y="101" type="curve"/>
      <point x="322" y="200" type="line" smooth="yes"/>
      <point x="331" y="243"/>
      <point x="336" y="279"/>
      <point x="384" y="302" type="curve"/>
      <point x="346" y="325"/>
      <point x="356" y="361"/>
      <point x="365" y="404" type="curve" smooth="yes"/>
      <point x="386" y="503" type="line" smooth="yes"/>
      <point x="406" y="596"/>
      <point x="363" y="600"/>
      <point x="273" y="600" type="curve"/>
      <point x="284" y="656" type="line"/>
      <point x="296" y="656" type="line" smooth="yes"/>
      <point x="408" y="656"/>
      <point x="479" y="651"/>
    </contour>
  </outline>
</glyph>
<glyph name="exclamdown" format="1">
  <advance width="600"/>
  <unicode hex="00A1"/>
  <outline>
    <contour>
      <point x="330" y="261" type="line"/>
      <point x="380" y="261" type="line"/>
      <point x="330" y="-143" type="line" smooth="yes"/>
      <point x="326" y="-175"/>
      <point x="289" y="-197"/>
      <point x="258" y="-197" type="curve" smooth="yes"/>
      <point x="227" y="-197"/>
      <point x="200" y="-175"/>
      <point x="210" y="-143" type="curve" smooth="yes"/>
    </contour>
    <contour>
      <point x="319" y="369" type="curve" smooth="yes"/>
      <point x="326" y="401"/>
      <point x="360" y="426"/>
      <point x="391" y="426" type="curve" smooth="yes"/>
      <point x="422" y="426"/>
      <point x="444" y="401"/>
      <point x="437" y="369" type="curve" smooth="yes"/>
      <point x="431" y="337"/>
      <point x="398" y="312"/>
      <point x="366" y="312" type="curve" smooth="yes"/>
      <point x="334" y="312"/>
      <point x="313" y="337"/>
    </contour>
  </outline>
</glyph>
<glyph name="cent" format="1">
  <advance width="600"/>
  <unicode hex="00A2"/>
  <outline>
    <contour>
      <point x="418" y="635" type="line"/>
      <point x="480" y="635" type="line"/>
      <point x="457" y="527" type="line"/>
      <point x="509" y="523"/>
      <point x="564" y="508"/>
      <point x="584" y="461" type="curve"/>
      <point x="572" y="421" type="line"/>
      <point x="562" y="358" type="line"/>
      <point x="499" y="358" type="line"/>
      <point x="505" y="387" type="line" smooth="yes"/>
      <point x="518" y="449"/>
      <point x="491" y="471"/>
      <point x="422" y="471" type="curve" smooth="yes"/>
      <point x="332" y="471"/>
      <point x="254" y="399"/>
      <point x="235" y="312" type="curve" smooth="yes"/>
      <point x="216" y="221"/>
      <point x="261" y="143"/>
      <point x="356" y="143" type="curve" smooth="yes"/>
      <point x="417" y="143"/>
      <point x="483" y="164"/>
      <point x="542" y="189" type="curve"/>
      <point x="553" y="137" type="line"/>
      <point x="491" y="108"/>
      <point x="426" y="91"/>
      <point x="363" y="87" type="curve"/>
      <point x="336" y="-42" type="line"/>
      <point x="274" y="-42" type="line"/>
      <point x="301" y="87" type="line"/>
      <point x="198" y="109"/>
      <point x="147" y="200"/>
      <point x="169" y="308" type="curve"/>
      <point x="197" y="436"/>
      <point x="281" y="498"/>
      <point x="395" y="527" type="curve"/>
    </contour>
  </outline>
</glyph>
<glyph name="sterling" format="1">
  <advance width="600"/>
  <unicode hex="00A3"/>
  <outline>
    <contour>
      <point x="268" y="106" type="curve"/>
      <point x="254" y="126"/>
      <point x="241" y="144"/>
      <point x="212" y="144" type="curve" smooth="yes"/>
      <point x="180" y="144"/>
      <point x="158" y="124"/>
      <point x="152" y="93" type="curve" smooth="yes"/>
      <point x="146" y="66"/>
      <point x="160" y="44"/>
      <point x="187" y="44" type="curve" smooth="yes"/>
      <point x="219" y="44"/>
      <point x="256" y="76"/>
    </contour>
    <contour>
      <point x="329" y="337" type="curve"/>
      <point x="478" y="337" type="line"/>
      <point x="466" y="281" type="line"/>
      <point x="334" y="281" type="line"/>
      <point x="339" y="235"/>
      <point x="346" y="189"/>
      <point x="336" y="139" type="curve"/>
      <point x="331" y="124" type="line"/>
      <point x="346" y="95"/>
      <point x="383" y="44"/>
      <point x="418" y="44" type="curve" smooth="yes"/>
      <point x="468" y="44"/>
      <point x="494" y="101"/>
      <point x="502" y="141" type="curve"/>
      <point x="557" y="132" type="line"/>
      <point x="543" y="61"/>
      <point x="488" y="-12"/>
      <point x="408" y="-12" type="curve" smooth="yes"/>
      <point x="358" y="-12"/>
      <point x="324" y="23"/>
      <point x="299" y="58" type="curve"/>
      <point x="258" y="17"/>
      <point x="229" y="-12"/>
      <point x="172" y="-12" type="curve" smooth="yes"/>
      <point x="115" y="-12"/>
      <point x="74" y="34"/>
      <point x="87" y="93" type="curve" smooth="yes"/>
      <point x="98" y="146"/>
      <point x="145" y="200"/>
      <point x="208" y="200" type="curve" smooth="yes"/>
      <point x="235" y="200"/>
      <point x="258" y="191"/>
      <point x="281" y="183" type="curve"/>
      <point x="271" y="281" type="line"/>
      <point x="144" y="281" type="line"/>
      <point x="156" y="337" type="line"/>
      <point x="264" y="337" type="line"/>
      <point x="260" y="370"/>
      <point x="258" y="402"/>
      <point x="266" y="438" type="curve" smooth="yes"/>
      <point x="288" y="542"/>
      <point x="367" y="612"/>
      <point x="472" y="612" type="curve" smooth="yes"/>
      <point x="558" y="612"/>
      <point x="631" y="553"/>
      <point x="612" y="465" type="curve" smooth="yes"/>
      <point x="606" y="439"/>
      <point x="585" y="395"/>
      <point x="552" y="395" type="curve" smooth="yes"/>
      <point x="527" y="395"/>
      <point x="520" y="418"/>
      <point x="525" y="441" type="curve" smooth="yes"/>
      <point x="529" y="459"/>
      <point x="537" y="472"/>
      <point x="551" y="485" type="curve"/>
      <point x="553" y="531"/>
      <point x="503" y="556"/>
      <point x="461" y="556" type="curve" smooth="yes"/>
      <point x="391" y="556"/>
      <point x="346" y="507"/>
      <point x="332" y="440" type="curve"/>
      <point x="323" y="402"/>
      <point x="323" y="372"/>
    </contour>
  </outline>
</glyph>
<glyph name="yen" format="1">
  <advance width="600"/>
  <unicode hex="00A5"/>
  <outline>
    <contour>
      <point x="425" y="306" type="line"/>
      <point x="540" y="306" type="line"/>
      <point x="528" y="250" type="line"/>
      <point x="385" y="250" type="line"/>
      <point x="344" y="56" type="line"/>
      <point x="475" y="56" type="line"/>
      <point x="463" y="0" type="line"/>
      <point x="139" y="0" type="line"/>
      <point x="151" y="56" type="line"/>
      <point x="282" y="56" type="line"/>
      <point x="323" y="250" type="line"/>
      <point x="181" y="250" type="line"/>
      <point x="193" y="306" type="line"/>
      <point x="307" y="306" type="line"/>
      <point x="210" y="544" type="line"/>
      <point x="148" y="544" type="line"/>
      <point x="160" y="600" type="line"/>
      <point x="372" y="600" type="line"/>
      <point x="360" y="544" type="line"/>
      <point x="278" y="544" type="line"/>
      <point x="369" y="318" type="line"/>
      <point x="556" y="544" type="line"/>
      <point x="474" y="544" type="line"/>
      <point x="486" y="600" type="line"/>
      <point x="697" y="600" type="line"/>
      <point x="685" y="544" type="line"/>
      <point x="624" y="544" type="line"/>
    </contour>
  </outline>
</glyph>
<glyph name="section" format="1">
  <advance width="600"/>
  <unicode hex="00A7"/>
  <outline>
    <contour>
      <point x="299" y="220" type="curve" smooth="yes"/>
      <point x="403" y="127" type="line"/>
      <point x="428" y="139"/>
      <point x="446" y="162"/>
      <point x="452" y="187" type="curve" smooth="yes"/>
      <point x="459" y="222"/>
      <point x="436" y="246"/>
      <point x="415" y="266" type="curve" smooth="yes"/>
      <point x="300" y="369" type="line"/>
      <point x="279" y="352"/>
      <point x="260" y="337"/>
      <point x="254" y="310" type="curve" smooth="yes"/>
      <point x="245" y="269"/>
      <point x="273" y="242"/>
    </contour>
    <contour>
      <point x="324" y="110" type="curve" smooth="yes"/>
      <point x="240" y="188" type="line" smooth="yes"/>
      <point x="205" y="220"/>
      <point x="178" y="257"/>
      <point x="190" y="313" type="curve" smooth="yes"/>
      <point x="199" y="356"/>
      <point x="232" y="380"/>
      <point x="266" y="406" type="curve"/>
      <point x="253" y="426"/>
      <point x="249" y="457"/>
      <point x="255" y="483" type="curve" smooth="yes"/>
      <point x="272" y="565"/>
      <point x="351" y="612"/>
      <point x="427" y="612" type="curve" smooth="yes"/>
      <point x="498" y="612"/>
      <point x="567" y="568"/>
      <point x="550" y="489" type="curve" smooth="yes"/>
      <point x="546" y="469"/>
      <point x="532" y="439"/>
      <point x="506" y="439" type="curve" smooth="yes"/>
      <point x="485" y="439"/>
      <point x="476" y="454"/>
      <point x="480" y="475" type="curve" smooth="yes"/>
      <point x="482" y="486"/>
      <point x="487" y="496"/>
      <point x="494" y="506" type="curve"/>
      <point x="495" y="541"/>
      <point x="448" y="556"/>
      <point x="418" y="556" type="curve" smooth="yes"/>
      <point x="374" y="556"/>
      <point x="330" y="532"/>
      <point x="320" y="484" type="curve" smooth="yes"/>
      <point x="311" y="443"/>
      <point x="344" y="414"/>
      <point x="369" y="392" type="curve" smooth="yes"/>
      <point x="447" y="323" type="line"/>
      <point x="483" y="289"/>
      <point x="530" y="250"/>
      <point x="517" y="188" type="curve" smooth="yes"/>
      <point x="507" y="143"/>
      <point x="475" y="113"/>
      <point x="434" y="89" type="curve"/>
      <point x="452" y="63"/>
      <point x="459" y="37"/>
      <point x="451" y="1" type="curve" smooth="yes"/>
      <point x="435" y="-75"/>
      <point x="348" y="-116"/>
      <point x="280" y="-116" type="curve" smooth="yes"/>
      <point x="208" y="-116"/>
      <point x="139" y="-69"/>
      <point x="157" y="12" type="curve"/>
      <point x="161" y="35"/>
      <point x="175" y="64"/>
      <point x="203" y="64" type="curve" smooth="yes"/>
      <point x="226" y="64"/>
      <point x="232" y="39"/>
      <point x="228" y="19" type="curve" smooth="yes"/>
      <point x="226" y="9"/>
      <point x="221" y="2"/>
      <point x="215" y="-8" type="curve"/>
      <point x="222" y="-45"/>
      <point x="251" y="-60"/>
      <point x="290" y="-60" type="curve" smooth="yes"/>
      <point x="332" y="-60"/>
      <point x="378" y="-39"/>
      <point x="388" y="8" type="curve" smooth="yes"/>
      <point x="397" y="54"/>
      <point x="352" y="85"/>
    </contour>
  </outline>
</glyph>
<glyph name="dieresis" format="1">
  <advance width="600"/>
  <unicode hex="00A8"/>
  <outline>
    <contour>
      <point x="253" y="562" type="curve" smooth="yes"/>
      <point x="260" y="595"/>
      <point x="294" y="620"/>
      <point x="326" y="620" type="curve" smooth="yes"/>
      <point x="358" y="620"/>
      <point x="380" y="595"/>
      <point x="373" y="562" type="curve" smooth="yes"/>
      <point x="366" y="529"/>
      <point x="333" y="504"/>
      <point x="301" y="504" type="curve" smooth="yes"/>
      <point x="269" y="504"/>
      <point x="246" y="529"/>
    </contour>
    <contour>
      <point x="465" y="562" type="curve" smooth="yes"/>
      <point x="472" y="595"/>
      <point x="506" y="620"/>
      <point x="538" y="620" type="curve" smooth="yes"/>
      <point x="570" y="620"/>
      <point x="592" y="595"/>
      <point x="585" y="562" type="curve" smooth="yes"/>
      <point x="578" y="529"/>
      <point x="545" y="504"/>
      <point x="513" y="504" type="curve" smooth="yes"/>
      <point x="481" y="504"/>
      <point x="458" y="529"/>
    </contour>
  </outline>
</glyph>
<glyph name="copyright" format="1">
  <advance width="600"/>
  <unicode hex="00A9"/>
  <outline>
    <contour>
      <point x="297" y="-12" type="curve" smooth="yes"/>
      <point x="179" y="-12"/>
      <point x="44" y="66"/>
      <point x="94" y="300" type="curve" smooth="yes"/>
      <point x="144" y="534"/>
      <point x="312" y="612"/>
      <point x="430" y="612" type="curve" smooth="yes"/>
      <point x="548" y="612"/>
      <point x="684" y="534"/>
      <point x="634" y="300" type="curve" smooth="yes"/>
      <point x="584" y="66"/>
      <point x="415" y="-12"/>
    </contour>
    <contour>
      <point x="309" y="44" type="curve" smooth="yes"/>
      <point x="399" y="44"/>
      <point x="528" y="108"/>
      <point x="569" y="300" type="curve" smooth="yes"/>
      <point x="610" y="492"/>
      <point x="508" y="556"/>
      <point x="418" y="556" type="curve" smooth="yes"/>
      <point x="328" y="556"/>
      <point x="200" y="492"/>
      <point x="159" y="300" type="curve" smooth="yes"/>
      <point x="118" y="108"/>
      <point x="219" y="44"/>
    </contour>
    <contour>
      <point x="461" y="448" type="curve"/>
      <point x="472" y="466" type="line"/>
      <point x="503" y="451" type="line"/>
      <point x="492" y="434"/>
      <point x="485" y="416"/>
      <point x="482" y="397" type="curve" smooth="yes"/>
      <point x="477" y="358" type="line"/>
      <point x="441" y="353" type="line"/>
      <point x="449" y="401"/>
      <point x="441" y="429"/>
      <point x="394" y="429" type="curve" smooth="yes"/>
      <point x="333" y="429"/>
      <point x="300" y="360"/>
      <point x="287" y="301" type="curve" smooth="yes"/>
      <point x="275" y="243"/>
      <point x="281" y="172"/>
      <point x="339" y="172" type="curve" smooth="yes"/>
      <point x="384" y="172"/>
      <point x="416" y="203"/>
      <point x="426" y="252" type="curve"/>
      <point x="463" y="252" type="line"/>
      <point x="448" y="185" type="line"/>
      <point x="411" y="158"/>
      <point x="372" y="136"/>
      <point x="329" y="136" type="curve" smooth="yes"/>
      <point x="268" y="136"/>
      <point x="210" y="182"/>
      <point x="235" y="303" type="curve" smooth="yes"/>
      <point x="260" y="421"/>
      <point x="338" y="465"/>
      <point x="400" y="465" type="curve" smooth="yes"/>
      <point x="425" y="465"/>
      <point x="445" y="456"/>
    </contour>
  </outline>
</glyph>
<glyph name="ordfeminine" format="1">
  <advance width="600"/>
  <unicode hex="00AA"/>
  <outline>
    <contour>
      <point x="512" y="262" type="line"/>
      <point x="503" y="220" type="line"/>
      <point x="203" y="220" type="line"/>
      <point x="212" y="262" type="line"/>
    </contour>
    <contour>
      <point x="431" y="357" type="line"/>
      <point x="434" y="373" type="line"/>
      <point x="398" y="360"/>
      <point x="358" y="350"/>
      <point x="321" y="350" type="curve" smooth="yes"/>
      <point x="276" y="350"/>
      <point x="228" y="367"/>
      <point x="239" y="421" type="curve" smooth="yes"/>
      <point x="258" y="508"/>
      <point x="402" y="505"/>
      <point x="463" y="509" type="curve"/>
      <point x="466" y="522" type="line" smooth="yes"/>
      <point x="473" y="555"/>
      <point x="484" y="574"/>
      <point x="440" y="574" type="curve" smooth="yes"/>
      <point x="410" y="574"/>
      <point x="380" y="568"/>
      <point x="351" y="553" type="curve"/>
      <point x="345" y="528" type="line"/>
      <point x="295" y="528" type="line"/>
      <point x="306" y="577" type="line"/>
      <point x="346" y="597"/>
      <point x="398" y="612"/>
      <point x="440" y="612" type="curve" smooth="yes"/>
      <point x="464" y="612"/>
      <point x="496" y="609"/>
      <point x="512" y="595" type="curve" smooth="yes"/>
      <point x="529" y="579"/>
      <point x="523" y="553"/>
      <point x="518" y="531" type="curve" smooth="yes"/>
      <point x="489" y="395" type="line"/>
      <point x="542" y="395" type="line"/>
      <point x="534" y="357" type="line"/>
    </contour>
    <contour>
      <point x="443" y="416" type="curve"/>
      <point x="455" y="472" type="line"/>
      <point x="418" y="472"/>
      <point x="379" y="470"/>
      <point x="340" y="459" type="curve" smooth="yes"/>
      <point x="317" y="453"/>
      <point x="295" y="445"/>
      <point x="289" y="420" type="curve"/>
      <point x="284" y="394"/>
      <point x="306" y="388"/>
      <point x="328" y="388" type="curve" smooth="yes"/>
      <point x="367" y="388"/>
      <point x="406" y="402"/>
    </contour>
  </outline>
</glyph>
<glyph name="guillemotleft" format="1">
  <advance width="600"/>
  <unicode hex="00AB"/>
  <outline>
    <contour>
      <point x="405" y="554" type="line"/>
      <point x="437" y="514" type="line"/>
      <point x="156" y="300" type="line"/>
      <point x="346" y="86" type="line"/>
      <point x="297" y="46" type="line"/>
      <point x="73" y="300" type="line"/>
    </contour>
    <contour>
      <point x="614" y="554" type="line"/>
      <point x="646" y="514" type="line"/>
      <point x="365" y="300" type="line"/>
      <point x="555" y="86" type="line"/>
      <point x="506" y="46" type="line"/>
      <point x="282" y="300" type="line"/>
    </contour>
  </outline>
</glyph>
<glyph name="registered" format="1">
  <advance width="600"/>
  <unicode hex="00AE"/>
  <outline>
    <contour>
      <point x="258" y="417" type="line"/>
      <point x="265" y="453" type="line"/>
      <point x="387" y="453" type="line" smooth="yes"/>
      <point x="437" y="453"/>
      <point x="483" y="432"/>
      <point x="470" y="373" type="curve"/>
      <point x="461" y="327"/>
      <point x="426" y="304"/>
      <point x="386" y="293" type="curve"/>
      <point x="436" y="184" type="line"/>
      <point x="469" y="184" type="line"/>
      <point x="461" y="148" type="line"/>
      <point x="403" y="148" type="line"/>
      <point x="344" y="281" type="line"/>
      <point x="305" y="281" type="line"/>
      <point x="284" y="184" type="line"/>
      <point x="317" y="184" type="line"/>
      <point x="309" y="148" type="line"/>
      <point x="200" y="148" type="line"/>
      <point x="208" y="184" type="line"/>
      <point x="241" y="184" type="line"/>
      <point x="291" y="417" type="line"/>
    </contour>
    <contour>
      <point x="334" y="417" type="line"/>
      <point x="312" y="317" type="line"/>
      <point x="334" y="317" type="line" smooth="yes"/>
      <point x="392" y="317"/>
      <point x="420" y="340"/>
      <point x="426" y="369" type="curve" smooth="yes"/>
      <point x="434" y="403"/>
      <point x="412" y="417"/>
      <point x="377" y="417" type="curve" smooth="yes"/>
    </contour>
    <contour>
      <point x="297" y="-12" type="curve" smooth="yes"/>
      <point x="179" y="-12"/>
      <point x="44" y="66"/>
      <point x="94" y="300" type="curve" smooth="yes"/>
      <point x="144" y="534"/>
      <point x="312" y="612"/>
      <point x="430" y="612" type="curve" smooth="yes"/>
      <point x="548" y="612"/>
      <point x="684" y="534"/>
      <point x="634" y="300" type="curve" smooth="yes"/>
      <point x="584" y="66"/>
      <point x="415" y="-12"/>
    </contour>
    <contour>
      <point x="309" y="44" type="curve" smooth="yes"/>
      <point x="399" y="44"/>
      <point x="528" y="108"/>
      <point x="569" y="300" type="curve" smooth="yes"/>
      <point x="610" y="492"/>
      <point x="508" y="556"/>
      <point x="418" y="556" type="curve" smooth="yes"/>
      <point x="328" y="556"/>
      <point x="200" y="492"/>
      <point x="159" y="300" type="curve" smooth="yes"/>
      <point x="118" y="108"/>
      <point x="219" y="44"/>
    </contour>
  </outline>
</glyph>
<glyph name="macron" format="1">
  <advance width="600"/>
  <unicode hex="00AF"/>
  <outline>
    <contour>
      <point x="541" y="522" type="line"/>
      <point x="281" y="522" type="line"/>
      <point x="293" y="578" type="line"/>
      <point x="553" y="578" type="line"/>
    </contour>
  </outline>
</glyph>
<glyph name="twosuperior" format="1">
  <advance width="600"/>
  <unicode hex="00B2"/>
  <outline>
    <contour>
      <point x="442" y="356" type="line"/>
      <point x="479" y="347" type="line"/>
      <point x="436" y="285" type="line"/>
      <point x="252" y="285" type="line"/>
      <point x="259" y="318" type="line"/>
      <point x="274" y="331" type="line"/>
      <point x="326" y="373"/>
      <point x="448" y="467"/>
      <point x="461" y="526" type="curve" smooth="yes"/>
      <point x="467" y="556"/>
      <point x="444" y="576"/>
      <point x="416" y="576" type="curve" smooth="yes"/>
      <point x="396" y="576"/>
      <point x="386" y="572"/>
      <point x="369" y="559" type="curve"/>
      <point x="364" y="536"/>
      <point x="349" y="515"/>
      <point x="326" y="515" type="curve" smooth="yes"/>
      <point x="313" y="515"/>
      <point x="309" y="524"/>
      <point x="312" y="536" type="curve" smooth="yes"/>
      <point x="322" y="584"/>
      <point x="382" y="612"/>
      <point x="424" y="612" type="curve" smooth="yes"/>
      <point x="472" y="612"/>
      <point x="515" y="581"/>
      <point x="504" y="529" type="curve" smooth="yes"/>
      <point x="496" y="489"/>
      <point x="468" y="457"/>
      <point x="438" y="426" type="curve"/>
      <point x="326" y="329" type="line"/>
      <point x="316" y="321" type="line"/>
      <point x="414" y="321" type="line"/>
    </contour>
  </outline>
</glyph>
<glyph name="threesuperior" format="1">
  <advance width="600"/>
  <unicode hex="00B3"/>
  <outline>
    <contour>
      <point x="384" y="442" type="curve"/>
      <point x="350" y="439" type="line"/>
      <point x="359" y="479" type="line"/>
      <point x="367" y="477"/>
      <point x="375" y="476"/>
      <point x="383" y="476" type="curve" smooth="yes"/>
      <point x="413" y="476"/>
      <point x="443" y="486"/>
      <point x="451" y="521" type="curve" smooth="yes"/>
      <point x="457" y="550"/>
      <point x="443" y="576"/>
      <point x="411" y="576" type="curve" smooth="yes"/>
      <point x="400" y="576"/>
      <point x="383" y="575"/>
      <point x="373" y="565" type="curve"/>
      <point x="367" y="546"/>
      <point x="350" y="526"/>
      <point x="328" y="526" type="curve" smooth="yes"/>
      <point x="317" y="526"/>
      <point x="310" y="535"/>
      <point x="312" y="546" type="curve" smooth="yes"/>
      <point x="321" y="586"/>
      <point x="384" y="612"/>
      <point x="417" y="612" type="curve" smooth="yes"/>
      <point x="471" y="612"/>
      <point x="506" y="578"/>
      <point x="494" y="523" type="curve" smooth="yes"/>
      <point x="488" y="494"/>
      <point x="473" y="479"/>
      <point x="449" y="461" type="curve"/>
      <point x="475" y="439"/>
      <point x="488" y="420"/>
      <point x="480" y="380" type="curve" smooth="yes"/>
      <point x="465" y="312"/>
      <point x="400" y="279"/>
      <point x="339" y="279" type="curve" smooth="yes"/>
      <point x="303" y="279"/>
      <point x="267" y="288"/>
      <point x="241" y="306" type="curve"/>
      <point x="265" y="339" type="line"/>
      <point x="288" y="323"/>
      <point x="316" y="315"/>
      <point x="347" y="315" type="curve" smooth="yes"/>
      <point x="387" y="315"/>
      <point x="427" y="334"/>
      <point x="436" y="378" type="curve" smooth="yes"/>
      <point x="445" y="419"/>
      <point x="424" y="442"/>
    </contour>
  </outline>
</glyph>
<glyph name="acute" format="1">
  <advance width="600"/>
  <unicode hex="00B4"/>
  <outline>
    <contour>
      <point x="546" y="660" type="line"/>
      <point x="584" y="599" type="line"/>
      <point x="354" y="465" type="line"/>
      <point x="326" y="509" type="line"/>
    </contour>
  </outline>
</glyph>
<glyph name="paragraph" format="1">
  <advance width="600"/>
  <unicode hex="00B6"/>
  <outline>
    <contour>
      <point x="250" y="-91" type="line"/>
      <point x="326" y="268" type="line"/>
      <point x="229" y="265"/>
      <point x="160" y="331"/>
      <point x="182" y="433" type="curve" smooth="yes"/>
      <point x="195" y="495"/>
      <point x="249" y="600"/>
      <point x="408" y="600" type="curve" smooth="yes"/>
      <point x="638" y="600" type="line"/>
      <point x="628" y="554" type="line"/>
      <point x="592" y="554" type="line"/>
      <point x="455" y="-91" type="line"/>
      <point x="393" y="-91" type="line"/>
      <point x="530" y="554" type="line"/>
      <point x="449" y="554" type="line"/>
      <point x="312" y="-91" type="line"/>
    </contour>
  </outline>
</glyph>
<glyph name="cedilla" format="1">
  <advance width="600"/>
  <unicode hex="00B8"/>
  <outline>
    <contour>
      <point x="347" y="30" type="line"/>
      <point x="321" y="-24" type="line"/>
      <point x="375" y="-23"/>
      <point x="425" y="-49"/>
      <point x="412" y="-110" type="curve" smooth="yes"/>
      <point x="397" y="-179"/>
      <point x="322" y="-206"/>
      <point x="263" y="-206" type="curve" smooth="yes"/>
      <point x="224" y="-206"/>
      <point x="185" y="-197"/>
      <point x="155" y="-178" type="curve"/>
      <point x="168" y="-119" type="line"/>
      <point x="199" y="-135"/>
      <point x="233" y="-150"/>
      <point x="272" y="-150" type="curve" smooth="yes"/>
      <point x="297" y="-150"/>
      <point x="340" y="-141"/>
      <point x="347" y="-110" type="curve"/>
      <point x="352" y="-83"/>
      <point x="315" y="-80"/>
      <point x="295" y="-80" type="curve"/>
      <point x="233" y="-86" type="line"/>
      <point x="286" y="30" type="line"/>
    </contour>
  </outline>
</glyph>
<glyph name="onesuperior" format="1">
  <advance width="600"/>
  <unicode hex="00B9"/>
  <outline>
    <contour>
      <point x="450" y="578" type="curve" smooth="yes"/>
      <point x="395" y="321" type="line"/>
      <point x="458" y="321" type="line"/>
      <point x="451" y="285" type="line"/>
      <point x="276" y="285" type="line"/>
      <point x="283" y="321" type="line"/>
      <point x="352" y="321" type="line"/>
      <point x="403" y="560" type="line"/>
      <point x="385" y="556"/>
      <point x="368" y="555"/>
      <point x="352" y="555" type="curve" smooth="yes"/>
      <point x="331" y="556" type="line"/>
      <point x="332" y="590" type="line"/>
      <point x="351" y="590" type="line" smooth="yes"/>
      <point x="364" y="590"/>
      <point x="403" y="591"/>
      <point x="413" y="600" type="curve" smooth="yes"/>
      <point x="421" y="607"/>
      <point x="425" y="612"/>
      <point x="436" y="612" type="curve" smooth="yes"/>
      <point x="458" y="612"/>
      <point x="453" y="594"/>
    </contour>
  </outline>
</glyph>
<glyph name="ordmasculine" format="1">
  <advance width="600"/>
  <unicode hex="00BA"/>
  <outline>
    <contour>
      <point x="506" y="262" type="line"/>
      <point x="497" y="220" type="line"/>
      <point x="197" y="220" type="line"/>
      <point x="206" y="262" type="line"/>
    </contour>
    <contour>
      <point x="374" y="350" type="curve" smooth="yes"/>
      <point x="299" y="350"/>
      <point x="241" y="402"/>
      <point x="258" y="481" type="curve" smooth="yes"/>
      <point x="275" y="561"/>
      <point x="355" y="612"/>
      <point x="430" y="612" type="curve" smooth="yes"/>
      <point x="505" y="612"/>
      <point x="563" y="561"/>
      <point x="546" y="481" type="curve" smooth="yes"/>
      <point x="529" y="402"/>
      <point x="449" y="350"/>
    </contour>
    <contour>
      <point x="422" y="574" type="curve" smooth="yes"/>
      <point x="369" y="574"/>
      <point x="320" y="534"/>
      <point x="308" y="481" type="curve" smooth="yes"/>
      <point x="297" y="428"/>
      <point x="329" y="388"/>
      <point x="382" y="388" type="curve" smooth="yes"/>
      <point x="435" y="388"/>
      <point x="485" y="428"/>
      <point x="496" y="481" type="curve" smooth="yes"/>
      <point x="508" y="534"/>
      <point x="475" y="574"/>
    </contour>
  </outline>
</glyph>
<glyph name="guillemotright" format="1">
  <advance width="600"/>
  <unicode hex="00BB"/>
  <outline>
    <contour>
      <point x="172" y="514" type="line"/>
      <point x="222" y="554" type="line"/>
      <point x="446" y="300" type="line"/>
      <point x="114" y="46" type="line"/>
      <point x="81" y="86" type="line"/>
      <point x="363" y="300" type="line"/>
    </contour>
    <contour>
      <point x="381" y="514" type="line"/>
      <point x="431" y="554" type="line"/>
      <point x="655" y="300" type="line"/>
      <point x="323" y="46" type="line"/>
      <point x="290" y="86" type="line"/>
      <point x="572" y="300" type="line"/>
    </contour>
  </outline>
</glyph>
<glyph name="onequarter" format="1">
  <advance width="600"/>
  <unicode hex="00BC"/>
  <outline>
    <contour>
      <point x="569" y="633" type="line"/>
      <point x="604" y="610" type="line"/>
      <point x="190" y="-28" type="line"/>
      <point x="155" y="-4" type="line"/>
    </contour>
    <contour>
      <point x="544" y="226" type="line"/>
      <point x="587" y="226" type="line"/>
      <point x="564" y="118" type="line"/>
      <point x="610" y="118" type="line"/>
      <point x="602" y="82" type="line"/>
      <point x="556" y="82" type="line"/>
      <point x="547" y="36" type="line"/>
      <point x="593" y="36" type="line"/>
      <point x="585" y="0" type="line"/>
      <point x="442" y="0" type="line"/>
      <point x="450" y="36" type="line"/>
      <point x="504" y="36" type="line"/>
      <point x="513" y="82" type="line"/>
      <point x="354" y="82" type="line"/>
      <point x="361" y="113" type="line"/>
      <point x="422" y="186"/>
      <point x="481" y="262"/>
      <point x="520" y="346" type="curve"/>
      <point x="560" y="334" type="line"/>
      <point x="522" y="256"/>
      <point x="465" y="185"/>
      <point x="408" y="118" type="curve"/>
      <point x="521" y="118" type="line"/>
    </contour>
    <contour>
      <point x="290" y="578" type="curve" smooth="yes"/>
      <point x="235" y="321" type="line"/>
      <point x="298" y="321" type="line"/>
      <point x="291" y="285" type="line"/>
      <point x="116" y="285" type="line"/>
      <point x="123" y="321" type="line"/>
      <point x="192" y="321" type="line"/>
      <point x="243" y="560" type="line"/>
      <point x="225" y="556"/>
      <point x="208" y="555"/>
      <point x="192" y="555" type="curve" smooth="yes"/>
      <point x="171" y="556" type="line"/>
      <point x="172" y="590" type="line"/>
      <point x="191" y="590" type="line" smooth="yes"/>
      <point x="204" y="590"/>
      <point x="243" y="591"/>
      <point x="253" y="600" type="curve" smooth="yes"/>
      <point x="261" y="607"/>
      <point x="265" y="612"/>
      <point x="276" y="612" type="curve" smooth="yes"/>
      <point x="298" y="612"/>
      <point x="293" y="594"/>
    </contour>
  </outline>
</glyph>
<glyph name="onehalf" format="1">
  <advance width="600"/>
  <unicode hex="00BD"/>
  <outline>
    <contour>
      <point x="560" y="633" type="line"/>
      <point x="595" y="610" type="line"/>
      <point x="181" y="-28" type="line"/>
      <point x="146" y="-4" type="line"/>
    </contour>
    <contour>
      <point x="550" y="71" type="line"/>
      <point x="587" y="62" type="line"/>
      <point x="544" y="0" type="line"/>
      <point x="351" y="0" type="line"/>
      <point x="358" y="32" type="line"/>
      <point x="374" y="46" type="line"/>
      <point x="426" y="88"/>
      <point x="547" y="181"/>
      <point x="560" y="241" type="curve" smooth="yes"/>
      <point x="567" y="271"/>
      <point x="544" y="291"/>
      <point x="516" y="291" type="curve" smooth="yes"/>
      <point x="496" y="291"/>
      <point x="485" y="286"/>
      <point x="468" y="271" type="curve"/>
      <point x="463" y="250"/>
      <point x="449" y="229"/>
      <point x="426" y="229" type="curve" smooth="yes"/>
      <point x="413" y="229"/>
      <point x="409" y="238"/>
      <point x="411" y="250" type="curve" smooth="yes"/>
      <point x="421" y="298"/>
      <point x="482" y="327"/>
      <point x="524" y="327" type="curve" smooth="yes"/>
      <point x="572" y="327"/>
      <point x="615" y="295"/>
      <point x="604" y="243" type="curve" smooth="yes"/>
      <point x="595" y="203"/>
      <point x="567" y="171"/>
      <point x="537" y="141" type="curve"/>
      <point x="425" y="44" type="line"/>
      <point x="416" y="36" type="line"/>
      <point x="523" y="36" type="line"/>
    </contour>
    <contour>
      <point x="290" y="578" type="curve" smooth="yes"/>
      <point x="235" y="321" type="line"/>
      <point x="298" y="321" type="line"/>
      <point x="291" y="285" type="line"/>
      <point x="116" y="285" type="line"/>
      <point x="123" y="321" type="line"/>
      <point x="192" y="321" type="line"/>
      <point x="243" y="560" type="line"/>
      <point x="225" y="556"/>
      <point x="208" y="555"/>
      <point x="192" y="555" type="curve" smooth="yes"/>
      <point x="171" y="556" type="line"/>
      <point x="172" y="590" type="line"/>
      <point x="191" y="590" type="line" smooth="yes"/>
      <point x="204" y="590"/>
      <point x="243" y="591"/>
      <point x="253" y="600" type="curve" smooth="yes"/>
      <point x="261" y="607"/>
      <point x="265" y="612"/>
      <point x="276" y="612" type="curve" smooth="yes"/>
      <point x="298" y="612"/>
      <point x="293" y="594"/>
    </contour>
  </outline>
</glyph>
<glyph name="threequarters" format="1">
  <advance width="600"/>
  <unicode hex="00BE"/>
  <outline>
    <contour>
      <point x="561" y="633" type="line"/>
      <point x="596" y="610" type="line"/>
      <point x="182" y="-28" type="line"/>
      <point x="147" y="-4" type="line"/>
    </contour>
    <contour>
      <point x="544" y="226" type="line"/>
      <point x="587" y="226" type="line"/>
      <point x="564" y="118" type="line"/>
      <point x="610" y="118" type="line"/>
      <point x="602" y="82" type="line"/>
      <point x="556" y="82" type="line"/>
      <point x="547" y="36" type="line"/>
      <point x="593" y="36" type="line"/>
      <point x="585" y="0" type="line"/>
      <point x="442" y="0" type="line"/>
      <point x="450" y="36" type="line"/>
      <point x="504" y="36" type="line"/>
      <point x="513" y="82" type="line"/>
      <point x="354" y="82" type="line"/>
      <point x="361" y="113" type="line"/>
      <point x="422" y="186"/>
      <point x="481" y="262"/>
      <point x="520" y="346" type="curve"/>
      <point x="560" y="334" type="line"/>
      <point x="522" y="256"/>
      <point x="465" y="185"/>
      <point x="408" y="118" type="curve"/>
      <point x="521" y="118" type="line"/>
    </contour>
    <contour>
      <point x="224" y="442" type="curve"/>
      <point x="190" y="439" type="line"/>
      <point x="199" y="479" type="line"/>
      <point x="207" y="477"/>
      <point x="215" y="476"/>
      <point x="223" y="476" type="curve" smooth="yes"/>
      <point x="253" y="476"/>
      <point x="283" y="486"/>
      <point x="291" y="521" type="curve" smooth="yes"/>
      <point x="297" y="550"/>
      <point x="283" y="576"/>
      <point x="251" y="576" type="curve" smooth="yes"/>
      <point x="240" y="576"/>
      <point x="223" y="575"/>
      <point x="213" y="565" type="curve"/>
      <point x="207" y="546"/>
      <point x="190" y="526"/>
      <point x="168" y="526" type="curve" smooth="yes"/>
      <point x="157" y="526"/>
      <point x="150" y="535"/>
      <point x="152" y="546" type="curve" smooth="yes"/>
      <point x="161" y="586"/>
      <point x="224" y="612"/>
      <point x="257" y="612" type="curve" smooth="yes"/>
      <point x="311" y="612"/>
      <point x="346" y="578"/>
      <point x="334" y="523" type="curve" smooth="yes"/>
      <point x="328" y="494"/>
      <point x="313" y="479"/>
      <point x="289" y="461" type="curve"/>
      <point x="315" y="439"/>
      <point x="328" y="420"/>
      <point x="320" y="380" type="curve" smooth="yes"/>
      <point x="305" y="312"/>
      <point x="240" y="279"/>
      <point x="179" y="279" type="curve" smooth="yes"/>
      <point x="143" y="279"/>
      <point x="107" y="288"/>
      <point x="81" y="306" type="curve"/>
      <point x="105" y="339" type="line"/>
      <point x="128" y="323"/>
      <point x="156" y="315"/>
      <point x="187" y="315" type="curve" smooth="yes"/>
      <point x="227" y="315"/>
      <point x="267" y="334"/>
      <point x="276" y="378" type="curve" smooth="yes"/>
      <point x="285" y="419"/>
      <point x="264" y="442"/>
    </contour>
  </outline>
</glyph>
<glyph name="questiondown" format="1">
  <advance width="600"/>
  <unicode hex="00BF"/>
  <outline>
    <contour>
      <point x="355" y="261" type="line"/>
      <point x="415" y="261" type="line"/>
      <point x="408" y="226" type="line"/>
      <point x="378" y="85"/>
      <point x="241" y="47"/>
      <point x="221" y="-49" type="curve" smooth="yes"/>
      <point x="210" y="-98"/>
      <point x="235" y="-141"/>
      <point x="286" y="-141" type="curve" smooth="yes"/>
      <point x="334" y="-141"/>
      <point x="384" y="-113"/>
      <point x="401" y="-64" type="curve"/>
      <point x="400" y="-54"/>
      <point x="400" y="-43"/>
      <point x="402" y="-32" type="curve" smooth="yes"/>
      <point x="406" y="-13"/>
      <point x="422" y="9"/>
      <point x="444" y="9" type="curve" smooth="yes"/>
      <point x="477" y="9"/>
      <point x="478" y="-19"/>
      <point x="472" y="-46" type="curve" smooth="yes"/>
      <point x="455" y="-127"/>
      <point x="369" y="-197"/>
      <point x="274" y="-197" type="curve" smooth="yes"/>
      <point x="198" y="-197"/>
      <point x="137" y="-139"/>
      <point x="155" y="-56" type="curve" smooth="yes"/>
      <point x="185" y="85"/>
      <point x="320" y="94"/>
      <point x="350" y="234" type="curve"/>
    </contour>
    <contour>
      <point x="349" y="369" type="curve" smooth="yes"/>
      <point x="356" y="401"/>
      <point x="390" y="426"/>
      <point x="421" y="426" type="curve" smooth="yes"/>
      <point x="452" y="426"/>
      <point x="474" y="401"/>
      <point x="467" y="369" type="curve" smooth="yes"/>
      <point x="461" y="337"/>
      <point x="428" y="312"/>
      <point x="396" y="312" type="curve" smooth="yes"/>
      <point x="364" y="312"/>
      <point x="343" y="337"/>
    </contour>
  </outline>
</glyph>
<glyph name="Acircumflex" format="1">
  <advance width="600"/>
  <unicode hex="00C2"/>
  <outline>
    <contour>
      <point x="435" y="656" type="line"/>
      <point x="543" y="56" type="line"/>
      <point x="593" y="56" type="line"/>
      <point x="581" y="0" type="line"/>
      <point x="379" y="0" type="line"/>
      <point x="391" y="56" type="line"/>
      <point x="477" y="56" type="line"/>
      <point x="456" y="185" type="line"/>
      <point x="218" y="185" type="line"/>
      <point x="144" y="56" type="line"/>
      <point x="231" y="56" type="line"/>
      <point x="219" y="0" type="line"/>
      <point x="19" y="0" type="line"/>
      <point x="31" y="56" type="line"/>
      <point x="81" y="56" type="line"/>
    </contour>
    <contour>
      <point x="448" y="241" type="line"/>
      <point x="406" y="516" type="line"/>
      <point x="249" y="241" type="line"/>
    </contour>
    <contour>
      <point x="420" y="749" type="line"/>
      <point x="258" y="653" type="line"/>
      <point x="229" y="690" type="line"/>
      <point x="440" y="844" type="line"/>
      <point x="585" y="690" type="line"/>
      <point x="540" y="653" type="line"/>
    </contour>
  </outline>
</glyph>
<glyph name="Atilde" format="1">
  <advance width="600"/>
  <unicode hex="00C3"/>
  <outline>
    <contour>
      <point x="435" y="656" type="line"/>
      <point x="543" y="56" type="line"/>
      <point x="593" y="56" type="line"/>
      <point x="581" y="0" type="line"/>
      <point x="379" y="0" type="line"/>
      <point x="391" y="56" type="line"/>
      <point x="477" y="56" type="line"/>
      <point x="456" y="185" type="line"/>
      <point x="218" y="185" type="line"/>
      <point x="144" y="56" type="line"/>
      <point x="231" y="56" type="line"/>
      <point x="219" y="0" type="line"/>
      <point x="19" y="0" type="line"/>
      <point x="31" y="56" type="line"/>
      <point x="81" y="56" type="line"/>
    </contour>
    <contour>
      <point x="448" y="241" type="line"/>
      <point x="406" y="516" type="line"/>
      <point x="249" y="241" type="line"/>
    </contour>
    <contour>
      <point x="312" y="692" type="curve"/>
      <point x="248" y="692" type="line"/>
      <point x="252" y="722"/>
      <point x="263" y="751"/>
      <point x="282" y="773" type="curve" smooth="yes"/>
      <point x="300" y="795"/>
      <point x="326" y="809"/>
      <point x="360" y="809" type="curve" smooth="yes"/>
      <point x="389" y="809"/>
      <point x="414" y="796"/>
      <point x="435" y="782" type="curve" smooth="yes"/>
      <point x="456" y="768"/>
      <point x="474" y="754"/>
      <point x="489" y="754" type="curve" smooth="yes"/>
      <point x="517" y="754"/>
      <point x="523" y="793"/>
      <point x="529" y="812" type="curve"/>
      <point x="593" y="812" type="line"/>
      <point x="590" y="782"/>
      <point x="578" y="753"/>
      <point x="559" y="731" type="curve" smooth="yes"/>
      <point x="540" y="709"/>
      <point x="513" y="695"/>
      <point x="477" y="695" type="curve" smooth="yes"/>
      <point x="448" y="695"/>
      <point x="424" y="711"/>
      <point x="402" y="725" type="curve" smooth="yes"/>
      <point x="389" y="733"/>
      <point x="369" y="749"/>
      <point x="352" y="749" type="curve" smooth="yes"/>
      <point x="323" y="749"/>
      <point x="315" y="712"/>
    </contour>
  </outline>
</glyph>
<glyph name="Adieresis" format="1">
  <advance width="600"/>
  <unicode hex="00C4"/>
  <outline>
    <contour>
      <point x="435" y="656" type="line"/>
      <point x="543" y="56" type="line"/>
      <point x="593" y="56" type="line"/>
      <point x="581" y="0" type="line"/>
      <point x="379" y="0" type="line"/>
      <point x="391" y="56" type="line"/>
      <point x="477" y="56" type="line"/>
      <point x="456" y="185" type="line"/>
      <point x="218" y="185" type="line"/>
      <point x="144" y="56" type="line"/>
      <point x="231" y="56" type="line"/>
      <point x="219" y="0" type="line"/>
      <point x="19" y="0" type="line"/>
      <point x="31" y="56" type="line"/>
      <point x="81" y="56" type="line"/>
    </contour>
    <contour>
      <point x="448" y="241" type="line"/>
      <point x="406" y="516" type="line"/>
      <point x="249" y="241" type="line"/>
    </contour>
    <contour>
      <point x="253" y="748" type="curve" smooth="yes"/>
      <point x="260" y="781"/>
      <point x="294" y="806"/>
      <point x="326" y="806" type="curve" smooth="yes"/>
      <point x="358" y="806"/>
      <point x="380" y="781"/>
      <point x="373" y="748" type="curve" smooth="yes"/>
      <point x="366" y="715"/>
      <point x="333" y="690"/>
      <point x="301" y="690" type="curve" smooth="yes"/>
      <point x="269" y="690"/>
      <point x="246" y="715"/>
    </contour>
    <contour>
      <point x="465" y="748" type="curve" smooth="yes"/>
      <point x="472" y="781"/>
      <point x="506" y="806"/>
      <point x="538" y="806" type="curve" smooth="yes"/>
      <point x="570" y="806"/>
      <point x="592" y="781"/>
      <point x="585" y="748" type="curve" smooth="yes"/>
      <point x="578" y="715"/>
      <point x="545" y="690"/>
      <point x="513" y="690" type="curve" smooth="yes"/>
      <point x="481" y="690"/>
      <point x="458" y="715"/>
    </contour>
  </outline>
</glyph>
<glyph name="Aring" format="1">
  <advance width="600"/>
  <unicode hex="00C5"/>
  <outline>
    <contour>
      <point x="435" y="656" type="line"/>
      <point x="543" y="56" type="line"/>
      <point x="593" y="56" type="line"/>
      <point x="581" y="0" type="line"/>
      <point x="379" y="0" type="line"/>
      <point x="391" y="56" type="line"/>
      <point x="477" y="56" type="line"/>
      <point x="456" y="185" type="line"/>
      <point x="218" y="185" type="line"/>
      <point x="144" y="56" type="line"/>
      <point x="231" y="56" type="line"/>
      <point x="219" y="0" type="line"/>
      <point x="19" y="0" type="line"/>
      <point x="31" y="56" type="line"/>
      <point x="81" y="56" type="line"/>
    </contour>
    <contour>
      <point x="448" y="241" type="line"/>
      <point x="406" y="516" type="line"/>
      <point x="249" y="241" type="line"/>
    </contour>
    <contour>
      <point x="327" y="748" type="curve" smooth="yes"/>
      <point x="338" y="798"/>
      <point x="389" y="837"/>
      <point x="438" y="837" type="curve" smooth="yes"/>
      <point x="488" y="837"/>
      <point x="522" y="799"/>
      <point x="511" y="748" type="curve" smooth="yes"/>
      <point x="501" y="698"/>
      <point x="451" y="659"/>
      <point x="401" y="659" type="curve" smooth="yes"/>
      <point x="351" y="659"/>
      <point x="317" y="698"/>
    </contour>
    <contour>
      <point x="386" y="748" type="curve" smooth="yes"/>
      <point x="382" y="729"/>
      <point x="390" y="708"/>
      <point x="411" y="708" type="curve" smooth="yes"/>
      <point x="432" y="708"/>
      <point x="448" y="729"/>
      <point x="452" y="748" type="curve" smooth="yes"/>
      <point x="456" y="767"/>
      <point x="449" y="788"/>
      <point x="428" y="788" type="curve" smooth="yes"/>
      <point x="407" y="788"/>
      <point x="390" y="767"/>
    </contour>
  </outline>
</glyph>
<glyph name="AE" format="1">
  <advance width="600"/>
  <unicode hex="00C6"/>
  <outline>
    <contour>
      <point x="351" y="242" type="line"/>
      <point x="416" y="544" type="line"/>
      <point x="394" y="544" type="line"/>
      <point x="225" y="242" type="line"/>
    </contour>
    <contour>
      <point x="195" y="186" type="line"/>
      <point x="122" y="56" type="line"/>
      <point x="204" y="56" type="line"/>
      <point x="192" y="0" type="line"/>
      <point x="17" y="0" type="line"/>
      <point x="29" y="56" type="line"/>
      <point x="60" y="56" type="line"/>
      <point x="365" y="600" type="line"/>
      <point x="699" y="600" type="line"/>
      <point x="663" y="433" type="line"/>
      <point x="601" y="433" type="line"/>
      <point x="605" y="451" type="line"/>
      <point x="620" y="542"/>
      <point x="612" y="544"/>
      <point x="546" y="544" type="curve" smooth="yes"/>
      <point x="478" y="544" type="line"/>
      <point x="437" y="354" type="line"/>
      <point x="496" y="354" type="line"/>
      <point x="510" y="421" type="line"/>
      <point x="572" y="421" type="line"/>
      <point x="533" y="234" type="line"/>
      <point x="471" y="234" type="line"/>
      <point x="484" y="298" type="line"/>
      <point x="425" y="298" type="line"/>
      <point x="374" y="56" type="line"/>
      <point x="437" y="56" type="line" smooth="yes"/>
      <point x="510" y="56"/>
      <point x="522" y="59"/>
      <point x="538" y="135" type="curve" smooth="yes"/>
      <point x="550" y="191" type="line"/>
      <point x="612" y="191" type="line"/>
      <point x="571" y="0" type="line"/>
      <point x="254" y="0" type="line"/>
      <point x="266" y="56" type="line"/>
      <point x="312" y="56" type="line"/>
      <point x="340" y="186" type="line"/>
    </contour>
  </outline>
</glyph>
<glyph name="Ccedilla" format="1">
  <advance width="600"/>
  <unicode hex="00C7"/>
  <outline>
    <contour>
      <point x="587" y="578" type="curve"/>
      <point x="607" y="612" type="line"/>
      <point x="659" y="594" type="line"/>
      <point x="638" y="561"/>
      <point x="625" y="525"/>
      <point x="619" y="489" type="curve" smooth="yes"/>
      <point x="608" y="413" type="line"/>
      <point x="547" y="403" type="line"/>
      <point x="562" y="495"/>
      <point x="552" y="556"/>
      <point x="448" y="556" type="curve" smooth="yes"/>
      <point x="309" y="556"/>
      <point x="233" y="417"/>
      <point x="208" y="301" type="curve" smooth="yes"/>
      <point x="184" y="188"/>
      <point x="203" y="44"/>
      <point x="337" y="44" type="curve" smooth="yes"/>
      <point x="439" y="44"/>
      <point x="492" y="112"/>
      <point x="512" y="206" type="curve"/>
      <point x="574" y="206" type="line"/>
      <point x="547" y="78" type="line"/>
      <point x="479" y="24"/>
      <point x="401" y="-12"/>
      <point x="322" y="-12" type="curve" smooth="yes"/>
      <point x="214" y="-12"/>
      <point x="94" y="71"/>
      <point x="144" y="306" type="curve" smooth="yes"/>
      <point x="193" y="535"/>
      <point x="347" y="612"/>
      <point x="457" y="612" type="curve" smooth="yes"/>
      <point x="504" y="612"/>
      <point x="550" y="599"/>
    </contour>
    <contour>
      <point x="347" y="30" type="line"/>
      <point x="321" y="-24" type="line"/>
      <point x="375" y="-23"/>
      <point x="425" y="-49"/>
      <point x="412" y="-110" type="curve" smooth="yes"/>
      <point x="397" y="-179"/>
      <point x="322" y="-206"/>
      <point x="263" y="-206" type="curve" smooth="yes"/>
      <point x="224" y="-206"/>
      <point x="185" y="-197"/>
      <point x="155" y="-178" type="curve"/>
      <point x="168" y="-119" type="line"/>
      <point x="199" y="-135"/>
      <point x="233" y="-150"/>
      <point x="272" y="-150" type="curve" smooth="yes"/>
      <point x="297" y="-150"/>
      <point x="340" y="-141"/>
      <point x="347" y="-110" type="curve"/>
      <point x="352" y="-83"/>
      <point x="315" y="-80"/>
      <point x="295" y="-80" type="curve"/>
      <point x="233" y="-86" type="line"/>
      <point x="286" y="30" type="line"/>
    </contour>
  </outline>
</glyph>
<glyph name="Egrave" format="1">
  <advance width="600"/>
  <unicode hex="00C8"/>
  <outline>
    <contour>
      <point x="488" y="544" type="curve" smooth="yes"/>
      <point x="319" y="544" type="line"/>
      <point x="278" y="355" type="line"/>
      <point x="415" y="355" type="line"/>
      <point x="433" y="439" type="line"/>
      <point x="495" y="439" type="line"/>
      <point x="446" y="205" type="line"/>
      <point x="384" y="205" type="line"/>
      <point x="404" y="299" type="line"/>
      <point x="267" y="299" type="line"/>
      <point x="215" y="56" type="line"/>
      <point x="402" y="56" type="line" smooth="yes"/>
      <point x="478" y="56"/>
      <point x="487" y="65"/>
      <point x="510" y="176" type="curve" smooth="yes"/>
      <point x="514" y="195" type="line"/>
      <point x="576" y="195" type="line"/>
      <point x="535" y="0" type="line"/>
      <point x="41" y="0" type="line"/>
      <point x="53" y="56" type="line"/>
      <point x="153" y="56" type="line"/>
      <point x="257" y="544" type="line"/>
      <point x="157" y="544" type="line"/>
      <point x="169" y="600" type="line"/>
      <point x="644" y="600" type="line"/>
      <point x="607" y="426" type="line"/>
      <point x="545" y="426" type="line"/>
      <point x="550" y="452" type="line"/>
      <point x="568" y="535"/>
      <point x="567" y="544"/>
    </contour>
    <contour>
      <point x="334" y="846" type="line"/>
      <point x="490" y="695" type="line"/>
      <point x="445" y="651" type="line"/>
      <point x="270" y="785" type="line"/>
    </contour>
  </outline>
</glyph>
<glyph name="Ecircumflex" format="1">
  <advance width="600"/>
  <unicode hex="00CA"/>
  <outline>
    <contour>
      <point x="488" y="544" type="curve" smooth="yes"/>
      <point x="319" y="544" type="line"/>
      <point x="278" y="355" type="line"/>
      <point x="415" y="355" type="line"/>
      <point x="433" y="439" type="line"/>
      <point x="495" y="439" type="line"/>
      <point x="446" y="205" type="line"/>
      <point x="384" y="205" type="line"/>
      <point x="404" y="299" type="line"/>
      <point x="267" y="299" type="line"/>
      <point x="215" y="56" type="line"/>
      <point x="402" y="56" type="line" smooth="yes"/>
      <point x="478" y="56"/>
      <point x="487" y="65"/>
      <point x="510" y="176" type="curve" smooth="yes"/>
      <point x="514" y="195" type="line"/>
      <point x="576" y="195" type="line"/>
      <point x="535" y="0" type="line"/>
      <point x="41" y="0" type="line"/>
      <point x="53" y="56" type="line"/>
      <point x="153" y="56" type="line"/>
      <point x="257" y="544" type="line"/>
      <point x="157" y="544" type="line"/>
      <point x="169" y="600" type="line"/>
      <point x="644" y="600" type="line"/>
      <point x="607" y="426" type="line"/>
      <point x="545" y="426" type="line"/>
      <point x="550" y="452" type="line"/>
      <point x="568" y="535"/>
      <point x="567" y="544"/>
    </contour>
    <contour>
      <point x="420" y="749" type="line"/>
      <point x="258" y="653" type="line"/>
      <point x="229" y="690" type="line"/>
      <point x="440" y="844" type="line"/>
      <point x="585" y="690" type="line"/>
      <point x="540" y="653" type="line"/>
    </contour>
  </outline>
</glyph>
<glyph name="Edieresis" format="1">
  <advance width="600"/>
  <unicode hex="00CB"/>
  <outline>
    <contour>
      <point x="488" y="544" type="curve" smooth="yes"/>
      <point x="319" y="544" type="line"/>
      <point x="278" y="355" type="line"/>
      <point x="415" y="355" type="line"/>
      <point x="433" y="439" type="line"/>
      <point x="495" y="439" type="line"/>
      <point x="446" y="205" type="line"/>
      <point x="384" y="205" type="line"/>
      <point x="404" y="299" type="line"/>
      <point x="267" y="299" type="line"/>
      <point x="215" y="56" type="line"/>
      <point x="402" y="56" type="line" smooth="yes"/>
      <point x="478" y="56"/>
      <point x="487" y="65"/>
      <point x="510" y="176" type="curve" smooth="yes"/>
      <point x="514" y="195" type="line"/>
      <point x="576" y="195" type="line"/>
      <point x="535" y="0" type="line"/>
      <point x="41" y="0" type="line"/>
      <point x="53" y="56" type="line"/>
      <point x="153" y="56" type="line"/>
      <point x="257" y="544" type="line"/>
      <point x="157" y="544" type="line"/>
      <point x="169" y="600" type="line"/>
      <point x="644" y="600" type="line"/>
      <point x="607" y="426" type="line"/>
      <point x="545" y="426" type="line"/>
      <point x="550" y="452" type="line"/>
      <point x="568" y="535"/>
      <point x="567" y="544"/>
    </contour>
    <contour>
      <point x="253" y="748" type="curve" smooth="yes"/>
      <point x="260" y="781"/>
      <point x="294" y="806"/>
      <point x="326" y="806" type="curve" smooth="yes"/>
      <point x="358" y="806"/>
      <point x="380" y="781"/>
      <point x="373" y="748" type="curve" smooth="yes"/>
      <point x="366" y="715"/>
      <point x="333" y="690"/>
      <point x="301" y="690" type="curve" smooth="yes"/>
      <point x="269" y="690"/>
      <point x="246" y="715"/>
    </contour>
    <contour>
      <point x="465" y="748" type="curve" smooth="yes"/>
      <point x="472" y="781"/>
      <point x="506" y="806"/>
      <point x="538" y="806" type="curve" smooth="yes"/>
      <point x="570" y="806"/>
      <point x="592" y="781"/>
      <point x="585" y="748" type="curve" smooth="yes"/>
      <point x="578" y="715"/>
      <point x="545" y="690"/>
      <point x="513" y="690" type="curve" smooth="yes"/>
      <point x="481" y="690"/>
      <point x="458" y="715"/>
    </contour>
  </outline>
</glyph>
<glyph name="Igrave" format="1">
  <advance width="600"/>
  <unicode hex="00CC"/>
  <outline>
    <contour>
      <point x="237" y="600" type="line"/>
      <point x="619" y="600" type="line"/>
      <point x="607" y="544" type="line"/>
      <point x="447" y="544" type="line"/>
      <point x="343" y="56" type="line"/>
      <point x="503" y="56" type="line"/>
      <point x="491" y="0" type="line"/>
      <point x="109" y="0" type="line"/>
      <point x="121" y="56" type="line"/>
      <point x="281" y="56" type="line"/>
      <point x="385" y="544" type="line"/>
      <point x="225" y="544" type="line"/>
    </contour>
    <contour>
      <point x="334" y="846" type="line"/>
      <point x="490" y="695" type="line"/>
      <point x="445" y="651" type="line"/>
      <point x="270" y="785" type="line"/>
    </contour>
  </outline>
</glyph>
<glyph name="Iacute" format="1">
  <advance width="600"/>
  <unicode hex="00CD"/>
  <outline>
    <contour>
      <point x="237" y="600" type="line"/>
      <point x="619" y="600" type="line"/>
      <point x="607" y="544" type="line"/>
      <point x="447" y="544" type="line"/>
      <point x="343" y="56" type="line"/>
      <point x="503" y="56" type="line"/>
      <point x="491" y="0" type="line"/>
      <point x="109" y="0" type="line"/>
      <point x="121" y="56" type="line"/>
      <point x="281" y="56" type="line"/>
      <point x="385" y="544" type="line"/>
      <point x="225" y="544" type="line"/>
    </contour>
    <contour>
      <point x="546" y="846" type="line"/>
      <point x="584" y="785" type="line"/>
      <point x="354" y="651" type="line"/>
      <point x="326" y="695" type="line"/>
    </contour>
  </outline>
</glyph>
<glyph name="Icircumflex" format="1">
  <advance width="600"/>
  <unicode hex="00CE"/>
  <outline>
    <contour>
      <point x="237" y="600" type="line"/>
      <point x="619" y="600" type="line"/>
      <point x="607" y="544" type="line"/>
      <point x="447" y="544" type="line"/>
      <point x="343" y="56" type="line"/>
      <point x="503" y="56" type="line"/>
      <point x="491" y="0" type="line"/>
      <point x="109" y="0" type="line"/>
      <point x="121" y="56" type="line"/>
      <point x="281" y="56" type="line"/>
      <point x="385" y="544" type="line"/>
      <point x="225" y="544" type="line"/>
    </contour>
    <contour>
      <point x="420" y="749" type="line"/>
      <point x="258" y="653" type="line"/>
      <point x="229" y="690" type="line"/>
      <point x="440" y="844" type="line"/>
      <point x="585" y="690" type="line"/>
      <point x="540" y="653" type="line"/>
    </contour>
  </outline>
</glyph>
<glyph name="Idieresis" format="1">
  <advance width="600"/>
  <unicode hex="00CF"/>
  <outline>
    <contour>
      <point x="237" y="600" type="line"/>
      <point x="619" y="600" type="line"/>
      <point x="607" y="544" type="line"/>
      <point x="447" y="544" type="line"/>
      <point x="343" y="56" type="line"/>
      <point x="503" y="56" type="line"/>
      <point x="491" y="0" type="line"/>
      <point x="109" y="0" type="line"/>
      <point x="121" y="56" type="line"/>
      <point x="281" y="56" type="line"/>
      <point x="385" y="544" type="line"/>
      <point x="225" y="544" type="line"/>
    </contour>
    <contour>
      <point x="253" y="748" type="curve" smooth="yes"/>
      <point x="260" y="781"/>
      <point x="294" y="806"/>
      <point x="326" y="806" type="curve" smooth="yes"/>
      <point x="358" y="806"/>
      <point x="380" y="781"/>
      <point x="373" y="748" type="curve" smooth="yes"/>
      <point x="366" y="715"/>
      <point x="333" y="690"/>
      <point x="301" y="690" type="curve" smooth="yes"/>
      <point x="269" y="690"/>
      <point x="246" y="715"/>
    </contour>
    <contour>
      <point x="465" y="748" type="curve" smooth="yes"/>
      <point x="472" y="781"/>
      <point x="506" y="806"/>
      <point x="538" y="806" type="curve" smooth="yes"/>
      <point x="570" y="806"/>
      <point x="592" y="781"/>
      <point x="585" y="748" type="curve" smooth="yes"/>
      <point x="578" y="715"/>
      <point x="545" y="690"/>
      <point x="513" y="690" type="curve" smooth="yes"/>
      <point x="481" y="690"/>
      <point x="458" y="715"/>
    </contour>
  </outline>
</glyph>
<glyph name="Eth" format="1">
  <advance width="600"/>
  <unicode hex="00D0"/>
  <outline>
    <contour>
      <point x="320" y="536" type="line"/>
      <point x="280" y="346" type="line"/>
      <point x="376" y="346" type="line"/>
      <point x="364" y="290" type="line"/>
      <point x="268" y="290" type="line"/>
      <point x="218" y="56" type="line"/>
      <point x="318" y="56" type="line" smooth="yes"/>
      <point x="426" y="56"/>
      <point x="512" y="116"/>
      <point x="547" y="284" type="curve"/>
      <point x="590" y="484"/>
      <point x="484" y="554"/>
      <point x="394" y="544" type="curve" smooth="yes"/>
    </contour>
    <contour>
      <point x="69" y="-8" type="line"/>
      <point x="72" y="48" type="line"/>
      <point x="156" y="56" type="line"/>
      <point x="206" y="290" type="line"/>
      <point x="124" y="290" type="line"/>
      <point x="136" y="346" type="line"/>
      <point x="218" y="346" type="line"/>
      <point x="258" y="536" type="line"/>
      <point x="183" y="553" type="line"/>
      <point x="195" y="600" type="line"/>
      <point x="226" y="596"/>
      <point x="255" y="588"/>
      <point x="287" y="588" type="curve" smooth="yes"/>
      <point x="326" y="588"/>
      <point x="367" y="600"/>
      <point x="413" y="600" type="curve" smooth="yes"/>
      <point x="558" y="600"/>
      <point x="660" y="506"/>
      <point x="615" y="296" type="curve" smooth="yes"/>
      <point x="568" y="76"/>
      <point x="442" y="0"/>
      <point x="308" y="0" type="curve" smooth="yes"/>
      <point x="263" y="0"/>
      <point x="220" y="9"/>
      <point x="175" y="4" type="curve" smooth="yes"/>
    </contour>
  </outline>
</glyph>
<glyph name="Ntilde" format="1">
  <advance width="600"/>
  <unicode hex="00D1"/>
  <outline>
    <contour>
      <point x="154" y="600" type="line"/>
      <point x="297" y="600" type="line"/>
      <point x="470" y="115" type="line"/>
      <point x="472" y="115" type="line"/>
      <point x="564" y="544" type="line"/>
      <point x="470" y="544" type="line"/>
      <point x="482" y="600" type="line"/>
      <point x="701" y="600" type="line"/>
      <point x="689" y="544" type="line"/>
      <point x="626" y="544" type="line"/>
      <point x="510" y="0" type="line"/>
      <point x="446" y="0" type="line"/>
      <point x="266" y="491" type="line"/>
      <point x="174" y="56" type="line"/>
      <point x="266" y="56" type="line"/>
      <point x="254" y="0" type="line"/>
      <point x="26" y="0" type="line"/>
      <point x="38" y="56" type="line"/>
      <point x="112" y="56" type="line"/>
      <point x="216" y="544" type="line"/>
      <point x="142" y="544" type="line"/>
    </contour>
    <contour>
      <point x="312" y="692" type="curve"/>
      <point x="248" y="692" type="line"/>
      <point x="252" y="722"/>
      <point x="263" y="751"/>
      <point x="282" y="773" type="curve" smooth="yes"/>
      <point x="300" y="795"/>
      <point x="326" y="809"/>
      <point x="360" y="809" type="curve" smooth="yes"/>
      <point x="389" y="809"/>
      <point x="414" y="796"/>
      <point x="435" y="782" type="curve" smooth="yes"/>
      <point x="456" y="768"/>
      <point x="474" y="754"/>
      <point x="489" y="754" type="curve" smooth="yes"/>
      <point x="517" y="754"/>
      <point x="523" y="793"/>
      <point x="529" y="812" type="curve"/>
      <point x="593" y="812" type="line"/>
      <point x="590" y="782"/>
      <point x="578" y="753"/>
      <point x="559" y="731" type="curve" smooth="yes"/>
      <point x="540" y="709"/>
      <point x="513" y="695"/>
      <point x="477" y="695" type="curve" smooth="yes"/>
      <point x="448" y="695"/>
      <point x="424" y="711"/>
      <point x="402" y="725" type="curve" smooth="yes"/>
      <point x="389" y="733"/>
      <point x="369" y="749"/>
      <point x="352" y="749" type="curve" smooth="yes"/>
      <point x="323" y="749"/>
      <point x="315" y="712"/>
    </contour>
  </outline>
</glyph>
<glyph name="Ograve" format="1">
  <advance width="600"/>
  <unicode hex="00D2"/>
  <outline>
    <contour>
      <point x="430" y="612" type="curve" smooth="yes"/>
      <point x="596" y="612"/>
      <point x="636" y="452"/>
      <point x="604" y="300" type="curve" smooth="yes"/>
      <point x="571" y="148"/>
      <point x="463" y="-12"/>
      <point x="297" y="-12" type="curve" smooth="yes"/>
      <point x="131" y="-12"/>
      <point x="91" y="148"/>
      <point x="124" y="300" type="curve" smooth="yes"/>
      <point x="156" y="452"/>
      <point x="264" y="612"/>
    </contour>
    <contour>
      <point x="309" y="44" type="curve" smooth="yes"/>
      <point x="438" y="44"/>
      <point x="515" y="186"/>
      <point x="539" y="300" type="curve" smooth="yes"/>
      <point x="563" y="414"/>
      <point x="547" y="556"/>
      <point x="418" y="556" type="curve" smooth="yes"/>
      <point x="289" y="556"/>
      <point x="213" y="414"/>
      <point x="189" y="300" type="curve" smooth="yes"/>
      <point x="165" y="186"/>
      <point x="180" y="44"/>
    </contour>
    <contour>
      <point x="334" y="846" type="line"/>
      <point x="490" y="695" type="line"/>
      <point x="445" y="651" type="line"/>
      <point x="270" y="785" type="line"/>
    </contour>
  </outline>
</glyph>
<glyph name="Otilde" format="1">
  <advance width="600"/>
  <unicode hex="00D5"/>
  <outline>
    <contour>
      <point x="430" y="612" type="curve" smooth="yes"/>
      <point x="596" y="612"/>
      <point x="636" y="452"/>
      <point x="604" y="300" type="curve" smooth="yes"/>
      <point x="571" y="148"/>
      <point x="463" y="-12"/>
      <point x="297" y="-12" type="curve" smooth="yes"/>
      <point x="131" y="-12"/>
      <point x="91" y="148"/>
      <point x="124" y="300" type="curve" smooth="yes"/>
      <point x="156" y="452"/>
      <point x="264" y="612"/>
    </contour>
    <contour>
      <point x="309" y="44" type="curve" smooth="yes"/>
      <point x="438" y="44"/>
      <point x="515" y="186"/>
      <point x="539" y="300" type="curve" smooth="yes"/>
      <point x="563" y="414"/>
      <point x="547" y="556"/>
      <point x="418" y="556" type="curve" smooth="yes"/>
      <point x="289" y="556"/>
      <point x="213" y="414"/>
      <point x="189" y="300" type="curve" smooth="yes"/>
      <point x="165" y="186"/>
      <point x="180" y="44"/>
    </contour>
    <contour>
      <point x="312" y="692" type="curve"/>
      <point x="248" y="692" type="line"/>
      <point x="252" y="722"/>
      <point x="263" y="751"/>
      <point x="282" y="773" type="curve" smooth="yes"/>
      <point x="300" y="795"/>
      <point x="326" y="809"/>
      <point x="360" y="809" type="curve" smooth="yes"/>
      <point x="389" y="809"/>
      <point x="414" y="796"/>
      <point x="435" y="782" type="curve" smooth="yes"/>
      <point x="456" y="768"/>
      <point x="474" y="754"/>
      <point x="489" y="754" type="curve" smooth="yes"/>
      <point x="517" y="754"/>
      <point x="523" y="793"/>
      <point x="529" y="812" type="curve"/>
      <point x="593" y="812" type="line"/>
      <point x="590" y="782"/>
      <point x="578" y="753"/>
      <point x="559" y="731" type="curve" smooth="yes"/>
      <point x="540" y="709"/>
      <point x="513" y="695"/>
      <point x="477" y="695" type="curve" smooth="yes"/>
      <point x="448" y="695"/>
      <point x="424" y="711"/>
      <point x="402" y="725" type="curve" smooth="yes"/>
      <point x="389" y="733"/>
      <point x="369" y="749"/>
      <point x="352" y="749" type="curve" smooth="yes"/>
      <point x="323" y="749"/>
      <point x="315" y="712"/>
    </contour>
  </outline>
</glyph>
<glyph name="Odieresis" format="1">
  <advance width="600"/>
  <unicode hex="00D6"/>
  <outline>
    <contour>
      <point x="430" y="612" type="curve" smooth="yes"/>
      <point x="596" y="612"/>
      <point x="636" y="452"/>
      <point x="604" y="300" type="curve" smooth="yes"/>
      <point x="571" y="148"/>
      <point x="463" y="-12"/>
      <point x="297" y="-12" type="curve" smooth="yes"/>
      <point x="131" y="-12"/>
      <point x="91" y="148"/>
      <point x="124" y="300" type="curve" smooth="yes"/>
      <point x="156" y="452"/>
      <point x="264" y="612"/>
    </contour>
    <contour>
      <point x="309" y="44" type="curve" smooth="yes"/>
      <point x="438" y="44"/>
      <point x="515" y="186"/>
      <point x="539" y="300" type="curve" smooth="yes"/>
      <point x="563" y="414"/>
      <point x="547" y="556"/>
      <point x="418" y="556" type="curve" smooth="yes"/>
      <point x="289" y="556"/>
      <point x="213" y="414"/>
      <point x="189" y="300" type="curve" smooth="yes"/>
      <point x="165" y="186"/>
      <point x="180" y="44"/>
    </contour>
    <contour>
      <point x="253" y="748" type="curve" smooth="yes"/>
      <point x="260" y="781"/>
      <point x="294" y="806"/>
      <point x="326" y="806" type="curve" smooth="yes"/>
      <point x="358" y="806"/>
      <point x="380" y="781"/>
      <point x="373" y="748" type="curve" smooth="yes"/>
      <point x="366" y="715"/>
      <point x="333" y="690"/>
      <point x="301" y="690" type="curve" smooth="yes"/>
      <point x="269" y="690"/>
      <point x="246" y="715"/>
    </contour>
    <contour>
      <point x="465" y="748" type="curve" smooth="yes"/>
      <point x="472" y="781"/>
      <point x="506" y="806"/>
      <point x="538" y="806" type="curve" smooth="yes"/>
      <point x="570" y="806"/>
      <point x="592" y="781"/>
      <point x="585" y="748" type="curve" smooth="yes"/>
      <point x="578" y="715"/>
      <point x="545" y="690"/>
      <point x="513" y="690" type="curve" smooth="yes"/>
      <point x="481" y="690"/>
      <point x="458" y="715"/>
    </contour>
  </outline>
</glyph>
<glyph name="Oslash" format="1">
  <advance width="600"/>
  <unicode hex="00D8"/>
  <outline>
    <contour>
      <point x="173" y="34" type="curve"/>
      <point x="124" y="-25" type="line"/>
      <point x="80" y="7" type="line"/>
      <point x="140" y="77" type="line"/>
      <point x="106" y="148"/>
      <point x="108" y="226"/>
      <point x="124" y="300" type="curve" smooth="yes"/>
      <point x="156" y="452"/>
      <point x="264" y="612"/>
      <point x="430" y="612" type="curve" smooth="yes"/>
      <point x="479" y="612"/>
      <point x="522" y="597"/>
      <point x="553" y="566" type="curve"/>
      <point x="600" y="621" type="line"/>
      <point x="643" y="589" type="line"/>
      <point x="587" y="523" type="line"/>
      <point x="621" y="452"/>
      <point x="622" y="386"/>
      <point x="604" y="300" type="curve" smooth="yes"/>
      <point x="571" y="148"/>
      <point x="463" y="-12"/>
      <point x="297" y="-12" type="curve" smooth="yes"/>
      <point x="248" y="-12"/>
      <point x="206" y="3"/>
    </contour>
    <contour>
      <point x="539" y="466" type="curve"/>
      <point x="216" y="85" type="line"/>
      <point x="238" y="58"/>
      <point x="270" y="44"/>
      <point x="309" y="44" type="curve" smooth="yes"/>
      <point x="438" y="44"/>
      <point x="515" y="186"/>
      <point x="539" y="300" type="curve" smooth="yes"/>
      <point x="551" y="357"/>
      <point x="552" y="420"/>
    </contour>
    <contour>
      <point x="188" y="134" type="curve"/>
      <point x="512" y="516" type="line"/>
      <point x="488" y="542"/>
      <point x="457" y="556"/>
      <point x="418" y="556" type="curve" smooth="yes"/>
      <point x="289" y="556"/>
      <point x="213" y="414"/>
      <point x="189" y="300" type="curve" smooth="yes"/>
      <point x="176" y="243"/>
      <point x="173" y="185"/>
    </contour>
  </outline>
</glyph>
<glyph name="Ugrave" format="1">
  <advance width="600"/>
  <unicode hex="00D9"/>
  <outline>
    <contour>
      <point x="481" y="600" type="line"/>
      <point x="684" y="600" type="line"/>
      <point x="672" y="544" type="line"/>
      <point x="605" y="544" type="line"/>
      <point x="526" y="175" type="line" smooth="yes"/>
      <point x="499" y="45"/>
      <point x="422" y="-12"/>
      <point x="297" y="-12" type="curve" smooth="yes"/>
      <point x="172" y="-12"/>
      <point x="121" y="45"/>
      <point x="148" y="175" type="curve" smooth="yes"/>
      <point x="227" y="544" type="line"/>
      <point x="160" y="544" type="line"/>
      <point x="172" y="600" type="line"/>
      <point x="375" y="600" type="line"/>
      <point x="363" y="544" type="line"/>
      <point x="289" y="544" type="line"/>
      <point x="212" y="184" type="line" smooth="yes"/>
      <point x="189" y="76"/>
      <point x="227" y="44"/>
      <point x="309" y="44" type="curve" smooth="yes"/>
      <point x="391" y="44"/>
      <point x="443" y="76"/>
      <point x="466" y="184" type="curve" smooth="yes"/>
      <point x="543" y="544" type="line"/>
      <point x="469" y="544" type="line"/>
    </contour>
    <contour>
      <point x="334" y="846" type="line"/>
      <point x="490" y="695" type="line"/>
      <point x="445" y="651" type="line"/>
      <point x="270" y="785" type="line"/>
    </contour>
  </outline>
</glyph>
<glyph name="Ucircumflex" format="1">
  <advance width="600"/>
  <unicode hex="00DB"/>
  <outline>
    <contour>
      <point x="481" y="600" type="line"/>
      <point x="684" y="600" type="line"/>
      <point x="672" y="544" type="line"/>
      <point x="605" y="544" type="line"/>
      <point x="526" y="175" type="line" smooth="yes"/>
      <point x="499" y="45"/>
      <point x="422" y="-12"/>
      <point x="297" y="-12" type="curve" smooth="yes"/>
      <point x="172" y="-12"/>
      <point x="121" y="45"/>
      <point x="148" y="175" type="curve" smooth="yes"/>
      <point x="227" y="544" type="line"/>
      <point x="160" y="544" type="line"/>
      <point x="172" y="600" type="line"/>
      <point x="375" y="600" type="line"/>
      <point x="363" y="544" type="line"/>
      <point x="289" y="544" type="line"/>
      <point x="212" y="184" type="line" smooth="yes"/>
      <point x="189" y="76"/>
      <point x="227" y="44"/>
      <point x="309" y="44" type="curve" smooth="yes"/>
      <point x="391" y="44"/>
      <point x="443" y="76"/>
      <point x="466" y="184" type="curve" smooth="yes"/>
      <point x="543" y="544" type="line"/>
      <point x="469" y="544" type="line"/>
    </contour>
    <contour>
      <point x="420" y="749" type="line"/>
      <point x="258" y="653" type="line"/>
      <point x="229" y="690" type="line"/>
      <point x="440" y="844" type="line"/>
      <point x="585" y="690" type="line"/>
      <point x="540" y="653" type="line"/>
    </contour>
  </outline>
</glyph>
<glyph name="Udieresis" format="1">
  <advance width="600"/>
  <unicode hex="00DC"/>
  <outline>
    <contour>
      <point x="481" y="600" type="line"/>
      <point x="684" y="600" type="line"/>
      <point x="672" y="544" type="line"/>
      <point x="605" y="544" type="line"/>
      <point x="526" y="175" type="line" smooth="yes"/>
      <point x="499" y="45"/>
      <point x="422" y="-12"/>
      <point x="297" y="-12" type="curve" smooth="yes"/>
      <point x="172" y="-12"/>
      <point x="121" y="45"/>
      <point x="148" y="175" type="curve" smooth="yes"/>
      <point x="227" y="544" type="line"/>
      <point x="160" y="544" type="line"/>
      <point x="172" y="600" type="line"/>
      <point x="375" y="600" type="line"/>
      <point x="363" y="544" type="line"/>
      <point x="289" y="544" type="line"/>
      <point x="212" y="184" type="line" smooth="yes"/>
      <point x="189" y="76"/>
      <point x="227" y="44"/>
      <point x="309" y="44" type="curve" smooth="yes"/>
      <point x="391" y="44"/>
      <point x="443" y="76"/>
      <point x="466" y="184" type="curve" smooth="yes"/>
      <point x="543" y="544" type="line"/>
      <point x="469" y="544" type="line"/>
    </contour>
    <contour>
      <point x="253" y="748" type="curve" smooth="yes"/>
      <point x="260" y="781"/>
      <point x="294" y="806"/>
      <point x="326" y="806" type="curve" smooth="yes"/>
      <point x="358" y="806"/>
      <point x="380" y="781"/>
      <point x="373" y="748" type="curve" smooth="yes"/>
      <point x="366" y="715"/>
      <point x="333" y="690"/>
      <point x="301" y="690" type="curve" smooth="yes"/>
      <point x="269" y="690"/>
      <point x="246" y="715"/>
    </contour>
    <contour>
      <point x="465" y="748" type="curve" smooth="yes"/>
      <point x="472" y="781"/>
      <point x="506" y="806"/>
      <point x="538" y="806" type="curve" smooth="yes"/>
      <point x="570" y="806"/>
      <point x="592" y="781"/>
      <point x="585" y="748" type="curve" smooth="yes"/>
      <point x="578" y="715"/>
      <point x="545" y="690"/>
      <point x="513" y="690" type="curve" smooth="yes"/>
      <point x="481" y="690"/>
      <point x="458" y="715"/>
    </contour>
  </outline>
</glyph>
<glyph name="Thorn" format="1">
  <advance width="600"/>
  <unicode hex="00DE"/>
  <outline>
    <contour>
      <point x="188" y="544" type="line"/>
      <point x="200" y="600" type="line"/>
      <point x="427" y="600" type="line"/>
      <point x="415" y="544" type="line"/>
      <point x="333" y="544" type="line"/>
      <point x="313" y="450" type="line"/>
      <point x="443" y="450" type="line" smooth="yes"/>
      <point x="538" y="450"/>
      <point x="612" y="418"/>
      <point x="595" y="338" type="curve" smooth="yes"/>
      <point x="577" y="256"/>
      <point x="491" y="202"/>
      <point x="345" y="202" type="curve" smooth="yes"/>
      <point x="260" y="202" type="line"/>
      <point x="229" y="56" type="line"/>
      <point x="311" y="56" type="line"/>
      <point x="299" y="0" type="line"/>
      <point x="72" y="0" type="line"/>
      <point x="84" y="56" type="line"/>
      <point x="167" y="56" type="line"/>
      <point x="271" y="544" type="line"/>
    </contour>
    <contour>
      <point x="303" y="404" type="line"/>
      <point x="270" y="248" type="line"/>
      <point x="353" y="248" type="line" smooth="yes"/>
      <point x="460" y="248"/>
      <point x="517" y="279"/>
      <point x="529" y="336" type="curve" smooth="yes"/>
      <point x="540" y="387"/>
      <point x="491" y="404"/>
      <point x="421" y="404" type="curve" smooth="yes"/>
    </contour>
  </outline>
</glyph>
<glyph name="germandbls" format="1">
  <advance width="600"/>
  <unicode hex="00DF"/>
  <outline>
    <contour>
      <point x="338" y="292" type="curve"/>
      <point x="351" y="351" type="line"/>
      <point x="421" y="352"/>
      <point x="496" y="360"/>
      <point x="514" y="448" type="curve" smooth="yes"/>
      <point x="529" y="518"/>
      <point x="494" y="556"/>
      <point x="425" y="556" type="curve" smooth="yes"/>
      <point x="308" y="556"/>
      <point x="295" y="450"/>
      <point x="276" y="364" type="curve" smooth="yes"/>
      <point x="199" y="0" type="line"/>
      <point x="58" y="0" type="line"/>
      <point x="70" y="56" type="line"/>
      <point x="149" y="56" type="line"/>
      <point x="223" y="404" type="line" smooth="yes"/>
      <point x="259" y="573"/>
      <point x="347" y="612"/>
      <point x="437" y="612" type="curve" smooth="yes"/>
      <point x="531" y="612"/>
      <point x="602" y="556"/>
      <point x="581" y="455" type="curve" smooth="yes"/>
      <point x="567" y="389"/>
      <point x="542" y="362"/>
      <point x="482" y="326" type="curve"/>
      <point x="546" y="303"/>
      <point x="571" y="235"/>
      <point x="556" y="165" type="curve" smooth="yes"/>
      <point x="535" y="68"/>
      <point x="456" y="-12"/>
      <point x="355" y="-12" type="curve" smooth="yes"/>
      <point x="272" y="-12"/>
      <point x="239" y="42"/>
      <point x="256" y="123" type="curve"/>
      <point x="261" y="145" type="line"/>
      <point x="320" y="145" type="line"/>
      <point x="316" y="125" type="line" smooth="yes"/>
      <point x="307" y="78"/>
      <point x="316" y="44"/>
      <point x="369" y="44" type="curve" smooth="yes"/>
      <point x="432" y="44"/>
      <point x="478" y="102"/>
      <point x="490" y="160" type="curve" smooth="yes"/>
      <point x="514" y="272"/>
      <point x="431" y="291"/>
    </contour>
  </outline>
</glyph>
<glyph name="aacute" format="1">
  <advance width="600"/>
  <unicode hex="00E1"/>
  <outline>
    <contour>
      <point x="395" y="0" type="line"/>
      <point x="401" y="30" type="line"/>
      <point x="336" y="5"/>
      <point x="274" y="-12"/>
      <point x="210" y="-12" type="curve" smooth="yes"/>
      <point x="137" y="-12"/>
      <point x="78" y="22"/>
      <point x="95" y="103" type="curve" smooth="yes"/>
      <point x="112" y="185"/>
      <point x="181" y="214"/>
      <point x="254" y="230" type="curve" smooth="yes"/>
      <point x="319" y="245"/>
      <point x="381" y="248"/>
      <point x="448" y="250" type="curve"/>
      <point x="454" y="276" type="line"/>
      <point x="466" y="333"/>
      <point x="483" y="370"/>
      <point x="407" y="370" type="curve" smooth="yes"/>
      <point x="357" y="370"/>
      <point x="304" y="359"/>
      <point x="256" y="331" type="curve"/>
      <point x="244" y="272" type="line"/>
      <point x="182" y="272" type="line"/>
      <point x="202" y="368" type="line"/>
      <point x="268" y="403"/>
      <point x="345" y="426"/>
      <point x="410" y="426" type="curve" smooth="yes"/>
      <point x="512" y="426"/>
      <point x="542" y="399"/>
      <point x="521" y="301" type="curve" smooth="yes"/>
      <point x="469" y="56" type="line"/>
      <point x="552" y="56" type="line"/>
      <point x="540" y="0" type="line"/>
    </contour>
    <contour>
      <point x="415" y="93" type="curve"/>
      <point x="437" y="197" type="line"/>
      <point x="379" y="195"/>
      <point x="316" y="190"/>
      <point x="260" y="177" type="curve" smooth="yes"/>
      <point x="216" y="167"/>
      <point x="171" y="153"/>
      <point x="160" y="103" type="curve" smooth="yes"/>
      <point x="150" y="56"/>
      <point x="185" y="44"/>
      <point x="225" y="44" type="curve" smooth="yes"/>
      <point x="287" y="44"/>
      <point x="353" y="67"/>
    </contour>
    <contour>
      <point x="546" y="660" type="line"/>
      <point x="584" y="599" type="line"/>
      <point x="354" y="465" type="line"/>
      <point x="326" y="509" type="line"/>
    </contour>
  </outline>
</glyph>
<glyph name="atilde" format="1">
  <advance width="600"/>
  <unicode hex="00E3"/>
  <outline>
    <contour>
      <point x="395" y="0" type="line"/>
      <point x="401" y="30" type="line"/>
      <point x="336" y="5"/>
      <point x="274" y="-12"/>
      <point x="210" y="-12" type="curve" smooth="yes"/>
      <point x="137" y="-12"/>
      <point x="78" y="22"/>
      <point x="95" y="103" type="curve" smooth="yes"/>
      <point x="112" y="185"/>
      <point x="181" y="214"/>
      <point x="254" y="230" type="curve" smooth="yes"/>
      <point x="319" y="245"/>
      <point x="381" y="248"/>
      <point x="448" y="250" type="curve"/>
      <point x="454" y="276" type="line"/>
      <point x="466" y="333"/>
      <point x="483" y="370"/>
      <point x="407" y="370" type="curve" smooth="yes"/>
      <point x="357" y="370"/>
      <point x="304" y="359"/>
      <point x="256" y="331" type="curve"/>
      <point x="244" y="272" type="line"/>
      <point x="182" y="272" type="line"/>
      <point x="202" y="368" type="line"/>
      <point x="268" y="403"/>
      <point x="345" y="426"/>
      <point x="410" y="426" type="curve" smooth="yes"/>
      <point x="512" y="426"/>
      <point x="542" y="399"/>
      <point x="521" y="301" type="curve" smooth="yes"/>
      <point x="469" y="56" type="line"/>
      <point x="552" y="56" type="line"/>
      <point x="540" y="0" type="line"/>
    </contour>
    <contour>
      <point x="415" y="93" type="curve"/>
      <point x="437" y="197" type="line"/>
      <point x="379" y="195"/>
      <point x="316" y="190"/>
      <point x="260" y="177" type="curve" smooth="yes"/>
      <point x="216" y="167"/>
      <point x="171" y="153"/>
      <point x="160" y="103" type="curve" smooth="yes"/>
      <point x="150" y="56"/>
      <point x="185" y="44"/>
      <point x="225" y="44" type="curve" smooth="yes"/>
      <point x="287" y="44"/>
      <point x="353" y="67"/>
    </contour>
    <contour>
      <point x="312" y="506" type="curve"/>
      <point x="248" y="506" type="line"/>
      <point x="252" y="536"/>
      <point x="263" y="565"/>
      <point x="282" y="587" type="curve" smooth="yes"/>
      <point x="300" y="609"/>
      <point x="326" y="623"/>
      <point x="360" y="623" type="curve" smooth="yes"/>
      <point x="389" y="623"/>
      <point x="414" y="610"/>
      <point x="435" y="596" type="curve" smooth="yes"/>
      <point x="456" y="582"/>
      <point x="474" y="568"/>
      <point x="489" y="568" type="curve" smooth="yes"/>
      <point x="517" y="568"/>
      <point x="523" y="607"/>
      <point x="529" y="626" type="curve"/>
      <point x="593" y="626" type="line"/>
      <point x="590" y="596"/>
      <point x="578" y="567"/>
      <point x="559" y="545" type="curve" smooth="yes"/>
      <point x="540" y="523"/>
      <point x="513" y="509"/>
      <point x="477" y="509" type="curve" smooth="yes"/>
      <point x="448" y="509"/>
      <point x="424" y="525"/>
      <point x="402" y="539" type="curve" smooth="yes"/>
      <point x="389" y="547"/>
      <point x="369" y="563"/>
      <point x="352" y="563" type="curve" smooth="yes"/>
      <point x="323" y="563"/>
      <point x="315" y="526"/>
    </contour>
  </outline>
</glyph>
<glyph name="adieresis" format="1">
  <advance width="600"/>
  <unicode hex="00E4"/>
  <outline>
    <contour>
      <point x="395" y="0" type="line"/>
      <point x="401" y="30" type="line"/>
      <point x="336" y="5"/>
      <point x="274" y="-12"/>
      <point x="210" y="-12" type="curve" smooth="yes"/>
      <point x="137" y="-12"/>
      <point x="78" y="22"/>
      <point x="95" y="103" type="curve" smooth="yes"/>
      <point x="112" y="185"/>
      <point x="181" y="214"/>
      <point x="254" y="230" type="curve" smooth="yes"/>
      <point x="319" y="245"/>
      <point x="381" y="248"/>
      <point x="448" y="250" type="curve"/>
      <point x="454" y="276" type="line"/>
      <point x="466" y="333"/>
      <point x="483" y="370"/>
      <point x="407" y="370" type="curve" smooth="yes"/>
      <point x="357" y="370"/>
      <point x="304" y="359"/>
      <point x="256" y="331" type="curve"/>
      <point x="244" y="272" type="line"/>
      <point x="182" y="272" type="line"/>
      <point x="202" y="368" type="line"/>
      <point x="268" y="403"/>
      <point x="345" y="426"/>
      <point x="410" y="426" type="curve" smooth="yes"/>
      <point x="512" y="426"/>
      <point x="542" y="399"/>
      <point x="521" y="301" type="curve" smooth="yes"/>
      <point x="469" y="56" type="line"/>
      <point x="552" y="56" type="line"/>
      <point x="540" y="0" type="line"/>
    </contour>
    <contour>
      <point x="415" y="93" type="curve"/>
      <point x="437" y="197" type="line"/>
      <point x="379" y="195"/>
      <point x="316" y="190"/>
      <point x="260" y="177" type="curve" smooth="yes"/>
      <point x="216" y="167"/>
      <point x="171" y="153"/>
      <point x="160" y="103" type="curve" smooth="yes"/>
      <point x="150" y="56"/>
      <point x="185" y="44"/>
      <point x="225" y="44" type="curve" smooth="yes"/>
      <point x="287" y="44"/>
      <point x="353" y="67"/>
    </contour>
    <contour>
      <point x="253" y="562" type="curve" smooth="yes"/>
      <point x="260" y="595"/>
      <point x="294" y="620"/>
      <point x="326" y="620" type="curve" smooth="yes"/>
      <point x="358" y="620"/>
      <point x="380" y="595"/>
      <point x="373" y="562" type="curve" smooth="yes"/>
      <point x="366" y="529"/>
      <point x="333" y="504"/>
      <point x="301" y="504" type="curve" smooth="yes"/>
      <point x="269" y="504"/>
      <point x="246" y="529"/>
    </contour>
    <contour>
      <point x="465" y="562" type="curve" smooth="yes"/>
      <point x="472" y="595"/>
      <point x="506" y="620"/>
      <point x="538" y="620" type="curve" smooth="yes"/>
      <point x="570" y="620"/>
      <point x="592" y="595"/>
      <point x="585" y="562" type="curve" smooth="yes"/>
      <point x="578" y="529"/>
      <point x="545" y="504"/>
      <point x="513" y="504" type="curve" smooth="yes"/>
      <point x="481" y="504"/>
      <point x="458" y="529"/>
    </contour>
  </outline>
</glyph>
<glyph name="aring" format="1">
  <advance width="600"/>
  <unicode hex="00E5"/>
  <outline>
    <contour>
      <point x="395" y="0" type="line"/>
      <point x="401" y="30" type="line"/>
      <point x="336" y="5"/>
      <point x="274" y="-12"/>
      <point x="210" y="-12" type="curve" smooth="yes"/>
      <point x="137" y="-12"/>
      <point x="78" y="22"/>
      <point x="95" y="103" type="curve" smooth="yes"/>
      <point x="112" y="185"/>
      <point x="181" y="214"/>
      <point x="254" y="230" type="curve" smooth="yes"/>
      <point x="319" y="245"/>
      <point x="381" y="248"/>
      <point x="448" y="250" type="curve"/>
      <point x="454" y="276" type="line"/>
      <point x="466" y="333"/>
      <point x="483" y="370"/>
      <point x="407" y="370" type="curve" smooth="yes"/>
      <point x="357" y="370"/>
      <point x="304" y="359"/>
      <point x="256" y="331" type="curve"/>
      <point x="244" y="272" type="line"/>
      <point x="182" y="272" type="line"/>
      <point x="202" y="368" type="line"/>
      <point x="268" y="403"/>
      <point x="345" y="426"/>
      <point x="410" y="426" type="curve" smooth="yes"/>
      <point x="512" y="426"/>
      <point x="542" y="399"/>
      <point x="521" y="301" type="curve" smooth="yes"/>
      <point x="469" y="56" type="line"/>
      <point x="552" y="56" type="line"/>
      <point x="540" y="0" type="line"/>
    </contour>
    <contour>
      <point x="415" y="93" type="curve"/>
      <point x="437" y="197" type="line"/>
      <point x="379" y="195"/>
      <point x="316" y="190"/>
      <point x="260" y="177" type="curve" smooth="yes"/>
      <point x="216" y="167"/>
      <point x="171" y="153"/>
      <point x="160" y="103" type="curve" smooth="yes"/>
      <point x="150" y="56"/>
      <point x="185" y="44"/>
      <point x="225" y="44" type="curve" smooth="yes"/>
      <point x="287" y="44"/>
      <point x="353" y="67"/>
    </contour>
    <contour>
      <point x="327" y="562" type="curve" smooth="yes"/>
      <point x="338" y="612"/>
      <point x="389" y="651"/>
      <point x="438" y="651" type="curve" smooth="yes"/>
      <point x="488" y="651"/>
      <point x="522" y="613"/>
      <point x="511" y="562" type="curve" smooth="yes"/>
      <point x="501" y="512"/>
      <point x="451" y="473"/>
      <point x="401" y="473" type="curve" smooth="yes"/>
      <point x="351" y="473"/>
      <point x="317" y="512"/>
    </contour>
    <contour>
      <point x="386" y="562" type="curve" smooth="yes"/>
      <point x="382" y="543"/>
      <point x="390" y="522"/>
      <point x="411" y="522" type="curve" smooth="yes"/>
      <point x="432" y="522"/>
      <point x="448" y="543"/>
      <point x="452" y="562" type="curve" smooth="yes"/>
      <point x="456" y="581"/>
      <point x="449" y="602"/>
      <point x="428" y="602" type="curve" smooth="yes"/>
      <point x="407" y="602"/>
      <point x="390" y="581"/>
    </contour>
  </outline>
</glyph>
<glyph name="ae" format="1">
  <advance width="600"/>
  <unicode hex="00E6"/>
  <outline>
    <contour>
      <point x="398" y="239" type="line"/>
      <point x="564" y="239" type="line"/>
      <point x="578" y="305"/>
      <point x="567" y="370"/>
      <point x="495" y="370" type="curve" smooth="yes"/>
      <point x="434" y="370"/>
      <point x="417" y="331"/>
      <point x="402" y="261" type="curve"/>
    </contour>
    <contour>
      <point x="324" y="183" type="line"/>
      <point x="269" y="183" type="line" smooth="yes"/>
      <point x="175" y="183"/>
      <point x="133" y="164"/>
      <point x="122" y="113" type="curve" smooth="yes"/>
      <point x="112" y="66"/>
      <point x="150" y="44"/>
      <point x="193" y="44" type="curve" smooth="yes"/>
      <point x="232" y="44"/>
      <point x="270" y="59"/>
      <point x="303" y="85" type="curve"/>
    </contour>
    <contour>
      <point x="623" y="235" type="curve"/>
      <point x="608" y="183" type="line"/>
      <point x="386" y="183" type="line"/>
      <point x="378" y="144" type="line" smooth="yes"/>
      <point x="363" y="73"/>
      <point x="364" y="44"/>
      <point x="432" y="44" type="curve" smooth="yes"/>
      <point x="483" y="44"/>
      <point x="532" y="73"/>
      <point x="575" y="105" type="curve"/>
      <point x="600" y="59" type="line"/>
      <point x="542" y="19"/>
      <point x="478" y="-12"/>
      <point x="412" y="-12" type="curve" smooth="yes"/>
      <point x="375" y="-12"/>
      <point x="336" y="2"/>
      <point x="319" y="32" type="curve"/>
      <point x="275" y="3"/>
      <point x="227" y="-12"/>
      <point x="180" y="-12" type="curve" smooth="yes"/>
      <point x="119" y="-12"/>
      <point x="37" y="21"/>
      <point x="56" y="110" type="curve" smooth="yes"/>
      <point x="69" y="170"/>
      <point x="119" y="239"/>
      <point x="271" y="239" type="curve" smooth="yes"/>
      <point x="336" y="239" type="line"/>
      <point x="343" y="273" type="line" smooth="yes"/>
      <point x="357" y="338"/>
      <point x="349" y="370"/>
      <point x="298" y="370" type="curve" smooth="yes"/>
      <point x="268" y="370"/>
      <point x="230" y="356"/>
      <point x="200" y="342" type="curve"/>
      <point x="187" y="281" type="line"/>
      <point x="125" y="281" type="line"/>
      <point x="146" y="379" type="line"/>
      <point x="195" y="400"/>
      <point x="261" y="426"/>
      <point x="311" y="426" type="curve" smooth="yes"/>
      <point x="351" y="426"/>
      <point x="380" y="412"/>
      <point x="397" y="382" type="curve"/>
      <point x="429" y="414"/>
      <point x="471" y="426"/>
      <point x="511" y="426" type="curve" smooth="yes"/>
      <point x="608" y="426"/>
      <point x="646" y="345"/>
    </contour>
  </outline>
</glyph>
<glyph name="ccedilla" format="1">
  <advance width="600"/>
  <unicode hex="00E7"/>
  <outline>
    <contour>
      <point x="506" y="88" type="curve"/>
      <point x="517" y="37" type="line"/>
      <point x="453" y="6"/>
      <point x="376" y="-12"/>
      <point x="312" y="-12" type="curve" smooth="yes"/>
      <point x="185" y="-12"/>
      <point x="101" y="72"/>
      <point x="129" y="203" type="curve" smooth="yes"/>
      <point x="157" y="335"/>
      <point x="276" y="426"/>
      <point x="406" y="426" type="curve" smooth="yes"/>
      <point x="461" y="426"/>
      <point x="527" y="409"/>
      <point x="544" y="356" type="curve"/>
      <point x="531" y="306" type="line"/>
      <point x="523" y="255" type="line"/>
      <point x="459" y="255" type="line"/>
      <point x="466" y="283" type="line"/>
      <point x="480" y="348"/>
      <point x="452" y="370"/>
      <point x="389" y="370" type="curve" smooth="yes"/>
      <point x="296" y="370"/>
      <point x="215" y="303"/>
      <point x="196" y="210" type="curve" smooth="yes"/>
      <point x="175" y="111"/>
      <point x="227" y="44"/>
      <point x="326" y="44" type="curve" smooth="yes"/>
      <point x="383" y="44"/>
      <point x="449" y="62"/>
    </contour>
    <contour>
      <point x="337" y="30" type="line"/>
      <point x="311" y="-24" type="line"/>
      <point x="365" y="-23"/>
      <point x="415" y="-49"/>
      <point x="402" y="-110" type="curve" smooth="yes"/>
      <point x="387" y="-179"/>
      <point x="312" y="-206"/>
      <point x="253" y="-206" type="curve" smooth="yes"/>
      <point x="214" y="-206"/>
      <point x="175" y="-197"/>
      <point x="145" y="-178" type="curve"/>
      <point x="158" y="-119" type="line"/>
      <point x="189" y="-135"/>
      <point x="223" y="-150"/>
      <point x="262" y="-150" type="curve" smooth="yes"/>
      <point x="287" y="-150"/>
      <point x="330" y="-141"/>
      <point x="337" y="-110" type="curve"/>
      <point x="342" y="-83"/>
      <point x="305" y="-80"/>
      <point x="285" y="-80" type="curve"/>
      <point x="223" y="-86" type="line"/>
      <point x="276" y="30" type="line"/>
    </contour>
  </outline>
</glyph>
<glyph name="eacute" format="1">
  <advance width="600"/>
  <unicode hex="00E9"/>
  <outline>
    <contour>
      <point x="549" y="183" type="curve"/>
      <point x="191" y="183" type="line"/>
      <point x="178" y="96"/>
      <point x="235" y="44"/>
      <point x="342" y="44" type="curve" smooth="yes"/>
      <point x="405" y="44"/>
      <point x="470" y="64"/>
      <point x="537" y="91" type="curve"/>
      <point x="545" y="40" type="line"/>
      <point x="475" y="9"/>
      <point x="392" y="-12"/>
      <point x="322" y="-12" type="curve" smooth="yes"/>
      <point x="141" y="-12"/>
      <point x="110" y="108"/>
      <point x="129" y="198" type="curve" smooth="yes"/>
      <point x="156" y="326"/>
      <point x="272" y="426"/>
      <point x="401" y="426" type="curve" smooth="yes"/>
      <point x="524" y="426"/>
      <point x="588" y="349"/>
      <point x="562" y="225" type="curve" smooth="yes"/>
      <point x="559" y="211"/>
      <point x="555" y="197"/>
    </contour>
    <contour>
      <point x="203" y="239" type="curve"/>
      <point x="502" y="239" type="line"/>
      <point x="518" y="317"/>
      <point x="465" y="370"/>
      <point x="390" y="370" type="curve" smooth="yes"/>
      <point x="314" y="370"/>
      <point x="234" y="314"/>
    </contour>
    <contour>
      <point x="546" y="660" type="line"/>
      <point x="584" y="599" type="line"/>
      <point x="354" y="465" type="line"/>
      <point x="326" y="509" type="line"/>
    </contour>
  </outline>
</glyph>
<glyph name="edieresis" format="1">
  <advance width="600"/>
  <unicode hex="00EB"/>
  <outline>
    <contour>
      <point x="549" y="183" type="curve"/>
      <point x="191" y="183" type="line"/>
      <point x="178" y="96"/>
      <point x="235" y="44"/>
      <point x="342" y="44" type="curve" smooth="yes"/>
      <point x="405" y="44"/>
      <point x="470" y="64"/>
      <point x="537" y="91" type="curve"/>
      <point x="545" y="40" type="line"/>
      <point x="475" y="9"/>
      <point x="392" y="-12"/>
      <point x="322" y="-12" type="curve" smooth="yes"/>
      <point x="141" y="-12"/>
      <point x="110" y="108"/>
      <point x="129" y="198" type="curve" smooth="yes"/>
      <point x="156" y="326"/>
      <point x="272" y="426"/>
      <point x="401" y="426" type="curve" smooth="yes"/>
      <point x="524" y="426"/>
      <point x="588" y="349"/>
      <point x="562" y="225" type="curve" smooth="yes"/>
      <point x="559" y="211"/>
      <point x="555" y="197"/>
    </contour>
    <contour>
      <point x="203" y="239" type="curve"/>
      <point x="502" y="239" type="line"/>
      <point x="518" y="317"/>
      <point x="465" y="370"/>
      <point x="390" y="370" type="curve" smooth="yes"/>
      <point x="314" y="370"/>
      <point x="234" y="314"/>
    </contour>
    <contour>
      <point x="253" y="562" type="curve" smooth="yes"/>
      <point x="260" y="595"/>
      <point x="294" y="620"/>
      <point x="326" y="620" type="curve" smooth="yes"/>
      <point x="358" y="620"/>
      <point x="380" y="595"/>
      <point x="373" y="562" type="curve" smooth="yes"/>
      <point x="366" y="529"/>
      <point x="333" y="504"/>
      <point x="301" y="504" type="curve" smooth="yes"/>
      <point x="269" y="504"/>
      <point x="246" y="529"/>
    </contour>
    <contour>
      <point x="465" y="562" type="curve" smooth="yes"/>
      <point x="472" y="595"/>
      <point x="506" y="620"/>
      <point x="538" y="620" type="curve" smooth="yes"/>
      <point x="570" y="620"/>
      <point x="592" y="595"/>
      <point x="585" y="562" type="curve" smooth="yes"/>
      <point x="578" y="529"/>
      <point x="545" y="504"/>
      <point x="513" y="504" type="curve" smooth="yes"/>
      <point x="481" y="504"/>
      <point x="458" y="529"/>
    </contour>
  </outline>
</glyph>
<glyph name="icircumflex" format="1">
  <advance width="600"/>
  <unicode hex="00EE"/>
  <outline>
    <contour>
      <point x="102" y="0" type="line"/>
      <point x="114" y="56" type="line"/>
      <point x="313" y="56" type="line"/>
      <point x="377" y="356" type="line"/>
      <point x="341" y="350"/>
      <point x="307" y="346"/>
      <point x="272" y="346" type="curve"/>
      <point x="188" y="351" type="line"/>
      <point x="189" y="406" type="line"/>
      <point x="279" y="400" type="line"/>
      <point x="310" y="400"/>
      <point x="369" y="402"/>
      <point x="397" y="428" type="curve" smooth="yes"/>
      <point x="407" y="437"/>
      <point x="414" y="443"/>
      <point x="427" y="443" type="curve" smooth="yes"/>
      <point x="458" y="443"/>
      <point x="451" y="413"/>
      <point x="446" y="391" type="curve" smooth="yes"/>
      <point x="375" y="56" type="line"/>
      <point x="551" y="56" type="line"/>
      <point x="539" y="0" type="line"/>
    </contour>
    <contour>
      <point x="420" y="563" type="line"/>
      <point x="258" y="467" type="line"/>
      <point x="229" y="504" type="line"/>
      <point x="440" y="658" type="line"/>
      <point x="585" y="504" type="line"/>
      <point x="540" y="467" type="line"/>
    </contour>
  </outline>
</glyph>
